<svg width="14" height="28" viewBox="0 0 14 28" fill="none" xmlns="http://www.w3.org/2000/svg">
<path d="M13.2821 0.00575642L9.97166 0C6.2525 0 3.84902 2.67242 3.84902 6.80869V9.94796H0.520533C0.232912 9.94796 0 10.2007 0 10.5124V15.0608C0 15.3725 0.233178 15.6249 0.520533 15.6249H3.84902V27.1021C3.84902 27.4138 4.08193 27.6662 4.36956 27.6662H8.71229C8.99991 27.6662 9.23282 27.4135 9.23282 27.1021V15.6249H13.1246C13.4122 15.6249 13.6451 15.3725 13.6451 15.0608L13.6467 10.5124C13.6467 10.3627 13.5918 10.2194 13.4943 10.1135C13.3968 10.0075 13.264 9.94796 13.1259 9.94796H9.23282V7.28676C9.23282 6.00769 9.51407 5.35836 11.0515 5.35836L13.2816 5.3575C13.5689 5.3575 13.8018 5.10479 13.8018 4.79337V0.569886C13.8018 0.258751 13.5692 0.00633206 13.2821 0.00575642Z" fill="white"/>
</svg>
