<svg width="29" height="27" viewBox="0 0 29 27" fill="none" xmlns="http://www.w3.org/2000/svg">
<path d="M26.5834 7.875H27.7917V19.125H26.5834V22.5C26.5834 22.7984 26.4561 23.0845 26.2295 23.2955C26.0029 23.5065 25.6955 23.625 25.3751 23.625H3.62508C3.30461 23.625 2.99727 23.5065 2.77066 23.2955C2.54405 23.0845 2.41675 22.7984 2.41675 22.5V4.5C2.41675 4.20163 2.54405 3.91548 2.77066 3.7045C2.99727 3.49353 3.30461 3.375 3.62508 3.375H25.3751C25.6955 3.375 26.0029 3.49353 26.2295 3.7045C26.4561 3.91548 26.5834 4.20163 26.5834 4.5V7.875ZM24.1667 19.125H16.9167C15.3144 19.125 13.7777 18.5324 12.6446 17.4775C11.5116 16.4226 10.8751 14.9918 10.8751 13.5C10.8751 12.0082 11.5116 10.5774 12.6446 9.52252C13.7777 8.46763 15.3144 7.875 16.9167 7.875H24.1667V5.625H4.83341V21.375H24.1667V19.125ZM25.3751 16.875V10.125H16.9167C15.9553 10.125 15.0333 10.4806 14.3535 11.1135C13.6737 11.7464 13.2917 12.6049 13.2917 13.5C13.2917 14.3951 13.6737 15.2536 14.3535 15.8865C15.0333 16.5194 15.9553 16.875 16.9167 16.875H25.3751ZM16.9167 12.375H20.5417V14.625H16.9167V12.375Z" fill="#97312C"/>
</svg>
