<svg width="970" height="967" viewBox="0 0 970 967" fill="none" xmlns="http://www.w3.org/2000/svg">
<path d="M8.20749 4.54776C8.20749 7.27617 6.83957 8.64038 4.10374 8.64038C1.36791 8.64038 0 7.27617 0 4.54776C0 2.50145 2.05187 0.455139 4.10374 0.455139C6.15562 0.455139 8.20749 2.50145 8.20749 4.54776Z" fill="#E5E5E5"/>
<path d="M95.754 4.54776C95.754 6.59407 93.7021 8.64038 91.6502 8.64038C89.5984 8.64038 87.5465 6.59407 87.5465 4.54776C87.5465 2.50145 88.9144 0.455139 91.6502 0.455139C93.7021 0.455139 95.754 2.50145 95.754 4.54776Z" fill="#E5E5E5"/>
<path d="M183.301 4.54776C183.301 6.59407 181.249 8.64038 179.197 8.64038C177.145 8.64038 175.093 6.59407 175.093 4.54776C175.093 2.50145 177.145 0.455139 179.197 0.455139C181.249 0.455139 183.301 2.50145 183.301 4.54776Z" fill="#E5E5E5"/>
<path d="M270.847 4.54776C270.847 6.59407 268.795 8.64038 266.744 8.64038C264.692 8.64038 262.64 6.59407 262.64 4.54776C262.64 2.50145 264.692 0.455139 266.744 0.455139C268.795 0.455139 270.847 2.50145 270.847 4.54776Z" fill="#E5E5E5"/>
<path d="M357.71 4.54776C357.71 6.59407 355.658 8.64038 353.606 8.64038C351.554 8.64038 349.502 6.59407 349.502 4.54776C349.502 2.50145 351.554 0.455139 353.606 0.455139C355.658 0.455139 357.71 2.50145 357.71 4.54776Z" fill="#E5E5E5"/>
<path d="M445.256 4.54776C445.256 6.59407 443.204 8.64038 441.153 8.64038C439.101 8.64038 437.049 7.27617 437.049 4.54776C437.049 2.50145 439.101 0.455139 441.153 0.455139C443.204 0.455139 445.256 2.50145 445.256 4.54776Z" fill="#E5E5E5"/>
<path d="M532.803 4.54776C532.803 6.59407 530.751 8.64038 528.699 8.64038C526.647 8.64038 523.911 7.27617 523.911 4.54776C523.911 2.50145 525.963 0.455139 528.015 0.455139C530.067 0.455139 532.803 2.50145 532.803 4.54776Z" fill="#E5E5E5"/>
<path d="M619.665 4.54776C619.665 6.59407 617.614 8.64038 615.562 8.64038C613.51 8.64038 611.458 6.59407 611.458 4.54776C611.458 2.50145 613.51 0.455139 615.562 0.455139C618.298 0.455139 619.665 2.50145 619.665 4.54776Z" fill="#E5E5E5"/>
<path d="M707.212 4.54776C707.212 6.59407 705.16 8.64038 703.108 8.64038C701.056 8.64038 699.004 6.59407 699.004 4.54776C699.004 2.50145 701.056 0.455139 703.108 0.455139C705.16 0.455139 707.212 2.50145 707.212 4.54776Z" fill="#E5E5E5"/>
<path d="M794.758 4.54776C794.758 6.59407 792.707 8.64038 790.655 8.64038C788.603 8.64038 786.551 6.59407 786.551 4.54776C786.551 2.50145 788.603 0.455139 790.655 0.455139C792.707 0.455139 794.758 2.50145 794.758 4.54776Z" fill="#E5E5E5"/>
<path d="M882.305 4.54776C882.305 6.59407 880.253 8.64038 878.201 8.64038C876.149 8.64038 874.098 6.59407 874.098 4.54776C874.098 2.50145 876.149 0.455139 878.201 0.455139C880.253 0.455139 882.305 2.50145 882.305 4.54776Z" fill="#E5E5E5"/>
<path d="M969.168 4.54776C969.168 6.59407 967.116 8.64038 965.064 8.64038C963.012 8.64038 960.96 6.59407 960.96 4.54776C960.96 2.50145 963.012 0.455139 965.064 0.455139C967.8 0.455139 969.168 2.50145 969.168 4.54776Z" fill="#E5E5E5"/>
<path d="M8.20749 91.8577C8.20749 93.904 6.83957 95.9503 4.10374 95.9503C1.36791 95.9503 0 93.904 0 91.8577C0 89.8114 2.05187 87.7651 4.10374 87.7651C6.15562 87.7651 8.20749 89.1293 8.20749 91.8577Z" fill="#E5E5E5"/>
<path d="M95.754 91.8577C95.754 93.904 93.7021 95.9503 91.6502 95.9503C89.5984 95.9503 87.5465 93.904 87.5465 91.8577C87.5465 89.8114 89.5984 87.7651 91.6502 87.7651C93.7021 87.7651 95.754 89.1293 95.754 91.8577Z" fill="#E5E5E5"/>
<path d="M183.301 91.8577C183.301 93.904 181.249 95.9503 179.197 95.9503C177.145 95.9503 175.093 93.904 175.093 91.8577C175.093 89.8114 177.145 87.7651 179.197 87.7651C181.249 87.7651 183.301 89.1293 183.301 91.8577Z" fill="#E5E5E5"/>
<path d="M270.847 91.8577C270.847 93.904 268.795 95.9503 266.744 95.9503C264.692 95.9503 262.64 93.904 262.64 91.8577C262.64 89.8114 264.692 87.7651 266.744 87.7651C268.795 87.7651 270.847 89.1293 270.847 91.8577Z" fill="#E5E5E5"/>
<path d="M357.71 91.8577C357.71 93.904 355.658 95.9503 353.606 95.9503C351.554 95.9503 349.502 93.904 349.502 91.8577C349.502 89.8114 351.554 87.7651 353.606 87.7651C355.658 87.7651 357.71 89.1293 357.71 91.8577Z" fill="#E5E5E5"/>
<path d="M445.256 91.8577C445.256 93.904 443.204 95.9503 441.153 95.9503C439.101 95.9503 437.049 93.904 437.049 91.8577C437.049 89.8114 439.101 87.7651 441.153 87.7651C443.204 87.7651 445.256 89.1293 445.256 91.8577Z" fill="#E5E5E5"/>
<path d="M532.803 91.8577C532.803 93.904 530.751 95.9503 528.699 95.9503C526.647 95.9503 524.595 93.904 524.595 91.8577C524.595 89.8114 526.647 87.7651 528.699 87.7651C530.751 87.7651 532.803 89.1293 532.803 91.8577Z" fill="#E5E5E5"/>
<path d="M619.665 91.8577C619.665 93.904 617.614 95.9503 615.562 95.9503C613.51 95.9503 611.458 93.904 611.458 91.8577C611.458 89.8114 613.51 87.7651 615.562 87.7651C618.298 87.7651 619.665 89.1293 619.665 91.8577Z" fill="#E5E5E5"/>
<path d="M707.212 91.8577C707.212 93.904 705.16 95.9503 703.108 95.9503C701.056 95.9503 699.004 93.904 699.004 91.8577C699.004 89.8114 701.056 87.7651 703.108 87.7651C705.16 87.7651 707.212 89.1293 707.212 91.8577Z" fill="#E5E5E5"/>
<path d="M794.758 91.8577C794.758 93.904 792.707 95.9503 790.655 95.9503C788.603 95.9503 786.551 93.904 786.551 91.8577C786.551 89.8114 788.603 87.7651 790.655 87.7651C792.707 87.7651 794.758 89.1293 794.758 91.8577Z" fill="#E5E5E5"/>
<path d="M882.305 91.8577C882.305 93.904 880.253 95.9503 878.201 95.9503C876.149 95.9503 874.098 93.904 874.098 91.8577C874.098 89.8114 876.149 87.7651 878.201 87.7651C880.253 87.7651 882.305 89.1293 882.305 91.8577Z" fill="#E5E5E5"/>
<path d="M969.168 91.8577C969.168 93.904 967.116 95.9503 965.064 95.9503C963.012 95.9503 960.96 93.904 960.96 91.8577C960.96 89.8114 963.012 87.7651 965.064 87.7651C967.8 87.7651 969.168 89.1293 969.168 91.8577Z" fill="#E5E5E5"/>
<path d="M8.20749 179.168C8.20749 181.214 6.15562 183.26 4.10374 183.26C2.05187 183.26 0 181.214 0 179.168C0 177.121 2.05187 175.075 4.10374 175.075C6.15562 175.075 8.20749 176.439 8.20749 179.168Z" fill="#E5E5E5"/>
<path d="M95.754 179.167C95.754 181.213 93.7021 183.259 91.6502 183.259C89.5984 183.259 87.5465 181.213 87.5465 179.167C87.5465 177.12 89.5984 175.074 91.6502 175.074C93.7021 174.392 95.754 176.438 95.754 179.167Z" fill="#E5E5E5"/>
<path d="M183.301 179.167C183.301 181.213 181.249 183.259 179.197 183.259C177.145 183.259 175.093 181.213 175.093 179.167C175.093 177.12 177.145 175.074 179.197 175.074C181.249 174.392 183.301 176.438 183.301 179.167Z" fill="#E5E5E5"/>
<path d="M270.847 179.167C270.847 181.213 268.795 183.259 266.744 183.259C264.692 183.259 262.64 181.213 262.64 179.167C262.64 177.12 264.692 175.074 266.744 175.074C268.795 174.392 270.847 176.438 270.847 179.167Z" fill="#E5E5E5"/>
<path d="M357.71 179.167C357.71 181.213 355.658 183.259 353.606 183.259C351.554 183.259 349.502 181.213 349.502 179.167C349.502 177.12 351.554 175.074 353.606 175.074C355.658 174.392 357.71 176.438 357.71 179.167Z" fill="#E5E5E5"/>
<path d="M445.256 179.168C445.256 181.214 443.204 183.26 441.153 183.26C439.101 183.26 437.049 181.214 437.049 179.168C437.049 177.121 439.101 175.075 441.153 175.075C443.204 175.075 445.256 176.439 445.256 179.168Z" fill="#E5E5E5"/>
<path d="M532.803 179.168C532.803 181.214 530.751 183.26 528.699 183.26C526.647 183.26 524.595 181.214 524.595 179.168C524.595 177.121 526.647 175.075 528.699 175.075C530.751 175.075 532.803 176.439 532.803 179.168Z" fill="#E5E5E5"/>
<path d="M619.665 179.167C619.665 181.213 617.614 183.259 615.562 183.259C613.51 183.259 611.458 181.213 611.458 179.167C611.458 177.12 613.51 175.074 615.562 175.074C618.298 174.392 619.665 176.438 619.665 179.167Z" fill="#E5E5E5"/>
<path d="M707.212 179.167C707.212 181.213 705.16 183.259 703.108 183.259C701.056 183.259 699.004 181.213 699.004 179.167C699.004 177.12 701.056 175.074 703.108 175.074C705.16 174.392 707.212 176.438 707.212 179.167Z" fill="#E5E5E5"/>
<path d="M794.758 179.167C794.758 181.213 792.707 183.259 790.655 183.259C788.603 183.259 786.551 181.213 786.551 179.167C786.551 177.12 788.603 175.074 790.655 175.074C792.707 174.392 794.758 176.438 794.758 179.167Z" fill="#E5E5E5"/>
<path d="M882.305 179.167C882.305 181.213 880.253 183.259 878.201 183.259C876.149 183.259 874.098 181.213 874.098 179.167C874.098 177.12 876.149 175.074 878.201 175.074C880.253 174.392 882.305 176.438 882.305 179.167Z" fill="#E5E5E5"/>
<path d="M969.168 179.167C969.168 181.213 967.116 183.259 965.064 183.259C963.012 183.259 960.96 181.213 960.96 179.167C960.96 177.12 963.012 175.074 965.064 175.074C967.8 174.392 969.168 176.438 969.168 179.167Z" fill="#E5E5E5"/>
<path d="M8.20749 265.795C8.20749 267.841 6.15562 269.887 4.10374 269.887C2.05187 269.887 0 268.523 0 265.795C0 263.749 2.05187 261.702 4.10374 261.702C6.15562 261.702 8.20749 263.749 8.20749 265.795Z" fill="#E5E5E5"/>
<path d="M95.754 265.795C95.754 267.841 93.7021 269.887 91.6502 269.887C89.5984 269.887 87.5465 267.841 87.5465 265.795C87.5465 263.749 89.5984 261.702 91.6502 261.702C93.7021 261.702 95.754 263.749 95.754 265.795Z" fill="#E5E5E5"/>
<path d="M183.301 265.795C183.301 267.841 181.249 269.887 179.197 269.887C177.145 269.887 175.093 267.841 175.093 265.795C175.093 263.749 177.145 261.702 179.197 261.702C181.249 261.702 183.301 263.749 183.301 265.795Z" fill="#E5E5E5"/>
<path d="M270.847 265.795C270.847 267.841 268.795 269.887 266.744 269.887C264.692 269.887 262.64 267.841 262.64 265.795C262.64 263.749 264.692 261.702 266.744 261.702C268.795 261.702 270.847 263.749 270.847 265.795Z" fill="#E5E5E5"/>
<path d="M357.71 265.795C357.71 267.841 355.658 269.887 353.606 269.887C351.554 269.887 349.502 267.841 349.502 265.795C349.502 263.749 351.554 261.702 353.606 261.702C355.658 261.702 357.71 263.749 357.71 265.795Z" fill="#E5E5E5"/>
<path d="M445.256 265.795C445.256 267.841 443.204 269.887 441.153 269.887C439.101 269.887 437.049 267.841 437.049 265.795C437.049 263.749 439.101 261.702 441.153 261.702C443.204 261.702 445.256 263.749 445.256 265.795Z" fill="#E5E5E5"/>
<path d="M532.803 265.795C532.803 267.841 530.751 269.887 528.699 269.887C526.647 269.887 524.595 267.841 524.595 265.795C524.595 263.749 526.647 261.702 528.699 261.702C530.751 261.702 532.803 263.749 532.803 265.795Z" fill="#E5E5E5"/>
<path d="M619.665 265.795C619.665 267.841 617.614 269.887 615.562 269.887C613.51 269.887 611.458 267.841 611.458 265.795C611.458 263.749 613.51 261.702 615.562 261.702C618.298 261.702 619.665 263.749 619.665 265.795Z" fill="#E5E5E5"/>
<path d="M707.212 265.795C707.212 267.841 705.16 269.887 703.108 269.887C701.056 269.887 699.004 267.841 699.004 265.795C699.004 263.749 701.056 261.702 703.108 261.702C705.16 261.702 707.212 263.749 707.212 265.795Z" fill="#E5E5E5"/>
<path d="M794.758 265.795C794.758 267.841 792.707 269.887 790.655 269.887C788.603 269.887 786.551 267.841 786.551 265.795C786.551 263.749 788.603 261.702 790.655 261.702C792.707 261.702 794.758 263.749 794.758 265.795Z" fill="#E5E5E5"/>
<path d="M882.305 265.795C882.305 267.841 880.253 269.887 878.201 269.887C876.149 269.887 874.098 267.841 874.098 265.795C874.098 263.749 876.149 261.702 878.201 261.702C880.253 261.702 882.305 263.749 882.305 265.795Z" fill="#E5E5E5"/>
<path d="M969.168 265.795C969.168 267.841 967.116 269.887 965.064 269.887C963.012 269.887 960.96 267.841 960.96 265.795C960.96 263.749 963.012 261.702 965.064 261.702C967.8 261.702 969.168 263.749 969.168 265.795Z" fill="#E5E5E5"/>
<path d="M8.20749 353.105C8.20749 355.151 6.15562 357.197 4.10374 357.197C2.05187 357.197 0 355.151 0 353.105C0 351.058 2.05187 349.012 4.10374 349.012C6.15562 349.012 8.20749 351.058 8.20749 353.105Z" fill="#E5E5E5"/>
<path d="M95.754 353.105C95.754 355.151 93.7021 357.197 91.6502 357.197C89.5984 357.197 87.5465 355.151 87.5465 353.105C87.5465 351.058 89.5984 349.012 91.6502 349.012C93.7021 349.012 95.754 351.058 95.754 353.105Z" fill="#E5E5E5"/>
<path d="M183.301 353.105C183.301 355.151 181.249 357.197 179.197 357.197C177.145 357.197 175.093 355.151 175.093 353.105C175.093 351.058 177.145 349.012 179.197 349.012C181.249 349.012 183.301 351.058 183.301 353.105Z" fill="#E5E5E5"/>
<path d="M270.847 353.105C270.847 355.151 268.795 357.197 266.744 357.197C264.692 357.197 262.64 355.151 262.64 353.105C262.64 351.058 264.692 349.012 266.744 349.012C268.795 349.012 270.847 351.058 270.847 353.105Z" fill="#E5E5E5"/>
<path d="M357.71 353.105C357.71 355.151 355.658 357.197 353.606 357.197C351.554 357.197 349.502 355.151 349.502 353.105C349.502 351.058 351.554 349.012 353.606 349.012C355.658 349.012 357.71 351.058 357.71 353.105Z" fill="#E5E5E5"/>
<path d="M445.256 353.105C445.256 355.151 443.204 357.197 441.153 357.197C439.101 357.197 437.049 355.151 437.049 353.105C437.049 351.058 439.101 349.012 441.153 349.012C443.204 349.012 445.256 351.058 445.256 353.105Z" fill="#E5E5E5"/>
<path d="M532.803 353.105C532.803 355.151 530.751 357.197 528.699 357.197C526.647 357.197 524.595 355.151 524.595 353.105C524.595 351.058 526.647 349.012 528.699 349.012C530.751 349.012 532.803 351.058 532.803 353.105Z" fill="#E5E5E5"/>
<path d="M619.665 353.105C619.665 355.151 617.614 357.197 615.562 357.197C613.51 357.197 611.458 355.151 611.458 353.105C611.458 351.058 613.51 349.012 615.562 349.012C618.298 349.012 619.665 351.058 619.665 353.105Z" fill="#E5E5E5"/>
<path d="M707.212 353.105C707.212 355.151 705.16 357.197 703.108 357.197C701.056 357.197 699.004 355.151 699.004 353.105C699.004 351.058 701.056 349.012 703.108 349.012C705.16 349.012 707.212 351.058 707.212 353.105Z" fill="#E5E5E5"/>
<path d="M794.758 353.105C794.758 355.151 792.707 357.197 790.655 357.197C788.603 357.197 786.551 355.151 786.551 353.105C786.551 351.058 788.603 349.012 790.655 349.012C792.707 349.012 794.758 351.058 794.758 353.105Z" fill="#E5E5E5"/>
<path d="M882.305 353.105C882.305 355.151 880.253 357.197 878.201 357.197C876.149 357.197 874.098 355.151 874.098 353.105C874.098 351.058 876.149 349.012 878.201 349.012C880.253 349.012 882.305 351.058 882.305 353.105Z" fill="#E5E5E5"/>
<path d="M969.168 353.105C969.168 355.151 967.116 357.197 965.064 357.197C963.012 357.197 960.96 355.151 960.96 353.105C960.96 351.058 963.012 349.012 965.064 349.012C967.8 349.012 969.168 351.058 969.168 353.105Z" fill="#E5E5E5"/>
<path d="M8.20749 440.413C8.20749 442.46 6.15562 444.506 4.10374 444.506C2.05187 444.506 0 442.46 0 440.413C0 438.367 2.05187 436.321 4.10374 436.321C6.15562 436.321 8.20749 437.685 8.20749 440.413Z" fill="#E5E5E5"/>
<path d="M95.754 440.413C95.754 442.46 93.7021 444.506 91.6502 444.506C89.5984 444.506 87.5465 442.46 87.5465 440.413C87.5465 438.367 89.5984 436.321 91.6502 436.321C93.7021 436.321 95.754 437.685 95.754 440.413Z" fill="#E5E5E5"/>
<path d="M183.301 440.413C183.301 442.46 181.249 444.506 179.197 444.506C177.145 444.506 175.093 442.46 175.093 440.413C175.093 438.367 177.145 436.321 179.197 436.321C181.249 436.321 183.301 437.685 183.301 440.413Z" fill="#E5E5E5"/>
<path d="M270.847 440.413C270.847 442.46 268.795 444.506 266.744 444.506C264.692 444.506 262.64 442.46 262.64 440.413C262.64 438.367 264.692 436.321 266.744 436.321C268.795 436.321 270.847 437.685 270.847 440.413Z" fill="#E5E5E5"/>
<path d="M357.71 440.413C357.71 442.46 355.658 444.506 353.606 444.506C351.554 444.506 349.502 442.46 349.502 440.413C349.502 438.367 351.554 436.321 353.606 436.321C355.658 436.321 357.71 437.685 357.71 440.413Z" fill="#E5E5E5"/>
<path d="M445.256 440.413C445.256 442.46 443.204 444.506 441.153 444.506C439.101 444.506 437.049 442.46 437.049 440.413C437.049 438.367 439.101 436.321 441.153 436.321C443.204 436.321 445.256 437.685 445.256 440.413Z" fill="#E5E5E5"/>
<path d="M532.803 440.413C532.803 442.46 530.751 444.506 528.699 444.506C526.647 444.506 524.595 442.46 524.595 440.413C524.595 438.367 526.647 436.321 528.699 436.321C530.751 436.321 532.803 437.685 532.803 440.413Z" fill="#E5E5E5"/>
<path d="M619.665 440.413C619.665 442.46 617.614 444.506 615.562 444.506C613.51 444.506 611.458 442.46 611.458 440.413C611.458 438.367 613.51 436.321 615.562 436.321C618.298 436.321 619.665 437.685 619.665 440.413Z" fill="#E5E5E5"/>
<path d="M707.212 440.413C707.212 442.46 705.16 444.506 703.108 444.506C701.056 444.506 699.004 442.46 699.004 440.413C699.004 438.367 701.056 436.321 703.108 436.321C705.16 436.321 707.212 437.685 707.212 440.413Z" fill="#E5E5E5"/>
<path d="M794.758 440.413C794.758 442.46 792.707 444.506 790.655 444.506C788.603 444.506 786.551 442.46 786.551 440.413C786.551 438.367 788.603 436.321 790.655 436.321C792.707 436.321 794.758 437.685 794.758 440.413Z" fill="#E5E5E5"/>
<path d="M882.305 440.413C882.305 442.46 880.253 444.506 878.201 444.506C876.149 444.506 874.098 442.46 874.098 440.413C874.098 438.367 876.149 436.321 878.201 436.321C880.253 436.321 882.305 437.685 882.305 440.413Z" fill="#E5E5E5"/>
<path d="M969.168 440.413C969.168 442.46 967.116 444.506 965.064 444.506C963.012 444.506 960.96 442.46 960.96 440.413C960.96 438.367 963.012 436.321 965.064 436.321C967.8 436.321 969.168 437.685 969.168 440.413Z" fill="#E5E5E5"/>
<path d="M8.20749 527.723C8.20749 529.77 6.15562 531.816 4.10374 531.816C2.05187 531.816 0 529.77 0 527.723C0 525.677 2.05187 523.631 4.10374 523.631C6.15562 523.631 8.20749 524.995 8.20749 527.723Z" fill="#E5E5E5"/>
<path d="M95.754 527.724C95.754 529.77 93.7021 531.816 91.6502 531.816C89.5984 531.816 87.5465 529.77 87.5465 527.724C87.5465 525.677 89.5984 523.631 91.6502 523.631C93.7021 522.949 95.754 524.995 95.754 527.724Z" fill="#E5E5E5"/>
<path d="M183.301 527.724C183.301 529.77 181.249 531.816 179.197 531.816C177.145 531.816 175.093 529.77 175.093 527.724C175.093 525.677 177.145 523.631 179.197 523.631C181.249 522.949 183.301 524.995 183.301 527.724Z" fill="#E5E5E5"/>
<path d="M270.847 527.724C270.847 529.77 268.795 531.816 266.744 531.816C264.692 531.816 262.64 529.77 262.64 527.724C262.64 525.677 264.692 523.631 266.744 523.631C268.795 522.949 270.847 524.995 270.847 527.724Z" fill="#E5E5E5"/>
<path d="M357.71 527.724C357.71 529.77 355.658 531.816 353.606 531.816C351.554 531.816 349.502 529.77 349.502 527.724C349.502 525.677 351.554 523.631 353.606 523.631C355.658 522.949 357.71 524.995 357.71 527.724Z" fill="#E5E5E5"/>
<path d="M445.256 527.723C445.256 529.77 443.204 531.816 441.153 531.816C439.101 531.816 437.049 529.77 437.049 527.723C437.049 525.677 439.101 523.631 441.153 523.631C443.204 523.631 445.256 524.995 445.256 527.723Z" fill="#E5E5E5"/>
<path d="M532.803 527.723C532.803 529.77 530.751 531.816 528.699 531.816C526.647 531.816 524.595 529.77 524.595 527.723C524.595 525.677 526.647 523.631 528.699 523.631C530.751 523.631 532.803 524.995 532.803 527.723Z" fill="#E5E5E5"/>
<path d="M619.665 527.724C619.665 529.77 617.614 531.816 615.562 531.816C613.51 531.816 611.458 529.77 611.458 527.724C611.458 525.677 613.51 523.631 615.562 523.631C618.298 522.949 619.665 524.995 619.665 527.724Z" fill="#E5E5E5"/>
<path d="M707.212 527.724C707.212 529.77 705.16 531.816 703.108 531.816C701.056 531.816 699.004 529.77 699.004 527.724C699.004 525.677 701.056 523.631 703.108 523.631C705.16 522.949 707.212 524.995 707.212 527.724Z" fill="#E5E5E5"/>
<path d="M794.758 527.724C794.758 529.77 792.707 531.816 790.655 531.816C788.603 531.816 786.551 529.77 786.551 527.724C786.551 525.677 788.603 523.631 790.655 523.631C792.707 522.949 794.758 524.995 794.758 527.724Z" fill="#E5E5E5"/>
<path d="M882.305 527.724C882.305 529.77 880.253 531.816 878.201 531.816C876.149 531.816 874.098 529.77 874.098 527.724C874.098 525.677 876.149 523.631 878.201 523.631C880.253 522.949 882.305 524.995 882.305 527.724Z" fill="#E5E5E5"/>
<path d="M969.168 527.724C969.168 529.77 967.116 531.816 965.064 531.816C963.012 531.816 960.96 529.77 960.96 527.724C960.96 525.677 963.012 523.631 965.064 523.631C967.8 522.949 969.168 524.995 969.168 527.724Z" fill="#E5E5E5"/>
<path d="M8.20749 614.35C8.20749 616.397 6.15562 618.443 4.10374 618.443C2.05187 618.443 0 617.079 0 614.35C0 612.304 2.05187 610.258 4.10374 610.258C6.15562 610.258 8.20749 612.304 8.20749 614.35Z" fill="#E5E5E5"/>
<path d="M95.754 614.35C95.754 616.397 93.7021 618.443 91.6502 618.443C89.5984 618.443 87.5465 616.397 87.5465 614.35C87.5465 612.304 89.5984 610.258 91.6502 610.258C93.7021 610.258 95.754 612.304 95.754 614.35Z" fill="#E5E5E5"/>
<path d="M183.301 614.35C183.301 616.397 181.249 618.443 179.197 618.443C177.145 618.443 175.093 616.397 175.093 614.35C175.093 612.304 177.145 610.258 179.197 610.258C181.249 610.258 183.301 612.304 183.301 614.35Z" fill="#E5E5E5"/>
<path d="M270.847 614.35C270.847 616.397 268.795 618.443 266.744 618.443C264.692 618.443 262.64 616.397 262.64 614.35C262.64 612.304 264.692 610.258 266.744 610.258C268.795 610.258 270.847 612.304 270.847 614.35Z" fill="#E5E5E5"/>
<path d="M357.71 614.35C357.71 616.397 355.658 618.443 353.606 618.443C351.554 618.443 349.502 616.397 349.502 614.35C349.502 612.304 351.554 610.258 353.606 610.258C355.658 610.258 357.71 612.304 357.71 614.35Z" fill="#E5E5E5"/>
<path d="M445.256 614.35C445.256 616.397 443.204 618.443 441.153 618.443C439.101 618.443 437.049 616.397 437.049 614.35C437.049 612.304 439.101 610.258 441.153 610.258C443.204 610.258 445.256 612.304 445.256 614.35Z" fill="#E5E5E5"/>
<path d="M532.803 614.35C532.803 616.397 530.751 618.443 528.699 618.443C526.647 618.443 524.595 616.397 524.595 614.35C524.595 612.304 526.647 610.258 528.699 610.258C530.751 610.258 532.803 612.304 532.803 614.35Z" fill="#E5E5E5"/>
<path d="M619.665 614.35C619.665 616.397 617.614 618.443 615.562 618.443C613.51 618.443 611.458 616.397 611.458 614.35C611.458 612.304 613.51 610.258 615.562 610.258C618.298 610.258 619.665 612.304 619.665 614.35Z" fill="#E5E5E5"/>
<path d="M707.212 614.35C707.212 616.397 705.16 618.443 703.108 618.443C701.056 618.443 699.004 616.397 699.004 614.35C699.004 612.304 701.056 610.258 703.108 610.258C705.16 610.258 707.212 612.304 707.212 614.35Z" fill="#E5E5E5"/>
<path d="M794.758 614.35C794.758 616.397 792.707 618.443 790.655 618.443C788.603 618.443 786.551 616.397 786.551 614.35C786.551 612.304 788.603 610.258 790.655 610.258C792.707 610.258 794.758 612.304 794.758 614.35Z" fill="#E5E5E5"/>
<path d="M882.305 614.35C882.305 616.397 880.253 618.443 878.201 618.443C876.149 618.443 874.098 616.397 874.098 614.35C874.098 612.304 876.149 610.258 878.201 610.258C880.253 610.258 882.305 612.304 882.305 614.35Z" fill="#E5E5E5"/>
<path d="M969.168 614.35C969.168 616.397 967.116 618.443 965.064 618.443C963.012 618.443 960.96 616.397 960.96 614.35C960.96 612.304 963.012 610.258 965.064 610.258C967.8 610.258 969.168 612.304 969.168 614.35Z" fill="#E5E5E5"/>
<path d="M8.20749 701.66C8.20749 703.707 6.15562 705.753 4.10374 705.753C2.05187 705.753 0 703.707 0 701.66C0 699.614 2.05187 697.568 4.10374 697.568C6.15562 697.568 8.20749 699.614 8.20749 701.66Z" fill="#E5E5E5"/>
<path d="M95.754 701.66C95.754 703.707 93.7021 705.753 91.6502 705.753C89.5984 705.753 87.5465 703.707 87.5465 701.66C87.5465 699.614 89.5984 697.568 91.6502 697.568C93.7021 697.568 95.754 699.614 95.754 701.66Z" fill="#E5E5E5"/>
<path d="M183.301 701.66C183.301 703.707 181.249 705.753 179.197 705.753C177.145 705.753 175.093 703.707 175.093 701.66C175.093 699.614 177.145 697.568 179.197 697.568C181.249 697.568 183.301 699.614 183.301 701.66Z" fill="#E5E5E5"/>
<path d="M270.847 701.66C270.847 703.707 268.795 705.753 266.744 705.753C264.692 705.753 262.64 703.707 262.64 701.66C262.64 699.614 264.692 697.568 266.744 697.568C268.795 697.568 270.847 699.614 270.847 701.66Z" fill="#E5E5E5"/>
<path d="M357.71 701.66C357.71 703.707 355.658 705.753 353.606 705.753C351.554 705.753 349.502 703.707 349.502 701.66C349.502 699.614 351.554 697.568 353.606 697.568C355.658 697.568 357.71 699.614 357.71 701.66Z" fill="#E5E5E5"/>
<path d="M445.256 701.66C445.256 703.707 443.204 705.753 441.153 705.753C439.101 705.753 437.049 703.707 437.049 701.66C437.049 699.614 439.101 697.568 441.153 697.568C443.204 697.568 445.256 699.614 445.256 701.66Z" fill="#E5E5E5"/>
<path d="M532.803 701.66C532.803 703.707 530.751 705.753 528.699 705.753C526.647 705.753 524.595 703.707 524.595 701.66C524.595 699.614 526.647 697.568 528.699 697.568C530.751 697.568 532.803 699.614 532.803 701.66Z" fill="#E5E5E5"/>
<path d="M619.665 701.66C619.665 703.707 617.614 705.753 615.562 705.753C613.51 705.753 611.458 703.707 611.458 701.66C611.458 699.614 613.51 697.568 615.562 697.568C618.298 697.568 619.665 699.614 619.665 701.66Z" fill="#E5E5E5"/>
<path d="M707.212 701.66C707.212 703.707 705.16 705.753 703.108 705.753C701.056 705.753 699.004 703.707 699.004 701.66C699.004 699.614 701.056 697.568 703.108 697.568C705.16 697.568 707.212 699.614 707.212 701.66Z" fill="#E5E5E5"/>
<path d="M794.758 701.66C794.758 703.707 792.707 705.753 790.655 705.753C788.603 705.753 786.551 703.707 786.551 701.66C786.551 699.614 788.603 697.568 790.655 697.568C792.707 697.568 794.758 699.614 794.758 701.66Z" fill="#E5E5E5"/>
<path d="M882.305 701.66C882.305 703.707 880.253 705.753 878.201 705.753C876.149 705.753 874.098 703.707 874.098 701.66C874.098 699.614 876.149 697.568 878.201 697.568C880.253 697.568 882.305 699.614 882.305 701.66Z" fill="#E5E5E5"/>
<path d="M969.168 701.66C969.168 703.707 967.116 705.753 965.064 705.753C963.012 705.753 960.96 703.707 960.96 701.66C960.96 699.614 963.012 697.568 965.064 697.568C967.8 697.568 969.168 699.614 969.168 701.66Z" fill="#E5E5E5"/>
<path d="M8.20749 788.97C8.20749 791.017 6.15562 793.063 4.10374 793.063C2.05187 793.063 0 791.017 0 788.97C0 786.924 2.05187 784.877 4.10374 784.877C6.15562 784.877 8.20749 786.242 8.20749 788.97Z" fill="#E5E5E5"/>
<path d="M95.754 788.97C95.754 791.017 93.7021 793.063 91.6502 793.063C89.5984 793.063 87.5465 791.017 87.5465 788.97C87.5465 786.924 89.5984 784.877 91.6502 784.877C93.7021 784.877 95.754 786.242 95.754 788.97Z" fill="#E5E5E5"/>
<path d="M183.301 788.97C183.301 791.017 181.249 793.063 179.197 793.063C177.145 793.063 175.093 791.017 175.093 788.97C175.093 786.924 177.145 784.877 179.197 784.877C181.249 784.877 183.301 786.242 183.301 788.97Z" fill="#E5E5E5"/>
<path d="M270.847 788.97C270.847 791.017 268.795 793.063 266.744 793.063C264.692 793.063 262.64 791.017 262.64 788.97C262.64 786.924 264.692 784.877 266.744 784.877C268.795 784.877 270.847 786.242 270.847 788.97Z" fill="#E5E5E5"/>
<path d="M357.71 788.97C357.71 791.017 355.658 793.063 353.606 793.063C351.554 793.063 349.502 791.017 349.502 788.97C349.502 786.924 351.554 784.877 353.606 784.877C355.658 784.877 357.71 786.242 357.71 788.97Z" fill="#E5E5E5"/>
<path d="M445.256 788.97C445.256 791.017 443.204 793.063 441.153 793.063C439.101 793.063 437.049 791.017 437.049 788.97C437.049 786.924 439.101 784.877 441.153 784.877C443.204 784.877 445.256 786.242 445.256 788.97Z" fill="#E5E5E5"/>
<path d="M532.803 788.97C532.803 791.017 530.751 793.063 528.699 793.063C526.647 793.063 524.595 791.017 524.595 788.97C524.595 786.924 526.647 784.877 528.699 784.877C530.751 784.877 532.803 786.242 532.803 788.97Z" fill="#E5E5E5"/>
<path d="M619.665 788.97C619.665 791.017 617.614 793.063 615.562 793.063C613.51 793.063 611.458 791.017 611.458 788.97C611.458 786.924 613.51 784.877 615.562 784.877C618.298 784.877 619.665 786.242 619.665 788.97Z" fill="#E5E5E5"/>
<path d="M707.212 788.97C707.212 791.017 705.16 793.063 703.108 793.063C701.056 793.063 699.004 791.017 699.004 788.97C699.004 786.924 701.056 784.877 703.108 784.877C705.16 784.877 707.212 786.242 707.212 788.97Z" fill="#E5E5E5"/>
<path d="M794.758 788.97C794.758 791.017 792.707 793.063 790.655 793.063C788.603 793.063 786.551 791.017 786.551 788.97C786.551 786.924 788.603 784.877 790.655 784.877C792.707 784.877 794.758 786.242 794.758 788.97Z" fill="#E5E5E5"/>
<path d="M882.305 788.97C882.305 791.017 880.253 793.063 878.201 793.063C876.149 793.063 874.098 791.017 874.098 788.97C874.098 786.924 876.149 784.877 878.201 784.877C880.253 784.877 882.305 786.242 882.305 788.97Z" fill="#E5E5E5"/>
<path d="M969.168 788.97C969.168 791.017 967.116 793.063 965.064 793.063C963.012 793.063 960.96 791.017 960.96 788.97C960.96 786.924 963.012 784.877 965.064 784.877C967.8 784.877 969.168 786.242 969.168 788.97Z" fill="#E5E5E5"/>
<path d="M8.20749 875.598C8.20749 877.644 6.15562 879.69 4.10374 879.69C2.05187 879.69 0 878.326 0 875.598C0 873.551 2.05187 871.505 4.10374 871.505C6.15562 871.505 8.20749 873.551 8.20749 875.598Z" fill="#E5E5E5"/>
<path d="M95.754 875.598C95.754 877.644 93.7021 879.69 91.6502 879.69C89.5984 879.69 87.5465 877.644 87.5465 875.598C87.5465 873.551 89.5984 871.505 91.6502 871.505C93.7021 871.505 95.754 873.551 95.754 875.598Z" fill="#E5E5E5"/>
<path d="M183.301 875.598C183.301 877.644 181.249 879.69 179.197 879.69C177.145 879.69 175.093 877.644 175.093 875.598C175.093 873.551 177.145 871.505 179.197 871.505C181.249 871.505 183.301 873.551 183.301 875.598Z" fill="#E5E5E5"/>
<path d="M270.847 875.598C270.847 877.644 268.795 879.69 266.744 879.69C264.692 879.69 262.64 877.644 262.64 875.598C262.64 873.551 264.692 871.505 266.744 871.505C268.795 871.505 270.847 873.551 270.847 875.598Z" fill="#E5E5E5"/>
<path d="M357.71 875.598C357.71 877.644 355.658 879.69 353.606 879.69C351.554 879.69 349.502 877.644 349.502 875.598C349.502 873.551 351.554 871.505 353.606 871.505C355.658 871.505 357.71 873.551 357.71 875.598Z" fill="#E5E5E5"/>
<path d="M445.256 875.598C445.256 877.644 443.204 879.69 441.153 879.69C439.101 879.69 437.049 877.644 437.049 875.598C437.049 873.551 439.101 871.505 441.153 871.505C443.204 871.505 445.256 873.551 445.256 875.598Z" fill="#E5E5E5"/>
<path d="M532.803 875.598C532.803 877.644 530.751 879.69 528.699 879.69C526.647 879.69 524.595 877.644 524.595 875.598C524.595 873.551 526.647 871.505 528.699 871.505C530.751 871.505 532.803 873.551 532.803 875.598Z" fill="#E5E5E5"/>
<path d="M619.665 875.598C619.665 877.644 617.614 879.69 615.562 879.69C613.51 879.69 611.458 877.644 611.458 875.598C611.458 873.551 613.51 871.505 615.562 871.505C618.298 871.505 619.665 873.551 619.665 875.598Z" fill="#E5E5E5"/>
<path d="M707.212 875.598C707.212 877.644 705.16 879.69 703.108 879.69C701.056 879.69 699.004 877.644 699.004 875.598C699.004 873.551 701.056 871.505 703.108 871.505C705.16 871.505 707.212 873.551 707.212 875.598Z" fill="#E5E5E5"/>
<path d="M794.758 875.598C794.758 877.644 792.707 879.69 790.655 879.69C788.603 879.69 786.551 877.644 786.551 875.598C786.551 873.551 788.603 871.505 790.655 871.505C792.707 871.505 794.758 873.551 794.758 875.598Z" fill="#E5E5E5"/>
<path d="M882.305 875.598C882.305 877.644 880.253 879.69 878.201 879.69C876.149 879.69 874.098 877.644 874.098 875.598C874.098 873.551 876.149 871.505 878.201 871.505C880.253 871.505 882.305 873.551 882.305 875.598Z" fill="#E5E5E5"/>
<path d="M969.168 875.598C969.168 877.644 967.116 879.69 965.064 879.69C963.012 879.69 960.96 877.644 960.96 875.598C960.96 873.551 963.012 871.505 965.064 871.505C967.8 871.505 969.168 873.551 969.168 875.598Z" fill="#E5E5E5"/>
<path d="M8.20749 962.907C8.20749 964.954 6.15562 967 4.10374 967C2.05187 967 0 965.636 0 962.907C0 960.861 2.05187 958.815 4.10374 958.815C6.15562 958.815 8.20749 960.861 8.20749 962.907Z" fill="#E5E5E5"/>
<path d="M95.754 962.907C95.754 964.954 93.7021 967 91.6502 967C89.5984 967 87.5465 964.954 87.5465 962.907C87.5465 960.861 89.5984 958.815 91.6502 958.815C93.7021 958.815 95.754 960.861 95.754 962.907Z" fill="#E5E5E5"/>
<path d="M183.301 962.907C183.301 964.954 181.249 967 179.197 967C177.145 967 175.093 964.954 175.093 962.907C175.093 960.861 177.145 958.815 179.197 958.815C181.249 958.815 183.301 960.861 183.301 962.907Z" fill="#E5E5E5"/>
<path d="M270.847 962.907C270.847 964.954 268.795 967 266.744 967C264.692 967 262.64 964.954 262.64 962.907C262.64 960.861 264.692 958.815 266.744 958.815C268.795 958.815 270.847 960.861 270.847 962.907Z" fill="#E5E5E5"/>
<path d="M357.71 962.907C357.71 964.954 355.658 967 353.606 967C351.554 967 349.502 964.954 349.502 962.907C349.502 960.861 351.554 958.815 353.606 958.815C355.658 958.815 357.71 960.861 357.71 962.907Z" fill="#E5E5E5"/>
<path d="M445.256 962.907C445.256 964.954 443.204 967 441.153 967C439.101 967 437.049 964.954 437.049 962.907C437.049 960.861 439.101 958.815 441.153 958.815C443.204 958.815 445.256 960.861 445.256 962.907Z" fill="#E5E5E5"/>
<path d="M532.803 962.907C532.803 964.954 530.751 967 528.699 967C526.647 967 524.595 964.954 524.595 962.907C524.595 960.861 526.647 958.815 528.699 958.815C530.751 958.815 532.803 960.861 532.803 962.907Z" fill="#E5E5E5"/>
<path d="M619.665 962.907C619.665 964.954 617.614 967 615.562 967C613.51 967 611.458 964.954 611.458 962.907C611.458 960.861 613.51 958.815 615.562 958.815C618.298 958.815 619.665 960.861 619.665 962.907Z" fill="#E5E5E5"/>
<path d="M707.212 962.907C707.212 964.954 705.16 967 703.108 967C701.056 967 699.004 964.954 699.004 962.907C699.004 960.861 701.056 958.815 703.108 958.815C705.16 958.815 707.212 960.861 707.212 962.907Z" fill="#E5E5E5"/>
<path d="M794.758 962.907C794.758 964.954 792.707 967 790.655 967C788.603 967 786.551 964.954 786.551 962.907C786.551 960.861 788.603 958.815 790.655 958.815C792.707 958.815 794.758 960.861 794.758 962.907Z" fill="#E5E5E5"/>
<path d="M882.305 962.907C882.305 964.954 880.253 967 878.201 967C876.149 967 874.098 964.954 874.098 962.907C874.098 960.861 876.149 958.815 878.201 958.815C880.253 958.815 882.305 960.861 882.305 962.907Z" fill="#E5E5E5"/>
<path d="M969.168 962.907C969.168 964.954 967.116 967 965.064 967C963.012 967 960.96 964.954 960.96 962.907C960.96 960.861 963.012 958.815 965.064 958.815C967.8 958.815 969.168 960.861 969.168 962.907Z" fill="#E5E5E5"/>
</svg>
