<svg width="178" height="49" viewBox="0 0 178 49" fill="none" xmlns="http://www.w3.org/2000/svg">
<path d="M0 9.99951C0 4.47667 4.47715 -0.000488281 10 -0.000488281H168C173.523 -0.000488281 178 4.47666 178 9.99951V38.9995C178 44.5224 173.523 48.9995 168 48.9995H10C4.47715 48.9995 0 44.5224 0 38.9995V9.99951Z" fill="black"/>
<path d="M67.528 10.6356C68.44 10.6356 69.228 10.8076 69.892 11.1516C70.564 11.4876 71.076 11.9716 71.428 12.6036C71.788 13.2356 71.968 13.9796 71.968 14.8356C71.968 15.6916 71.788 16.4356 71.428 17.0676C71.076 17.6916 70.564 18.1716 69.892 18.5076C69.228 18.8356 68.44 18.9996 67.528 18.9996H64.924V10.6356H67.528ZM67.528 18.0996C68.608 18.0996 69.432 17.8156 69.9999 17.2476C70.568 16.6716 70.852 15.8676 70.852 14.8356C70.852 13.7956 70.564 12.9836 69.9879 12.3996C69.42 11.8156 68.6 11.5236 67.528 11.5236H66.016V18.0996H67.528Z" fill="white"/>
<path d="M76.2763 19.1076C75.6603 19.1076 75.1003 18.9676 74.5963 18.6876C74.1003 18.4076 73.7083 18.0116 73.4203 17.4996C73.1403 16.9796 73.0003 16.3796 73.0003 15.6996C73.0003 15.0276 73.1443 14.4356 73.4323 13.9236C73.7283 13.4036 74.1283 13.0076 74.6323 12.7356C75.1363 12.4556 75.7003 12.3156 76.3243 12.3156C76.9483 12.3156 77.5123 12.4556 78.0163 12.7356C78.5203 13.0076 78.9163 13.3996 79.2043 13.9116C79.5003 14.4236 79.6483 15.0196 79.6483 15.6996C79.6483 16.3796 79.4963 16.9796 79.1923 17.4996C78.8963 18.0116 78.4923 18.4076 77.9803 18.6876C77.4683 18.9676 76.9003 19.1076 76.2763 19.1076ZM76.2763 18.1476C76.6683 18.1476 77.0363 18.0556 77.3803 17.8716C77.7243 17.6876 78.0003 17.4116 78.2083 17.0436C78.4243 16.6756 78.5323 16.2276 78.5323 15.6996C78.5323 15.1716 78.4283 14.7236 78.2203 14.3556C78.0123 13.9876 77.7403 13.7156 77.4043 13.5396C77.0683 13.3556 76.7043 13.2636 76.3123 13.2636C75.9123 13.2636 75.5443 13.3556 75.2083 13.5396C74.8803 13.7156 74.6163 13.9876 74.4163 14.3556C74.2163 14.7236 74.1163 15.1716 74.1163 15.6996C74.1163 16.2356 74.2123 16.6876 74.4043 17.0556C74.6043 17.4236 74.8683 17.6996 75.1963 17.8836C75.5243 18.0596 75.8843 18.1476 76.2763 18.1476Z" fill="white"/>
<path d="M89.8441 12.4236L87.7921 18.9996H86.6641L85.0801 13.7796L83.4961 18.9996H82.3681L80.3041 12.4236H81.4201L82.9321 17.9436L84.5641 12.4236H85.6801L87.2761 17.9556L88.7641 12.4236H89.8441Z" fill="white"/>
<path d="M94.1319 12.3036C94.9319 12.3036 95.5799 12.5476 96.0759 13.0356C96.5719 13.5156 96.8199 14.2116 96.8199 15.1236V18.9996H95.7399V15.2796C95.7399 14.6236 95.5759 14.1236 95.2479 13.7796C94.9199 13.4276 94.4719 13.2516 93.9039 13.2516C93.3279 13.2516 92.8679 13.4316 92.5239 13.7916C92.1879 14.1516 92.0199 14.6756 92.0199 15.3636V18.9996H90.9279V12.4236H92.0199V13.3596C92.2359 13.0236 92.5279 12.7636 92.8959 12.5796C93.2719 12.3956 93.6839 12.3036 94.1319 12.3036Z" fill="white"/>
<path d="M99.6956 10.1196V18.9996H98.6036V10.1196H99.6956Z" fill="white"/>
<path d="M104.425 19.1076C103.809 19.1076 103.249 18.9676 102.745 18.6876C102.249 18.4076 101.857 18.0116 101.569 17.4996C101.289 16.9796 101.149 16.3796 101.149 15.6996C101.149 15.0276 101.293 14.4356 101.581 13.9236C101.877 13.4036 102.277 13.0076 102.781 12.7356C103.285 12.4556 103.849 12.3156 104.473 12.3156C105.097 12.3156 105.661 12.4556 106.165 12.7356C106.669 13.0076 107.065 13.3996 107.353 13.9116C107.649 14.4236 107.797 15.0196 107.797 15.6996C107.797 16.3796 107.645 16.9796 107.341 17.4996C107.045 18.0116 106.641 18.4076 106.129 18.6876C105.617 18.9676 105.049 19.1076 104.425 19.1076ZM104.425 18.1476C104.817 18.1476 105.185 18.0556 105.529 17.8716C105.873 17.6876 106.149 17.4116 106.357 17.0436C106.573 16.6756 106.681 16.2276 106.681 15.6996C106.681 15.1716 106.577 14.7236 106.369 14.3556C106.161 13.9876 105.889 13.7156 105.553 13.5396C105.217 13.3556 104.853 13.2636 104.461 13.2636C104.061 13.2636 103.693 13.3556 103.357 13.5396C103.029 13.7156 102.765 13.9876 102.565 14.3556C102.365 14.7236 102.265 15.1716 102.265 15.6996C102.265 16.2356 102.361 16.6876 102.553 17.0556C102.753 17.4236 103.017 17.6996 103.345 17.8836C103.673 18.0596 104.033 18.1476 104.425 18.1476Z" fill="white"/>
<path d="M108.825 15.6876C108.825 15.0156 108.961 14.4276 109.233 13.9236C109.505 13.4116 109.877 13.0156 110.349 12.7356C110.829 12.4556 111.361 12.3156 111.945 12.3156C112.521 12.3156 113.021 12.4396 113.445 12.6876C113.869 12.9356 114.185 13.2476 114.393 13.6236V12.4236H115.497V18.9996H114.393V17.7756C114.177 18.1596 113.853 18.4796 113.421 18.7356C112.997 18.9836 112.501 19.1076 111.933 19.1076C111.349 19.1076 110.821 18.9636 110.349 18.6756C109.877 18.3876 109.505 17.9836 109.233 17.4636C108.961 16.9436 108.825 16.3516 108.825 15.6876ZM114.393 15.6996C114.393 15.2036 114.293 14.7716 114.093 14.4036C113.893 14.0356 113.621 13.7556 113.277 13.5636C112.941 13.3636 112.569 13.2636 112.161 13.2636C111.753 13.2636 111.381 13.3596 111.045 13.5516C110.709 13.7436 110.441 14.0236 110.241 14.3916C110.041 14.7596 109.941 15.1916 109.941 15.6876C109.941 16.1916 110.041 16.6316 110.241 17.0076C110.441 17.3756 110.709 17.6596 111.045 17.8596C111.381 18.0516 111.753 18.1476 112.161 18.1476C112.569 18.1476 112.941 18.0516 113.277 17.8596C113.621 17.6596 113.893 17.3756 114.093 17.0076C114.293 16.6316 114.393 16.1956 114.393 15.6996Z" fill="white"/>
<path d="M116.934 15.6876C116.934 15.0156 117.07 14.4276 117.342 13.9236C117.614 13.4116 117.986 13.0156 118.458 12.7356C118.938 12.4556 119.474 12.3156 120.066 12.3156C120.578 12.3156 121.054 12.4356 121.494 12.6756C121.934 12.9076 122.27 13.2156 122.502 13.5996V10.1196H123.606V18.9996H122.502V17.7636C122.286 18.1556 121.966 18.4796 121.542 18.7356C121.118 18.9836 120.622 19.1076 120.054 19.1076C119.47 19.1076 118.938 18.9636 118.458 18.6756C117.986 18.3876 117.614 17.9836 117.342 17.4636C117.07 16.9436 116.934 16.3516 116.934 15.6876ZM122.502 15.6996C122.502 15.2036 122.402 14.7716 122.202 14.4036C122.002 14.0356 121.73 13.7556 121.386 13.5636C121.05 13.3636 120.678 13.2636 120.27 13.2636C119.862 13.2636 119.49 13.3596 119.154 13.5516C118.818 13.7436 118.55 14.0236 118.35 14.3916C118.15 14.7596 118.05 15.1916 118.05 15.6876C118.05 16.1916 118.15 16.6316 118.35 17.0076C118.55 17.3756 118.818 17.6596 119.154 17.8596C119.49 18.0516 119.862 18.1476 120.27 18.1476C120.678 18.1476 121.05 18.0516 121.386 17.8596C121.73 17.6596 122.002 17.3756 122.202 17.0076C122.402 16.6316 122.502 16.1956 122.502 15.6996Z" fill="white"/>
<path d="M132.443 19.0836C131.667 19.0836 130.959 18.9036 130.319 18.5436C129.679 18.1756 129.171 17.6676 128.795 17.0196C128.427 16.3636 128.243 15.6276 128.243 14.8116C128.243 13.9956 128.427 13.2636 128.795 12.6156C129.171 11.9596 129.679 11.4516 130.319 11.0916C130.959 10.7236 131.667 10.5396 132.443 10.5396C133.227 10.5396 133.939 10.7236 134.579 11.0916C135.219 11.4516 135.723 11.9556 136.091 12.6036C136.459 13.2516 136.643 13.9876 136.643 14.8116C136.643 15.6356 136.459 16.3716 136.091 17.0196C135.723 17.6676 135.219 18.1756 134.579 18.5436C133.939 18.9036 133.227 19.0836 132.443 19.0836ZM132.443 18.1356C133.027 18.1356 133.551 17.9996 134.015 17.7276C134.487 17.4556 134.855 17.0676 135.119 16.5636C135.391 16.0596 135.527 15.4756 135.527 14.8116C135.527 14.1396 135.391 13.5556 135.119 13.0596C134.855 12.5556 134.491 12.1676 134.027 11.8956C133.563 11.6236 133.035 11.4876 132.443 11.4876C131.851 11.4876 131.323 11.6236 130.859 11.8956C130.395 12.1676 130.027 12.5556 129.755 13.0596C129.491 13.5556 129.359 14.1396 129.359 14.8116C129.359 15.4756 129.491 16.0596 129.755 16.5636C130.027 17.0676 130.395 17.4556 130.859 17.7276C131.331 17.9996 131.859 18.1356 132.443 18.1356Z" fill="white"/>
<path d="M141.288 12.3036C142.088 12.3036 142.736 12.5476 143.232 13.0356C143.728 13.5156 143.976 14.2116 143.976 15.1236V18.9996H142.896V15.2796C142.896 14.6236 142.732 14.1236 142.404 13.7796C142.076 13.4276 141.628 13.2516 141.06 13.2516C140.484 13.2516 140.024 13.4316 139.68 13.7916C139.344 14.1516 139.176 14.6756 139.176 15.3636V18.9996H138.084V12.4236H139.176V13.3596C139.392 13.0236 139.684 12.7636 140.052 12.5796C140.428 12.3956 140.84 12.3036 141.288 12.3036Z" fill="white"/>
<path d="M154.107 10.6356V11.5236H151.827V18.9996H150.735V11.5236H148.443V10.6356H154.107Z" fill="white"/>
<path d="M158.715 12.3036C159.211 12.3036 159.659 12.4116 160.059 12.6276C160.459 12.8356 160.771 13.1516 160.995 13.5756C161.227 13.9996 161.343 14.5156 161.343 15.1236V18.9996H160.263V15.2796C160.263 14.6236 160.099 14.1236 159.771 13.7796C159.443 13.4276 158.995 13.2516 158.427 13.2516C157.851 13.2516 157.391 13.4316 157.047 13.7916C156.711 14.1516 156.543 14.6756 156.543 15.3636V18.9996H155.451V10.1196H156.543V13.3596C156.759 13.0236 157.055 12.7636 157.431 12.5796C157.815 12.3956 158.243 12.3036 158.715 12.3036Z" fill="white"/>
<path d="M169.127 15.4596C169.127 15.6676 169.115 15.8876 169.091 16.1196H163.835C163.875 16.7676 164.095 17.2756 164.495 17.6436C164.903 18.0036 165.395 18.1836 165.971 18.1836C166.443 18.1836 166.835 18.0756 167.147 17.8596C167.467 17.6356 167.691 17.3396 167.819 16.9716H168.995C168.819 17.6036 168.467 18.1196 167.939 18.5196C167.411 18.9116 166.755 19.1076 165.971 19.1076C165.347 19.1076 164.787 18.9676 164.291 18.6876C163.803 18.4076 163.419 18.0116 163.139 17.4996C162.859 16.9796 162.719 16.3796 162.719 15.6996C162.719 15.0196 162.855 14.4236 163.127 13.9116C163.399 13.3996 163.779 13.0076 164.267 12.7356C164.763 12.4556 165.331 12.3156 165.971 12.3156C166.595 12.3156 167.147 12.4516 167.627 12.7236C168.107 12.9956 168.475 13.3716 168.731 13.8516C168.995 14.3236 169.127 14.8596 169.127 15.4596ZM167.999 15.2316C167.999 14.8156 167.907 14.4596 167.723 14.1636C167.539 13.8596 167.287 13.6316 166.967 13.4796C166.655 13.3196 166.307 13.2396 165.923 13.2396C165.371 13.2396 164.899 13.4156 164.507 13.7676C164.123 14.1196 163.903 14.6076 163.847 15.2316H167.999Z" fill="white"/>
<path d="M68.44 34.1055H64.366L63.666 36.0935H62L65.486 26.3495H67.334L70.82 36.0935H69.14L68.44 34.1055ZM67.992 32.8035L66.41 28.2815L64.814 32.8035H67.992Z" fill="white"/>
<path d="M73.9317 29.5135C74.2024 29.1589 74.5711 28.8602 75.0377 28.6175C75.5044 28.3749 76.0317 28.2535 76.6197 28.2535C77.2917 28.2535 77.9031 28.4215 78.4537 28.7575C79.0137 29.0842 79.4524 29.5462 79.7697 30.1435C80.0871 30.7409 80.2457 31.4269 80.2457 32.2015C80.2457 32.9762 80.0871 33.6715 79.7697 34.2875C79.4524 34.8942 79.0137 35.3702 78.4537 35.7155C77.9031 36.0515 77.2917 36.2195 76.6197 36.2195C76.0317 36.2195 75.5091 36.1029 75.0517 35.8695C74.5944 35.6269 74.2211 35.3282 73.9317 34.9735V39.7616H72.3357V28.3795H73.9317V29.5135ZM78.6217 32.2015C78.6217 31.6695 78.5097 31.2122 78.2857 30.8295C78.0711 30.4375 77.7817 30.1435 77.4177 29.9475C77.0631 29.7422 76.6804 29.6395 76.2697 29.6395C75.8684 29.6395 75.4857 29.7422 75.1217 29.9475C74.7671 30.1529 74.4777 30.4515 74.2537 30.8435C74.0391 31.2355 73.9317 31.6975 73.9317 32.2295C73.9317 32.7615 74.0391 33.2282 74.2537 33.6295C74.4777 34.0216 74.7671 34.3202 75.1217 34.5255C75.4857 34.7309 75.8684 34.8335 76.2697 34.8335C76.6804 34.8335 77.0631 34.7309 77.4177 34.5255C77.7817 34.3109 78.0711 34.0029 78.2857 33.6016C78.5097 33.2002 78.6217 32.7335 78.6217 32.2015Z" fill="white"/>
<path d="M83.42 29.5135C83.6907 29.1589 84.0593 28.8602 84.526 28.6175C84.9927 28.3749 85.52 28.2535 86.108 28.2535C86.78 28.2535 87.3913 28.4215 87.942 28.7575C88.502 29.0842 88.9407 29.5462 89.258 30.1435C89.5753 30.7409 89.734 31.4269 89.734 32.2015C89.734 32.9762 89.5753 33.6715 89.258 34.2875C88.9407 34.8942 88.502 35.3702 87.942 35.7155C87.3913 36.0515 86.78 36.2195 86.108 36.2195C85.52 36.2195 84.9973 36.1029 84.54 35.8695C84.0827 35.6269 83.7093 35.3282 83.42 34.9735V39.7616H81.824V28.3795H83.42V29.5135ZM88.11 32.2015C88.11 31.6695 87.998 31.2122 87.774 30.8295C87.5593 30.4375 87.27 30.1435 86.906 29.9475C86.5513 29.7422 86.1687 29.6395 85.758 29.6395C85.3567 29.6395 84.974 29.7422 84.61 29.9475C84.2553 30.1529 83.966 30.4515 83.742 30.8435C83.5273 31.2355 83.42 31.6975 83.42 32.2295C83.42 32.7615 83.5273 33.2282 83.742 33.6295C83.966 34.0216 84.2553 34.3202 84.61 34.5255C84.974 34.7309 85.3567 34.8335 85.758 34.8335C86.1687 34.8335 86.5513 34.7309 86.906 34.5255C87.27 34.3109 87.5593 34.0029 87.774 33.6016C87.998 33.2002 88.11 32.7335 88.11 32.2015Z" fill="white"/>
<path d="M98.155 36.1915C97.5017 36.1915 96.9137 36.0795 96.391 35.8555C95.8683 35.6222 95.4577 35.2955 95.159 34.8755C94.8603 34.4555 94.711 33.9655 94.711 33.4056H96.419C96.4563 33.8256 96.6197 34.1709 96.909 34.4415C97.2077 34.7122 97.623 34.8475 98.155 34.8475C98.7057 34.8475 99.135 34.7169 99.443 34.4555C99.751 34.1849 99.905 33.8396 99.905 33.4195C99.905 33.0929 99.807 32.8269 99.611 32.6215C99.4243 32.4162 99.1863 32.2575 98.897 32.1455C98.617 32.0335 98.225 31.9122 97.721 31.7815C97.0863 31.6135 96.5683 31.4455 96.167 31.2775C95.775 31.1002 95.439 30.8295 95.159 30.4655C94.879 30.1015 94.739 29.6162 94.739 29.0095C94.739 28.4495 94.879 27.9595 95.159 27.5395C95.439 27.1195 95.831 26.7975 96.335 26.5735C96.839 26.3495 97.4223 26.2375 98.085 26.2375C99.0277 26.2375 99.7977 26.4755 100.395 26.9515C101.002 27.4182 101.338 28.0622 101.403 28.8835H99.639C99.611 28.5289 99.443 28.2255 99.135 27.9735C98.827 27.7215 98.421 27.5955 97.917 27.5955C97.4597 27.5955 97.0863 27.7122 96.797 27.9455C96.5077 28.1789 96.363 28.5149 96.363 28.9535C96.363 29.2522 96.4517 29.4995 96.629 29.6955C96.8157 29.8822 97.049 30.0315 97.329 30.1435C97.609 30.2555 97.9917 30.3769 98.477 30.5075C99.121 30.6849 99.6437 30.8622 100.045 31.0395C100.456 31.2169 100.801 31.4922 101.081 31.8655C101.37 32.2295 101.515 32.7195 101.515 33.3355C101.515 33.8302 101.38 34.2969 101.109 34.7355C100.848 35.1742 100.46 35.5289 99.947 35.7995C99.443 36.0609 98.8457 36.1915 98.155 36.1915Z" fill="white"/>
<path d="M105.26 29.6815V33.9515C105.26 34.2409 105.326 34.4509 105.456 34.5815C105.596 34.7029 105.83 34.7635 106.156 34.7635H107.136V36.0935H105.876C105.158 36.0935 104.607 35.9256 104.224 35.5896C103.842 35.2535 103.65 34.7076 103.65 33.9515V29.6815H102.74V28.3795H103.65V26.4615H105.26V28.3795H107.136V29.6815H105.26Z" fill="white"/>
<path d="M111.953 36.2195C111.225 36.2195 110.567 36.0562 109.979 35.7295C109.391 35.3935 108.929 34.9269 108.593 34.3295C108.257 33.7229 108.089 33.0229 108.089 32.2295C108.089 31.4455 108.262 30.7502 108.607 30.1435C108.953 29.5369 109.424 29.0702 110.021 28.7435C110.619 28.4169 111.286 28.2535 112.023 28.2535C112.761 28.2535 113.428 28.4169 114.025 28.7435C114.623 29.0702 115.094 29.5369 115.439 30.1435C115.785 30.7502 115.957 31.4455 115.957 32.2295C115.957 33.0135 115.78 33.7089 115.425 34.3155C115.071 34.9222 114.585 35.3935 113.969 35.7295C113.363 36.0562 112.691 36.2195 111.953 36.2195ZM111.953 34.8335C112.364 34.8335 112.747 34.7355 113.101 34.5395C113.465 34.3435 113.759 34.0496 113.983 33.6575C114.207 33.2655 114.319 32.7895 114.319 32.2295C114.319 31.6695 114.212 31.1982 113.997 30.8155C113.783 30.4235 113.498 30.1295 113.143 29.9335C112.789 29.7375 112.406 29.6395 111.995 29.6395C111.585 29.6395 111.202 29.7375 110.847 29.9335C110.502 30.1295 110.227 30.4235 110.021 30.8155C109.816 31.1982 109.713 31.6695 109.713 32.2295C109.713 33.0602 109.923 33.7042 110.343 34.1615C110.773 34.6095 111.309 34.8335 111.953 34.8335Z" fill="white"/>
<path d="M119.131 29.4995C119.364 29.1075 119.672 28.8042 120.055 28.5896C120.447 28.3656 120.909 28.2535 121.441 28.2535V29.9055H121.035C120.41 29.9055 119.934 30.0642 119.607 30.3815C119.29 30.6989 119.131 31.2495 119.131 32.0335V36.0935H117.535V28.3795H119.131V29.4995Z" fill="white"/>
<path d="M129.978 32.0475C129.978 32.3369 129.959 32.5982 129.922 32.8315H124.028C124.075 33.4475 124.303 33.9422 124.714 34.3155C125.125 34.6889 125.629 34.8755 126.226 34.8755C127.085 34.8755 127.691 34.5162 128.046 33.7975H129.768C129.535 34.5069 129.11 35.0902 128.494 35.5476C127.887 35.9956 127.131 36.2195 126.226 36.2195C125.489 36.2195 124.826 36.0562 124.238 35.7295C123.659 35.3935 123.202 34.9269 122.866 34.3295C122.539 33.7229 122.376 33.0229 122.376 32.2295C122.376 31.4362 122.535 30.7409 122.852 30.1435C123.179 29.5369 123.631 29.0702 124.21 28.7435C124.798 28.4169 125.47 28.2535 126.226 28.2535C126.954 28.2535 127.603 28.4122 128.172 28.7295C128.741 29.0469 129.185 29.4949 129.502 30.0735C129.819 30.6429 129.978 31.3009 129.978 32.0475ZM128.312 31.5435C128.303 30.9555 128.093 30.4842 127.682 30.1295C127.271 29.7749 126.763 29.5975 126.156 29.5975C125.605 29.5975 125.134 29.7749 124.742 30.1295C124.35 30.4749 124.117 30.9462 124.042 31.5435H128.312Z" fill="white"/>
<path d="M33.2459 36.4863C28.1857 36.4593 24 26.8932 24 22.0214C24 14.0634 30.4464 12.3212 32.9308 12.3212C34.0504 12.3212 35.2459 12.7284 36.3004 13.0887C37.0377 13.34 37.8003 13.5995 38.2245 13.5995C38.4784 13.5995 39.0766 13.3788 39.6048 13.1851C40.7313 12.7698 42.133 12.2537 43.7652 12.2537C43.7681 12.2537 43.7721 12.2537 43.7749 12.2537C44.9937 12.2537 48.6892 12.5014 50.911 15.5913L51.4314 16.3155L50.6824 16.8389C49.6124 17.5866 47.6601 18.9505 47.6601 21.6521C47.6601 24.8519 49.8711 26.0825 50.9334 26.6743C51.4023 26.9356 51.8876 27.2049 51.8876 27.7941C51.8876 28.1788 48.5725 36.4385 43.7584 36.4385C42.5804 36.4385 41.7477 36.1106 41.0133 35.8215C40.2701 35.5287 39.629 35.2765 38.5697 35.2765C38.0328 35.2765 37.3538 35.5116 36.6349 35.7612C35.6526 36.1007 34.5407 36.4863 33.279 36.4863H33.2459Z" fill="white"/>
<path d="M44.2752 4.99951C44.4006 9.18602 41.1676 12.0904 37.9384 11.9083C37.4063 8.56729 41.1672 4.99951 44.2752 4.99951Z" fill="white"/>
</svg>
