<svg width="325" height="245" viewBox="0 0 325 245" fill="none" xmlns="http://www.w3.org/2000/svg">
<path d="M265.066 126.126L250.301 59.5988C254.285 59.0608 257.8 57.0392 260.272 54.1119C263.19 55.931 266.633 56.9874 270.321 56.9874H282.992C286.492 56.9874 289.328 54.1588 289.328 50.6686V25.3935C289.328 21.9034 286.492 19.0748 282.992 19.0748H270.321C266.524 19.0748 262.985 20.1954 260.012 22.1181C257.112 18.8477 252.877 16.7793 248.165 16.7793H210.763C204.043 16.7793 198.292 20.9827 196.002 26.8893H180.984C171.901 26.8893 164.511 34.2596 164.511 43.3181C164.511 52.3767 171.901 59.7469 180.984 59.7469H213.597V72.4807C213.597 75.9709 216.433 78.7995 219.933 78.7995C223.432 78.7995 226.269 75.9709 226.269 72.4807V59.7469H237.357L253.261 131.413L223.16 184.881C219.871 190.701 213.669 194.317 206.969 194.317H131.826C128.681 168.008 106.188 147.538 78.9758 147.538C66.9351 147.538 55.575 151.451 46.1231 158.85C46.1107 158.86 46.0983 158.87 46.086 158.88C34.8323 167.707 27.7588 180.374 26.1105 194.317H13.0971C13.9237 148.891 51.2339 112.193 96.9738 112.193H141.919C145.466 112.193 148.354 115.073 148.354 118.613V175.361C148.354 178.851 151.19 181.68 154.69 181.68H188.404C202.158 181.68 214.832 174.22 221.48 162.217C224.556 156.664 226.187 150.374 226.192 144.033L226.224 123.041C226.229 119.551 223.395 116.717 219.896 116.712C219.893 116.712 219.891 116.712 219.888 116.712C216.394 116.712 213.557 119.536 213.552 123.021L213.52 144.019C213.518 148.234 212.434 152.416 210.389 156.106C205.969 164.083 197.544 169.039 188.404 169.039H161.026V118.61C161.026 115.374 160.209 112.324 158.776 109.65C164.469 106.37 168.31 100.239 168.31 93.2266C168.31 82.7734 159.781 74.2702 149.302 74.2702H126.176C123.953 74.2702 121.822 74.6553 119.84 75.3563V19.9288C119.84 9.47567 111.311 0.972473 100.832 0.972473H59.9582C30.3278 0.972473 5.68703 22.6686 1.15784 50.9648C0.967268 51.5671 0.86332 52.2064 0.86332 52.8703C0.86332 52.9098 0.86827 52.9468 0.86827 52.9839C0.566324 55.4028 0.4104 57.8636 0.4104 60.3591V93.229C0.4104 102.72 7.44179 110.603 16.5819 111.973L30.6124 125.966C12.023 143.53 0.4104 168.366 0.4104 195.86V200.636C0.4104 204.126 3.24671 206.955 6.74632 206.955H42.3537C42.272 207.362 42.2275 207.786 42.2275 208.218C42.2275 217.388 45.6306 225.778 51.2339 232.21H6.74632C3.24671 232.21 0.4104 235.041 0.4104 238.529C0.4104 242.019 3.24671 244.847 6.74632 244.847H78.2432C78.4883 244.855 78.7308 244.867 78.9758 244.867C99.2384 244.867 115.724 228.426 115.724 208.218C115.724 207.786 115.68 207.362 115.598 206.955H206.969C216.945 206.955 226.269 202.186 232.112 194.297H240.136C238.332 198.676 237.374 203.395 237.374 208.218C237.374 217.388 240.777 225.778 246.38 232.21H164.214C160.714 232.21 157.878 235.041 157.878 238.529C157.878 242.019 160.714 244.847 164.214 244.847H273.39C273.635 244.855 273.877 244.867 274.122 244.867C294.385 244.867 310.871 228.426 310.871 208.218C310.871 203.395 309.913 198.676 308.108 194.297H318.474C321.973 194.297 324.81 191.469 324.81 187.979C324.81 154.625 298.216 127.348 265.066 126.126ZM126.176 86.9103H149.302C152.794 86.9103 155.638 89.7438 155.638 93.229C155.638 96.7118 152.794 99.5478 149.302 99.5478H126.176C122.681 99.5478 119.84 96.7118 119.84 93.229C119.84 89.7438 122.681 86.9103 126.176 86.9103ZM13.0822 60.3591C13.0822 59.9691 13.102 59.5816 13.1119 59.1916H82.4433C85.9429 59.1916 88.7792 56.3629 88.7792 52.8728C88.7792 49.3827 85.9429 46.554 82.4433 46.554H15.1711C21.0912 27.494 38.9283 13.6125 59.9582 13.6125H100.83C104.324 13.6125 107.166 16.4461 107.166 19.9313V93.229C107.166 96.7118 104.324 99.5478 100.83 99.5478H19.4206C19.4206 99.5478 19.4182 99.5478 19.4157 99.5478C15.9235 99.5478 13.0822 96.7118 13.0822 93.229V60.3591ZM34.716 112.185H49.2143C46.1701 113.918 43.2323 115.816 40.4059 117.86L34.716 112.185ZM103.052 208.218C103.052 221.377 92.3827 232.091 79.2208 232.222C79.1392 232.22 79.0575 232.21 78.9758 232.21H78.2457C65.3066 231.822 54.8993 221.214 54.8993 208.218C54.8993 207.786 54.8548 207.362 54.7731 206.955H103.179C103.097 207.362 103.052 207.786 103.052 208.218ZM38.8962 194.317C40.4653 184.279 45.7518 175.21 53.9168 168.815C53.9366 168.803 53.9539 168.785 53.9737 168.773C61.1659 163.15 69.811 160.176 78.9758 160.176C99.1914 160.176 115.999 174.998 119.051 194.317H38.8962ZM270.321 31.7123H276.657V44.3499H270.321C266.826 44.3499 263.985 41.5163 263.985 38.0311C263.985 34.5484 266.826 31.7123 270.321 31.7123ZM177.183 43.3181C177.183 41.2275 178.888 39.5269 180.984 39.5269H194.943V43.9697C194.943 45.0459 195.052 46.0949 195.257 47.1094H180.984C178.888 47.1094 177.183 45.4088 177.183 43.3181ZM219.933 47.1094H210.763C209.028 47.1094 207.615 45.7025 207.615 43.9697V32.5565C207.615 30.8262 209.028 29.4168 210.763 29.4168H248.165C249.9 29.4168 251.313 30.8262 251.313 32.5565V43.9697C251.313 45.7025 249.9 47.1094 248.165 47.1094H219.933ZM298.199 208.218C298.199 221.377 287.529 232.091 274.367 232.222C274.286 232.22 274.204 232.21 274.122 232.21H273.392C260.453 231.822 250.046 221.214 250.046 208.218C250.046 203.198 251.615 198.345 254.506 194.297H293.739C296.63 198.345 298.199 203.198 298.199 208.218ZM239.505 181.66L263.665 138.744C288.338 139.196 308.653 157.769 311.732 181.66H239.505Z" fill="#9B3934"/>
</svg>
