<svg width="276" height="109" viewBox="0 0 276 109" fill="none" xmlns="http://www.w3.org/2000/svg">
<rect width="276" height="109" fill="#E5E5E5"/>
<path fill-rule="evenodd" clip-rule="evenodd" d="M24.1728 47.5447C24.1728 30.2166 42.3022 30.2166 42.3022 47.5447C42.3022 62.6399 24.1728 62.6399 24.1728 47.5447ZM0 7.92402L2.42036 37.9199C3.0349 48.5915 3.02133 58.9791 3.02133 70.1855C4.9549 70.6074 7.72568 71.9511 9.92762 72.7734C12.6749 73.7996 14.4992 74.5871 17.2914 75.4983C33.0476 80.6412 42.7504 82.374 52.9342 66.5594C67.7532 43.5462 55.8299 11.8863 40.4892 11.8863C27.1077 11.8863 28.2376 14.5657 22.3598 15.848C22.1692 13.7094 21.5711 9.88009 21.2599 7.82171C20.8338 5.00189 20.0015 2.47621 19.9423 0C15.0445 0.102284 3.88783 5.48591 0 7.92402Z" fill="#97312C"/>
<path fill-rule="evenodd" clip-rule="evenodd" d="M244.142 49.2429C231.168 49.2429 230.621 23.7729 246.559 23.7729C254.996 23.7729 258.297 37.6821 251.84 45.1322C251.343 45.7058 249.399 47.5161 248.746 47.8952C248.001 48.3284 244.933 49.2429 244.142 49.2429ZM215.135 38.4891C215.135 52.5468 222.827 71.3175 240.516 71.3175C246.588 71.3175 250.524 71.0147 255.624 68.4877C255.624 71.5702 256.594 73.16 256.833 75.8454C258.615 75.3995 259.896 74.3847 261.409 73.3398L270.313 68.0953C272.27 67.0691 273.248 66.1632 275.566 65.6572V65.4867C275.556 61.9315 275.225 59.9032 274.998 57.1335L273.753 30.5651C273.753 20.7866 277.099 19.838 268.776 11.454C261.557 4.18185 257.262 2.8301 247.164 2.8301C234.915 2.8301 222.116 13.3921 217.918 24.6807C216.436 28.6651 215.135 33.4224 215.135 38.4891Z" fill="#97312C"/>
<path fill-rule="evenodd" clip-rule="evenodd" d="M97.2938 15.2827C97.2938 18.5117 97.8983 19.1976 97.8983 22.6405C97.8983 33.8249 99.8619 45.2813 87.0207 45.2813C77.5742 45.2813 80.9773 22.3644 80.9773 16.4146L63.4525 15.8483C63.0871 19.965 61.035 24.3038 61.035 31.6969C61.035 41.3852 60.8894 50.5266 65.2497 58.8804C74.5107 76.6237 92.2325 66.1459 98.5029 65.6572V71.8838C100.972 70.6598 114.97 63.3221 117.236 62.8274C117.236 54.7269 116.632 48.7095 116.632 40.7528C116.632 30.3191 117.236 21.8222 117.236 11.3204C114.269 11.5517 110.272 12.5826 107.199 13.2397C104.174 13.8862 99.9069 15.0788 97.2938 15.2827Z" fill="#97312C"/>
<path fill-rule="evenodd" clip-rule="evenodd" d="M118.445 45.2823C118.445 53.0994 121.57 61.6504 125.544 65.8013C132.735 73.3128 138.074 75.8465 148.056 75.8465C161.431 75.8465 167.922 69.1118 170.416 68.4888L166.272 58.7845C165.027 55.6712 163.345 51.2716 162.559 48.1122C150.909 55.4192 138.387 54.7158 138.387 46.4141V43.0181C138.387 35.2492 148.67 29.4337 157.12 29.4337H162.559L164.977 6.79347C153.711 6.79347 147.463 8.11451 138.576 12.6304C136.167 13.8551 134.332 15.5478 132.336 16.9744C126.393 21.2222 118.445 35.3174 118.445 45.2823Z" fill="#97312C"/>
<path fill-rule="evenodd" clip-rule="evenodd" d="M167.395 44.7161C167.395 53.2759 170.105 61.0835 174.539 66.3254C177.775 70.1527 187.154 75.8465 192.776 75.8465C205.006 75.8465 208.808 74.7308 218.761 68.4888C218.547 66.0754 217.784 65.1127 216.959 63.3839C215.676 60.6938 211.72 50.4801 211.509 48.1122C208.925 48.7587 206.388 53.2064 196.402 53.2064C193.457 53.2064 190.77 52.3326 189.247 50.8511C183.082 44.8558 188.427 31.0408 204.326 29.4986C212.83 28.6736 211.431 31.4239 212.135 21.5298C212.494 16.4757 213.322 12.6303 213.322 6.79347C198.442 6.79347 189.465 10.1087 180.54 17.4076C174.92 22.0037 167.395 34.9871 167.395 44.7161Z" fill="#97312C"/>
<path d="M10.92 108V91.2H21.168V93.264H13.2V98.184H19.536V100.248H13.2V105.936H21.384V108H10.92ZM38.6091 108V91.2H41.0811L49.3611 103.776V91.2H51.6651V108H49.7211L40.8891 94.728V108H38.6091ZM73.2435 108V93.264H68.3475V91.2H80.4195V93.264H75.5235V108H73.2435ZM97.1044 108V91.2H107.352V93.264H99.3844V98.184H105.72V100.248H99.3844V105.936H107.568V108H97.1044ZM124.793 108V91.2H130.241C131.409 91.2 132.429 91.38 133.301 91.74C134.173 92.1 134.849 92.656 135.329 93.408C135.809 94.16 136.049 95.128 136.049 96.312C136.049 97.464 135.797 98.428 135.293 99.204C134.797 99.98 134.073 100.592 133.121 101.04L136.889 108H134.105L130.697 101.448C130.673 101.448 130.653 101.448 130.637 101.448C130.621 101.448 130.601 101.448 130.577 101.448H127.193V108H124.793ZM127.193 99.408H130.217C131.361 99.408 132.221 99.132 132.797 98.58C133.381 98.028 133.673 97.272 133.673 96.312C133.673 95.336 133.381 94.58 132.797 94.044C132.221 93.508 131.361 93.24 130.217 93.24H127.193V99.408ZM153.654 108V91.2H159.198C160.326 91.2 161.318 91.38 162.174 91.74C163.03 92.1 163.694 92.68 164.166 93.48C164.646 94.28 164.886 95.336 164.886 96.648C164.886 97.936 164.646 98.984 164.166 99.792C163.694 100.592 163.03 101.18 162.174 101.556C161.318 101.932 160.326 102.12 159.198 102.12H156.054V108H153.654ZM156.054 100.08H158.862C160.086 100.08 161.002 99.804 161.61 99.252C162.226 98.692 162.534 97.832 162.534 96.672C162.534 95.504 162.242 94.64 161.658 94.08C161.082 93.52 160.15 93.24 158.862 93.24H156.054V100.08ZM181.789 108V91.2H187.237C188.405 91.2 189.425 91.38 190.297 91.74C191.169 92.1 191.845 92.656 192.325 93.408C192.805 94.16 193.045 95.128 193.045 96.312C193.045 97.464 192.793 98.428 192.289 99.204C191.793 99.98 191.069 100.592 190.117 101.04L193.885 108H191.101L187.693 101.448C187.669 101.448 187.649 101.448 187.633 101.448C187.617 101.448 187.597 101.448 187.573 101.448H184.189V108H181.789ZM184.189 99.408H187.213C188.357 99.408 189.217 99.132 189.793 98.58C190.377 98.028 190.669 97.272 190.669 96.312C190.669 95.336 190.377 94.58 189.793 94.044C189.217 93.508 188.357 93.24 187.213 93.24H184.189V99.408ZM210.65 108V91.2H212.93V108H210.65ZM235.967 108.336C235.271 108.336 234.575 108.284 233.879 108.18C233.183 108.076 232.539 107.944 231.947 107.784C231.355 107.616 230.863 107.44 230.471 107.256L230.783 104.832C231.215 105.04 231.735 105.256 232.343 105.48C232.959 105.704 233.623 105.892 234.335 106.044C235.047 106.196 235.767 106.272 236.495 106.272C237.575 106.272 238.431 106.076 239.063 105.684C239.703 105.284 240.023 104.664 240.023 103.824C240.023 103.192 239.863 102.676 239.543 102.276C239.223 101.868 238.739 101.52 238.091 101.232C237.451 100.944 236.647 100.656 235.679 100.368C234.759 100.096 233.911 99.776 233.135 99.408C232.359 99.032 231.735 98.532 231.263 97.908C230.799 97.276 230.567 96.44 230.567 95.4C230.567 94.512 230.795 93.728 231.251 93.048C231.715 92.36 232.391 91.824 233.279 91.44C234.175 91.056 235.271 90.864 236.567 90.864C237.671 90.864 238.683 90.984 239.603 91.224C240.531 91.464 241.295 91.728 241.895 92.016L241.655 94.44C240.743 93.896 239.871 93.508 239.039 93.276C238.215 93.044 237.359 92.928 236.471 92.928C235.487 92.928 234.671 93.112 234.023 93.48C233.383 93.848 233.063 94.448 233.063 95.28C233.063 95.84 233.207 96.3 233.495 96.66C233.783 97.012 234.211 97.316 234.779 97.572C235.347 97.82 236.055 98.072 236.903 98.328C238.071 98.68 239.075 99.084 239.915 99.54C240.755 99.988 241.399 100.544 241.847 101.208C242.295 101.864 242.519 102.68 242.519 103.656C242.519 104.376 242.383 105.024 242.111 105.6C241.839 106.176 241.431 106.668 240.887 107.076C240.343 107.484 239.659 107.796 238.835 108.012C238.019 108.228 237.063 108.336 235.967 108.336ZM259.582 108V91.2H269.83V93.264H261.862V98.184H268.198V100.248H261.862V105.936H270.046V108H259.582Z" fill="#97312C"/>
</svg>
