<svg width="215" height="204" viewBox="0 0 215 204" fill="none" xmlns="http://www.w3.org/2000/svg">
<path d="M74.4335 49.0156C83.6332 40.4496 95.8647 35.7322 108.875 35.7322C121.885 35.7322 134.117 40.4496 143.316 49.0156C152.516 57.5814 157.582 68.9705 157.582 81.0845C157.582 93.1985 152.516 104.588 143.316 113.153C134.117 121.719 121.885 126.437 108.875 126.437C95.8647 126.437 83.6332 121.719 74.4335 113.153C65.2341 104.588 60.1677 93.1985 60.1677 81.0845C60.1677 68.9705 65.2341 57.5814 74.4335 49.0156ZM108.875 123.393C133.93 123.393 154.313 104.414 154.313 81.0845C154.313 57.7553 133.93 38.776 108.875 38.776C83.8202 38.776 63.4366 57.7553 63.4366 81.0845C63.4366 104.414 83.8202 123.393 108.875 123.393Z" fill="#9B3934"/>
<path d="M94.5058 65.5028C94.1831 65.8123 93.76 65.9671 93.337 65.9671C92.9141 65.9671 92.4909 65.8123 92.1683 65.5028C91.5227 64.8832 91.5227 63.8793 92.1683 63.26L97.4578 58.1855C98.1033 57.5664 99.15 57.5664 99.7953 58.1855C100.441 58.805 100.441 59.8089 99.7953 60.4282L94.5058 65.5028Z" fill="#9B3934"/>
<path d="M92.1118 76.9769L109.247 58.19C109.817 57.5649 110.742 57.5649 111.312 58.19C111.883 58.8155 111.883 59.8292 111.312 60.4545L94.177 79.2414C93.892 79.5539 93.5181 79.7102 93.1444 79.7102C92.7708 79.7102 92.3969 79.5539 92.1118 79.2414C91.5415 78.6158 91.5415 77.6022 92.1118 76.9769Z" fill="#9B3934"/>
<path d="M114.918 60.8897C115.502 60.3299 116.449 60.3299 117.032 60.8897C117.616 61.45 117.616 62.3578 117.032 62.9179L97.101 82.0389C96.8092 82.3189 96.4265 82.4588 96.044 82.4588C95.6615 82.4588 95.2788 82.3189 94.987 82.0389C94.4032 81.4787 94.4032 80.5708 94.987 80.0108L114.918 60.8897Z" fill="#9B3934"/>
<path d="M120.649 69.1356C121.233 68.5757 122.179 68.5757 122.763 69.1356C123.346 69.6958 123.346 70.6037 122.763 71.1638L102.831 90.2848C102.539 90.5647 102.157 90.7047 101.774 90.7047C101.392 90.7047 101.009 90.5647 100.717 90.2848C100.134 89.7246 100.134 88.8167 100.717 88.2566L120.649 69.1356Z" fill="#9B3934"/>
<path d="M120.557 77.3966C121.162 76.8166 122.142 76.8166 122.747 77.3966C123.352 77.977 123.352 78.9176 122.747 79.4979L102.923 98.5156C102.621 98.8056 102.224 98.9506 101.828 98.9506C101.432 98.9506 101.035 98.8056 100.733 98.5156C100.128 97.9351 100.128 96.9945 100.733 96.4143L120.557 77.3966Z" fill="#9B3934"/>
<path d="M120.379 82.9231C121.024 82.3041 122.071 82.3041 122.716 82.9231C123.362 83.5426 123.362 84.5465 122.716 85.1658L105.966 101.235C105.644 101.544 105.22 101.699 104.798 101.699C104.375 101.699 103.951 101.544 103.629 101.235C102.983 100.615 102.983 99.6115 103.629 98.9922L120.379 82.9231Z" fill="#9B3934"/>
<path d="M120.533 93.8923C121.143 93.307 122.133 93.307 122.743 93.8923C123.353 94.478 123.353 95.4272 122.743 96.0127L114.408 104.009C114.103 104.302 113.703 104.448 113.303 104.448C112.903 104.448 112.503 104.302 112.198 104.009C111.587 103.423 111.587 102.474 112.198 101.888L120.533 93.8923Z" fill="#9B3934"/>
<path d="M83.4938 81.1872C83.8137 81.1872 84.1278 81.2103 84.4346 81.2548C82.9121 77.6542 82.3774 73.7183 82.9171 69.7213C84.3306 59.2524 93.4995 50.7995 104.719 49.6222C111.805 48.879 118.893 50.9802 124.164 55.3876C128.026 58.6172 130.68 62.8717 131.826 67.5145C133.66 67.2276 135.574 67.3188 137.441 67.7923C141.549 68.8341 144.76 71.5316 146.031 75.0082C146.252 75.6127 146.058 76.2823 145.541 76.6996C144.17 77.8053 142.533 78.5713 140.765 78.9765C140.893 79.0877 141.022 79.1979 141.147 79.3143C144.156 82.1293 145.508 85.9633 144.761 89.5706C144.631 90.1978 144.107 90.6884 143.436 90.8096C142.737 90.936 142.03 90.9982 141.322 90.9982C138.128 90.9982 134.934 89.7331 132.47 87.4289C132.468 87.4273 132.467 87.4256 132.465 87.4239V94.4369C132.465 99.2164 130.504 103.735 126.942 107.162C123.388 110.581 118.628 112.543 113.54 112.686C113.353 112.691 113.167 112.694 112.98 112.694C108.699 112.694 104.469 111.317 101.012 108.789C97.752 106.405 95.374 103.139 94.217 99.5C93.0002 100.442 91.44 101.01 89.7406 101.01C85.8656 101.01 82.7129 98.0611 82.7129 94.4369C82.7129 93.8145 82.808 93.2127 82.9815 92.6418C79.8376 92.3975 77.3585 89.9276 77.3585 86.9252C77.3585 83.7614 80.1106 81.1872 83.4938 81.1872ZM132.465 81.6702C132.934 82.975 133.748 84.1975 134.836 85.2157C136.71 86.9682 139.215 87.9253 141.607 87.86C141.681 85.6239 140.654 83.2802 138.78 81.5271C137.007 79.8691 134.725 78.9308 132.465 78.8815V81.6702ZM132.465 72.7366V74.7825C133.272 75.2486 134.157 75.6067 135.105 75.8475C137.663 76.4955 140.348 76.1636 142.385 74.9913C141.26 73.0172 139.123 71.4615 136.565 70.8126C135.158 70.4562 133.724 70.3909 132.358 70.6075C132.428 71.3125 132.465 72.0228 132.465 72.7366ZM93.4955 88.8856C95.4605 90.052 96.7684 92.1037 96.7684 94.4369C96.7684 94.8738 96.7215 95.3005 96.6341 95.7139C96.8157 96.3127 96.9826 96.9216 97.1236 97.5302L97.1595 97.6803C98.8597 104.664 105.858 109.781 113.439 109.557C117.654 109.439 121.597 107.814 124.542 104.98C127.493 102.142 129.118 98.397 129.118 94.4369V81.953C129.118 81.9323 129.118 81.9118 129.118 81.8912V75.7031C129.114 75.6415 129.114 75.5797 129.118 75.518V72.7366C129.118 67.0121 126.499 61.5392 121.933 57.7208C117.304 53.8502 111.322 52.0787 105.092 52.7325C95.3889 53.7507 87.4594 61.0604 86.237 70.1134C85.4816 75.7074 87.1495 81.1605 90.9329 85.4686C91.8577 86.5211 92.707 87.6482 93.4578 88.8192C93.4718 88.8409 93.483 88.8635 93.4955 88.8856ZM89.7406 97.8797C91.7704 97.8797 93.4218 96.3353 93.4218 94.4369C93.4218 92.5385 91.7704 90.9941 89.7406 90.9941C87.7109 90.9941 86.0595 92.5385 86.0595 94.4369C86.0595 96.3353 87.7109 97.8797 89.7406 97.8797ZM83.4938 89.5335C85.0316 89.5335 86.2826 88.3635 86.2826 86.9252C86.2826 85.487 85.0316 84.317 83.4938 84.317C81.9559 84.317 80.705 85.487 80.705 86.9252C80.705 88.3635 81.9559 89.5335 83.4938 89.5335Z" fill="#9B3934"/>
<path d="M89.9142 102.802C90.1449 101.817 90.7059 101.418 91.1675 101.91C91.6289 102.403 91.816 103.601 91.5852 104.587L90.5888 108.842C90.4251 109.541 90.0953 109.945 89.7526 109.945C89.6122 109.945 89.4697 109.877 89.3356 109.734C88.8741 109.241 88.687 108.043 88.9178 107.057L89.9142 102.802Z" fill="#9B3934"/>
<path d="M131.804 101.699C133.382 101.699 134.661 102.314 134.661 103.074C134.661 103.833 133.382 104.448 131.804 104.448H131.773C130.195 104.448 128.931 103.833 128.931 103.074C128.931 102.314 130.225 101.699 131.804 101.699Z" fill="#9B3934"/>
<path d="M78.6287 77.224C78.9936 76.8741 79.5852 76.8741 79.95 77.224C80.3149 77.5742 80.3149 78.1416 79.95 78.4917L78.9534 79.4478C78.771 79.6227 78.5318 79.7102 78.2928 79.7102C78.0537 79.7102 77.8145 79.6227 77.6322 79.4478C77.2673 79.0976 77.2673 78.5302 77.6322 78.1801L78.6287 77.224Z" fill="#9B3934"/>
<path d="M74.5009 71.4643C76.0791 71.4643 77.3585 72.6946 77.3585 74.213C77.3585 75.7313 76.0791 76.9616 74.5009 76.9616H74.4705C72.8924 76.9616 71.6282 75.7313 71.6282 74.213C71.6282 72.6946 72.9228 71.4643 74.5009 71.4643Z" fill="#9B3934"/>
<path d="M78.7911 71.4643C77.9999 71.4643 77.3585 71.0631 77.3585 70.568V69.612C77.3585 69.1169 77.9999 68.7157 78.7911 68.7157C79.5822 68.7157 80.2236 69.1169 80.2236 69.612V70.568C80.2236 71.0631 79.5822 71.4643 78.7911 71.4643Z" fill="#9B3934"/>
<path d="M135.178 93.5941C135.639 93.2654 136.2 93.5319 136.431 94.1888L137.427 97.0256C137.658 97.6825 137.471 98.4813 137.01 98.8098C136.875 98.9054 136.733 98.9506 136.593 98.9506C136.25 98.9506 135.92 98.6811 135.756 98.2153L134.76 95.3785C134.529 94.7212 134.716 93.9227 135.178 93.5941Z" fill="#9B3934"/>
<path d="M134.24 59.7345C133.749 60.2005 132.76 60.4698 131.732 60.4698C131.31 60.4698 130.883 60.4244 130.481 60.329C129.096 60.0005 128.535 59.2019 129.227 58.5448L132.217 55.7078C132.909 55.0509 134.592 54.7849 135.976 55.1131C137.361 55.4417 137.922 56.2403 137.23 56.8974L134.24 59.7345Z" fill="#9B3934"/>
<path d="M196.977 0H17.9072C8.02208 0.0111234 0.0117515 7.59329 0 16.95V159.326C0.0117515 168.682 8.02208 176.264 17.9072 176.276H75.2096V183.059H60.8841C52.9762 183.068 46.5674 189.133 46.5586 196.619V200.008C46.5586 201.881 48.1618 203.398 50.1399 203.398H164.745C166.723 203.398 168.326 201.881 168.326 200.008V196.619C168.317 189.133 161.909 183.067 154.001 183.059H139.675V176.276H196.977C206.863 176.264 214.873 168.682 214.885 159.326V16.95C214.873 7.59329 206.863 0.0111234 196.977 0ZM154 189.839C157.955 189.843 161.159 192.876 161.163 196.619H53.7211C53.7249 192.876 56.9297 189.843 60.8841 189.839H154ZM82.3726 183.059V176.279H132.512V183.059H82.3726ZM207.722 159.326C207.715 164.94 202.909 169.49 196.977 169.495H17.9072C11.976 169.49 7.16926 164.94 7.16296 159.326V149.159H207.722V159.326H207.722ZM207.722 142.379H7.16296V16.95C7.16926 11.3359 11.976 6.78605 17.9072 6.78009H196.978C202.909 6.78605 207.716 11.3359 207.722 16.95V142.379H207.722Z" fill="#9B3934"/>
</svg>
