<svg width="201" height="154" viewBox="0 0 201 154" fill="none" xmlns="http://www.w3.org/2000/svg">
<path d="M100.537 23.5364C67.8189 23.5364 41.2013 50.0819 41.2013 82.7112C41.2013 115.34 67.8193 141.886 100.537 141.886C133.254 141.886 159.873 115.34 159.873 82.7112C159.873 50.0819 133.255 23.5364 100.537 23.5364ZM100.537 134.076C72.1371 134.076 49.0323 111.034 49.0323 82.7108C49.0323 54.3884 72.1367 31.3461 100.537 31.3461C128.936 31.3461 152.041 54.388 152.041 82.7108C152.041 111.034 128.936 134.076 100.537 134.076Z" fill="#9B3934"/>
<path d="M135.661 63.6229C134.625 61.7301 132.246 61.0335 130.348 62.0668C130.285 62.1015 130.226 62.1413 130.165 62.1788C128.409 63.2625 127.786 65.536 128.788 67.3656C131.347 72.0403 132.699 77.3469 132.699 82.711C132.699 100.397 118.271 114.787 100.537 114.787C82.8018 114.787 68.3741 100.397 68.3741 82.711C68.3741 65.0245 82.8022 50.6354 100.537 50.6354C102.238 50.6354 103.946 50.769 105.613 51.0326C107.679 51.3598 109.615 50.0102 110.049 47.9971C110.064 47.9272 110.082 47.8585 110.093 47.7867C110.431 45.6564 108.974 43.6559 106.838 43.3185C104.768 42.9912 102.647 42.8253 100.536 42.8253C78.484 42.8253 60.5424 60.7179 60.5424 82.711C60.5424 104.704 78.4836 122.597 100.536 122.597C122.589 122.597 140.531 104.704 140.531 82.711C140.531 76.0426 138.847 69.4423 135.661 63.6229Z" fill="#9B3934"/>
<path d="M125.554 50.0793C125.374 49.8996 125.174 49.7356 124.959 49.595C124.748 49.4544 124.521 49.3334 124.282 49.2358C124.047 49.1381 123.8 49.0639 123.549 49.0132C123.044 48.9116 122.524 48.9116 122.018 49.0132C121.768 49.0639 121.525 49.1381 121.286 49.2358C121.051 49.3334 120.824 49.4544 120.613 49.595C120.397 49.7356 120.198 49.8996 120.014 50.0793C119.834 50.2589 119.673 50.458 119.528 50.6728C119.387 50.8837 119.266 51.1102 119.168 51.3484C119.106 51.496 119.057 51.6491 119.014 51.8041C118.989 51.8951 118.964 51.9861 118.945 52.0787C118.895 52.3282 118.871 52.5859 118.871 52.8398C118.871 53.0975 118.894 53.3517 118.945 53.6056C118.996 53.8555 119.07 54.0976 119.168 54.3354C119.266 54.5701 119.388 54.7966 119.529 55.0075C119.673 55.2223 119.834 55.4214 120.014 55.6011C120.198 55.7807 120.398 55.9447 120.613 56.0892C120.825 56.2298 121.052 56.3508 121.287 56.4485C121.525 56.5461 121.768 56.6203 122.019 56.6711C122.273 56.7218 122.532 56.7449 122.786 56.7449C123.041 56.7449 123.299 56.7214 123.55 56.6711C123.8 56.6207 124.047 56.5461 124.282 56.4485C124.487 56.3645 124.681 56.2606 124.866 56.1447C124.897 56.1255 124.929 56.1091 124.959 56.0892C125.174 55.9447 125.374 55.7807 125.554 55.6011C125.734 55.4214 125.899 55.2223 126.04 55.0075C126.181 54.7966 126.302 54.5701 126.4 54.3354C126.498 54.0976 126.572 53.8516 126.623 53.6056C126.674 53.3517 126.702 53.0975 126.702 52.8398C126.702 51.8127 126.283 50.8052 125.554 50.0793Z" fill="#9B3934"/>
<path d="M200.561 138.637L187.861 35.486C186.977 28.3069 184.716 21.475 181.141 15.1808C178.947 11.3167 176.281 7.72364 173.218 4.50116L172.876 4.1415C170.267 1.39584 166.364 0.664029 162.931 2.27722C159.5 3.89002 157.581 7.3589 158.043 11.114L174.142 141.872C174.194 142.292 174.264 142.705 174.354 143.11C175.691 149.188 181.134 153.529 187.342 153.528C187.88 153.528 188.426 153.496 188.973 153.428C193.297 152.899 196.887 150.345 198.902 146.836C199.115 146.467 199.309 146.087 199.485 145.698C199.662 145.308 199.819 144.91 199.958 144.503C200.582 142.673 200.812 140.68 200.561 138.637ZM165.817 10.162C165.798 10.0054 165.746 9.58792 166.271 9.34151C166.414 9.27395 166.54 9.24779 166.65 9.24779C166.94 9.24779 167.114 9.43133 167.193 9.51412L167.535 9.87377C170.161 12.637 172.446 15.7173 174.328 19.0296C177.392 24.4257 179.331 30.2829 180.088 36.4377L186.857 91.4134L175.984 92.7447L165.817 10.162ZM192.449 142.251C191.735 144.054 190.08 145.424 188.019 145.676C185.02 146.046 182.283 143.91 181.915 140.92L176.939 100.497L187.811 99.1654L192.788 139.589C192.903 140.523 192.773 141.432 192.449 142.251Z" fill="#9B3934"/>
<path d="M48.4687 5.17826C46.3213 4.91428 44.3686 6.43804 44.1051 8.57842L40.5438 37.5042C39.9885 42.0122 36.3356 45.4131 31.815 45.688L29.2193 45.3702L33.9028 7.32957C34.1663 5.1892 32.64 3.24056 30.4934 2.97736C28.3465 2.7122 26.3934 4.23714 26.1298 6.37751L21.4463 44.4181L18.8483 44.1002C14.5293 42.742 11.8106 38.5613 12.3655 34.0536L15.9268 5.12828C16.1903 2.9879 14.664 1.03926 12.5174 0.776061C10.3712 0.510515 8.41731 2.03584 8.15379 4.17622L4.59249 33.1016C3.70167 40.3389 7.4055 47.1243 13.6533 50.3788L0.332245 135.876C0.330678 135.885 0.329112 135.895 0.327546 135.905C-0.213208 139.56 0.725378 143.191 2.97023 146.13C5.21508 149.068 8.47644 150.935 12.1501 151.385L12.2214 151.393C12.7888 151.463 13.355 151.497 13.9169 151.497C17.0138 151.497 19.9908 150.453 22.4428 148.48C25.34 146.149 27.1217 142.829 27.4596 139.132L35.3332 53.0343C42.1856 51.3844 47.4263 45.6939 48.3172 38.4562L51.8785 9.53048C52.1416 7.3901 50.6153 5.44147 48.4687 5.17826ZM19.6611 138.424C19.517 139.997 18.759 141.409 17.5259 142.402C16.2929 143.394 14.7493 143.837 13.1788 143.642L13.1075 143.633C11.5428 143.442 10.1547 142.648 9.19966 141.397C8.24659 140.15 7.8468 138.609 8.07312 137.058L21.285 52.2677L24.3748 52.6461C24.3764 52.6461 24.3776 52.6465 24.3791 52.6469C24.3803 52.6469 24.3815 52.6469 24.3827 52.6469L27.4702 53.0249L19.6611 138.424Z" fill="#9B3934"/>
</svg>
