<svg width="169" height="680" viewBox="0 0 169 680" fill="none" xmlns="http://www.w3.org/2000/svg">
<g opacity="0.05">
<path d="M145.551 59.5887C145.49 74.3886 142.437 87.3095 136.391 98.3514C130.345 109.527 121.977 118.092 111.285 124.048C100.594 130.004 88.4485 132.954 74.8486 132.899C61.3821 132.843 49.2612 129.793 38.4859 123.749C27.7107 117.705 19.2128 109.07 12.9923 97.8439C6.90449 86.7521 3.89104 73.8062 3.95191 59.0064L4.19455 0.00685195L145.793 0.589196L145.551 59.5887ZM43.568 55.1692C43.5269 65.1692 46.2276 73.1137 51.6701 79.0028C57.1126 84.8919 64.9004 87.8573 75.0337 87.8989C85.1669 87.9406 92.9789 85.0394 98.4697 79.1952C103.96 73.3511 106.726 65.4291 106.767 55.4292L106.811 44.8293L43.6116 44.5693L43.568 55.1692Z" fill="#2E266F"/>
<path d="M95.3999 193.416C101.915 197.977 107.092 203.531 110.932 210.08C114.905 216.63 116.877 223.438 116.848 230.505L69.448 230.31L69.4998 217.71C69.5343 209.31 68.0932 203.104 65.1763 199.092C62.2589 195.213 57.0669 193.259 49.6003 193.228L3.40068 193.038L3.58328 148.638L116.382 149.102L116.2 193.502L95.3999 193.416Z" fill="#2E266F"/>
<path d="M124.906 264.898C124.938 257.164 127.03 250.973 131.183 246.323C135.335 241.674 140.545 239.362 146.811 239.388C153.211 239.414 158.468 241.769 162.582 246.452C166.83 251.137 168.938 257.345 168.906 265.079C168.875 272.679 166.716 278.803 162.43 283.452C158.278 288.102 153.001 290.413 146.602 290.387C140.335 290.361 135.145 288.007 131.03 283.323C126.916 278.639 124.875 272.498 124.906 264.898ZM115.816 286.861L3.01673 286.397L3.19933 241.997L115.998 242.461L115.816 286.861Z" fill="#2E266F"/>
<path d="M116.208 385.916C116.155 398.849 111.781 408.898 103.084 416.062C94.3876 423.36 82.6393 426.978 67.8394 426.918L2.43993 426.649L2.62171 382.449L62.4212 382.695C67.7545 382.717 71.9605 381.267 75.0392 378.347C78.2507 375.56 79.8663 371.767 79.886 366.967C79.9063 362.033 78.3222 358.16 75.1338 355.347C72.0787 352.534 67.8845 351.117 62.5512 351.095L2.75166 350.849L2.93426 306.45L115.733 306.913L115.551 351.313L98.3509 351.242C103.67 354.731 107.984 359.349 111.294 365.096C114.603 370.976 116.241 377.916 116.208 385.916Z" fill="#2E266F"/>
<path d="M2.06382 518.101L47.1778 490.486L2.17815 490.301L2.36075 445.902L150.36 446.51L150.177 490.91L72.7776 490.592L114.861 518.965L114.649 570.564L58.023 528.131L1.84585 571.1L2.06382 518.101Z" fill="#2E266F"/>
<path d="M0.19847 631.25C0.242338 620.584 2.01459 611.124 5.51522 602.872C9.0153 594.753 13.8419 588.306 19.9949 583.531C26.1479 578.757 33.0924 576.052 40.8284 575.417L40.6532 618.017C37.3177 618.536 34.8453 619.926 33.236 622.186C31.6262 624.58 30.8138 627.576 30.799 631.176C30.7897 633.443 31.249 635.245 32.1768 636.582C33.238 637.92 34.5019 638.592 35.9686 638.598C38.5019 638.608 40.3076 637.215 41.3858 634.42C42.464 631.624 43.6834 626.896 45.0442 620.235C46.6776 612.108 48.4386 605.382 50.3272 600.056C52.2152 594.864 55.4341 590.277 59.9839 586.296C64.5331 582.448 70.8076 580.54 78.8076 580.573C85.7408 580.602 92 582.428 97.5852 586.051C103.303 589.807 107.747 595.292 110.918 602.506C114.221 609.719 115.852 618.459 115.81 628.726C115.747 643.926 111.965 655.777 104.464 664.28C96.9613 672.915 87.2066 678.075 75.1996 679.759L75.3616 640.36C78.431 639.706 80.7701 638.315 82.3789 636.188C84.121 634.062 84.9994 631.199 85.0142 627.599C85.0235 625.333 84.564 623.597 83.6356 622.394C82.8405 621.19 81.5764 620.585 79.843 620.578C77.5764 620.569 75.8373 621.961 74.6258 624.756C73.5476 627.552 72.3959 632.014 71.1707 638.142C69.5373 646.269 67.7091 653.128 65.6861 658.72C63.663 664.312 60.1764 669.164 55.2261 673.277C50.4091 677.391 43.734 679.43 35.2008 679.395C28.5341 679.367 22.5422 677.409 17.2248 673.521C11.9074 669.632 7.73044 664.015 4.69396 656.669C1.65693 649.457 0.158441 640.984 0.19847 631.25Z" fill="#2E266F"/>
</g>
</svg>
