<svg width="178" height="49" viewBox="0 0 178 49" fill="none" xmlns="http://www.w3.org/2000/svg">
<path d="M0 9.99951C0 4.47667 4.47715 -0.000488281 10 -0.000488281H168C173.523 -0.000488281 178 4.47666 178 9.99951V38.9995C178 44.5224 173.523 48.9995 168 48.9995H10C4.47715 48.9995 0 44.5224 0 38.9995V9.99951Z" fill="black"/>
<path d="M78.26 13.0596C78.028 12.5716 77.692 12.1956 77.252 11.9316C76.812 11.6596 76.3 11.5236 75.716 11.5236C75.132 11.5236 74.604 11.6596 74.132 11.9316C73.668 12.1956 73.3 12.5796 73.028 13.0836C72.764 13.5796 72.632 14.1556 72.632 14.8116C72.632 15.4676 72.764 16.0436 73.028 16.5396C73.3 17.0356 73.668 17.4196 74.132 17.6916C74.604 17.9556 75.132 18.0876 75.716 18.0876C76.532 18.0876 77.204 17.8436 77.732 17.3556C78.26 16.8676 78.568 16.2076 78.656 15.3756H75.32V14.4876H79.82V15.3276C79.756 16.0156 79.54 16.6476 79.172 17.2236C78.804 17.7916 78.32 18.2436 77.72 18.5796C77.12 18.9076 76.452 19.0716 75.716 19.0716C74.94 19.0716 74.232 18.8916 73.592 18.5316C72.952 18.1636 72.444 17.6556 72.068 17.0076C71.7 16.3596 71.516 15.6276 71.516 14.8116C71.516 13.9956 71.7 13.2636 72.068 12.6156C72.444 11.9596 72.952 11.4516 73.592 11.0916C74.232 10.7236 74.94 10.5396 75.716 10.5396C76.604 10.5396 77.388 10.7596 78.068 11.1996C78.756 11.6396 79.256 12.2596 79.568 13.0596H78.26Z" fill="white"/>
<path d="M82.3558 11.5236V14.3196H85.4038V15.2196H82.3558V18.0996H85.7638V18.9996H81.2638V10.6236H85.7638V11.5236H82.3558Z" fill="white"/>
<path d="M92.5642 10.6356V11.5236H90.2842V18.9996H89.1922V11.5236H86.9002V10.6356H92.5642Z" fill="white"/>
<path d="M98.1996 10.6356V18.9996H97.1076V10.6356H98.1996Z" fill="white"/>
<path d="M105.209 10.6356V11.5236H102.929V18.9996H101.837V11.5236H99.5447V10.6356H105.209Z" fill="white"/>
<path d="M113.544 19.0836C112.768 19.0836 112.06 18.9036 111.42 18.5436C110.78 18.1756 110.272 17.6676 109.896 17.0196C109.528 16.3636 109.344 15.6276 109.344 14.8116C109.344 13.9956 109.528 13.2636 109.896 12.6156C110.272 11.9596 110.78 11.4516 111.42 11.0916C112.06 10.7236 112.768 10.5396 113.544 10.5396C114.328 10.5396 115.04 10.7236 115.68 11.0916C116.32 11.4516 116.824 11.9556 117.192 12.6036C117.56 13.2516 117.744 13.9876 117.744 14.8116C117.744 15.6356 117.56 16.3716 117.192 17.0196C116.824 17.6676 116.32 18.1756 115.68 18.5436C115.04 18.9036 114.328 19.0836 113.544 19.0836ZM113.544 18.1356C114.128 18.1356 114.652 17.9996 115.116 17.7276C115.588 17.4556 115.956 17.0676 116.22 16.5636C116.492 16.0596 116.628 15.4756 116.628 14.8116C116.628 14.1396 116.492 13.5556 116.22 13.0596C115.956 12.5556 115.592 12.1676 115.128 11.8956C114.664 11.6236 114.136 11.4876 113.544 11.4876C112.952 11.4876 112.424 11.6236 111.96 11.8956C111.496 12.1676 111.128 12.5556 110.856 13.0596C110.592 13.5556 110.46 14.1396 110.46 14.8116C110.46 15.4756 110.592 16.0596 110.856 16.5636C111.128 17.0676 111.496 17.4556 111.96 17.7276C112.432 17.9996 112.96 18.1356 113.544 18.1356Z" fill="white"/>
<path d="M125.762 18.9996H124.67L120.278 12.3396V18.9996H119.186V10.6236H120.278L124.67 17.2716V10.6236H125.762V18.9996Z" fill="white"/>
<path d="M79.0919 32.0696C78.8399 31.5843 78.4899 31.2203 78.0419 30.9776C77.5939 30.7256 77.0759 30.5996 76.4879 30.5996C75.8439 30.5996 75.2699 30.7443 74.7659 31.0336C74.2619 31.323 73.8653 31.7336 73.5759 32.2656C73.2959 32.7976 73.1559 33.4136 73.1559 34.1136C73.1559 34.8136 73.2959 35.4343 73.5759 35.9756C73.8653 36.5076 74.2619 36.9183 74.7659 37.2076C75.2699 37.497 75.8439 37.6416 76.4879 37.6416C77.3559 37.6416 78.0606 37.399 78.6019 36.9136C79.1433 36.4283 79.4746 35.7703 79.5959 34.9396H75.9419V33.6656H81.3039V34.9116C81.2013 35.6676 80.9306 36.363 80.4919 36.9976C80.0626 37.6323 79.4979 38.141 78.7979 38.5236C78.1073 38.897 77.3373 39.0836 76.4879 39.0836C75.5733 39.0836 74.7379 38.8736 73.9819 38.4536C73.2259 38.0243 72.6239 37.4316 72.1759 36.6756C71.7373 35.9196 71.5179 35.0656 71.5179 34.1136C71.5179 33.1616 71.7373 32.3076 72.1759 31.5516C72.6239 30.7956 73.2259 30.2076 73.9819 29.7876C74.7473 29.3583 75.5826 29.1436 76.4879 29.1436C77.5239 29.1436 78.4433 29.4003 79.2459 29.9136C80.0579 30.4176 80.6459 31.1363 81.0099 32.0696H79.0919Z" fill="white"/>
<path d="M86.2241 39.1256C85.4961 39.1256 84.8381 38.9623 84.2501 38.6356C83.6621 38.2996 83.2001 37.833 82.8641 37.2356C82.5281 36.629 82.3601 35.929 82.3601 35.1356C82.3601 34.3516 82.5327 33.6563 82.8781 33.0496C83.2234 32.443 83.6947 31.9763 84.2921 31.6496C84.8894 31.323 85.5567 31.1596 86.2941 31.1596C87.0314 31.1596 87.6987 31.323 88.2961 31.6496C88.8934 31.9763 89.3647 32.443 89.7101 33.0496C90.0554 33.6563 90.2281 34.3516 90.2281 35.1356C90.2281 35.9196 90.0507 36.615 89.6961 37.2216C89.3414 37.8283 88.8561 38.2996 88.2401 38.6356C87.6334 38.9623 86.9614 39.1256 86.2241 39.1256ZM86.2241 37.7396C86.6347 37.7396 87.0174 37.6416 87.3721 37.4456C87.7361 37.2496 88.0301 36.9556 88.2541 36.5636C88.4781 36.1716 88.5901 35.6956 88.5901 35.1356C88.5901 34.5756 88.4827 34.1043 88.2681 33.7216C88.0534 33.3296 87.7687 33.0356 87.4141 32.8396C87.0594 32.6436 86.6767 32.5456 86.2661 32.5456C85.8554 32.5456 85.4727 32.6436 85.1181 32.8396C84.7727 33.0356 84.4974 33.3296 84.2921 33.7216C84.0867 34.1043 83.9841 34.5756 83.9841 35.1356C83.9841 35.9663 84.1941 36.6103 84.6141 37.0676C85.0434 37.5156 85.5801 37.7396 86.2241 37.7396Z" fill="white"/>
<path d="M95.1518 39.1256C94.4238 39.1256 93.7658 38.9623 93.1778 38.6356C92.5898 38.2996 92.1278 37.833 91.7918 37.2356C91.4558 36.629 91.2878 35.929 91.2878 35.1356C91.2878 34.3516 91.4605 33.6563 91.8058 33.0496C92.1511 32.443 92.6225 31.9763 93.2198 31.6496C93.8171 31.323 94.4845 31.1596 95.2218 31.1596C95.9591 31.1596 96.6265 31.323 97.2238 31.6496C97.8211 31.9763 98.2925 32.443 98.6378 33.0496C98.9831 33.6563 99.1558 34.3516 99.1558 35.1356C99.1558 35.9196 98.9785 36.615 98.6238 37.2216C98.2691 37.8283 97.7838 38.2996 97.1678 38.6356C96.5611 38.9623 95.8891 39.1256 95.1518 39.1256ZM95.1518 37.7396C95.5625 37.7396 95.9451 37.6416 96.2998 37.4456C96.6638 37.2496 96.9578 36.9556 97.1818 36.5636C97.4058 36.1716 97.5178 35.6956 97.5178 35.1356C97.5178 34.5756 97.4105 34.1043 97.1958 33.7216C96.9811 33.3296 96.6965 33.0356 96.3418 32.8396C95.9871 32.6436 95.6045 32.5456 95.1938 32.5456C94.7831 32.5456 94.4005 32.6436 94.0458 32.8396C93.7005 33.0356 93.4251 33.3296 93.2198 33.7216C93.0145 34.1043 92.9118 34.5756 92.9118 35.1356C92.9118 35.9663 93.1218 36.6103 93.5418 37.0676C93.9711 37.5156 94.5078 37.7396 95.1518 37.7396Z" fill="white"/>
<path d="M103.842 31.1596C104.439 31.1596 104.966 31.281 105.424 31.5236C105.89 31.757 106.254 32.051 106.516 32.4056V31.2856H108.126V39.1256C108.126 39.835 107.976 40.465 107.678 41.0156C107.379 41.5756 106.945 42.0143 106.376 42.3316C105.816 42.649 105.144 42.8076 104.36 42.8076C103.314 42.8076 102.446 42.5603 101.756 42.0656C101.065 41.5803 100.673 40.9176 100.58 40.0776H102.162C102.283 40.479 102.54 40.801 102.932 41.0436C103.333 41.2956 103.809 41.4216 104.36 41.4216C105.004 41.4216 105.522 41.2256 105.914 40.8336C106.315 40.4416 106.516 39.8723 106.516 39.1256V37.8376C106.245 38.2016 105.876 38.5096 105.41 38.7616C104.952 39.0043 104.43 39.1256 103.842 39.1256C103.17 39.1256 102.554 38.9576 101.994 38.6216C101.443 38.2763 101.004 37.8003 100.678 37.1936C100.36 36.5776 100.202 35.8823 100.202 35.1076C100.202 34.333 100.36 33.647 100.678 33.0496C101.004 32.4523 101.443 31.9903 101.994 31.6636C102.554 31.3276 103.17 31.1596 103.842 31.1596ZM106.516 35.1356C106.516 34.6036 106.404 34.1416 106.18 33.7496C105.965 33.3576 105.68 33.059 105.326 32.8536C104.971 32.6483 104.588 32.5456 104.178 32.5456C103.767 32.5456 103.384 32.6483 103.03 32.8536C102.675 33.0496 102.386 33.3436 102.162 33.7356C101.947 34.1183 101.84 34.5756 101.84 35.1076C101.84 35.6396 101.947 36.1063 102.162 36.5076C102.386 36.909 102.675 37.217 103.03 37.4316C103.394 37.637 103.776 37.7396 104.178 37.7396C104.588 37.7396 104.971 37.637 105.326 37.4316C105.68 37.2263 105.965 36.9276 106.18 36.5356C106.404 36.1343 106.516 35.6676 106.516 35.1356Z" fill="white"/>
<path d="M111.818 28.6396V38.9996H110.222V28.6396H111.818Z" fill="white"/>
<path d="M120.983 34.9536C120.983 35.243 120.965 35.5043 120.927 35.7376H115.033C115.08 36.3536 115.309 36.8483 115.719 37.2216C116.13 37.595 116.634 37.7816 117.231 37.7816C118.09 37.7816 118.697 37.4223 119.051 36.7036H120.773C120.54 37.413 120.115 37.9963 119.499 38.4536C118.893 38.9016 118.137 39.1256 117.231 39.1256C116.494 39.1256 115.831 38.9623 115.243 38.6356C114.665 38.2996 114.207 37.833 113.871 37.2356C113.545 36.629 113.381 35.929 113.381 35.1356C113.381 34.3423 113.54 33.647 113.857 33.0496C114.184 32.443 114.637 31.9763 115.215 31.6496C115.803 31.323 116.475 31.1596 117.231 31.1596C117.959 31.1596 118.608 31.3183 119.177 31.6356C119.747 31.953 120.19 32.401 120.507 32.9796C120.825 33.549 120.983 34.207 120.983 34.9536ZM119.317 34.4496C119.308 33.8616 119.098 33.3903 118.687 33.0356C118.277 32.681 117.768 32.5036 117.161 32.5036C116.611 32.5036 116.139 32.681 115.747 33.0356C115.355 33.381 115.122 33.8523 115.047 34.4496H119.317Z" fill="white"/>
<path d="M132.995 32.1676C132.995 32.6623 132.878 33.129 132.645 33.5676C132.411 34.0063 132.038 34.3656 131.525 34.6456C131.011 34.9163 130.353 35.0516 129.551 35.0516H127.787V38.9996H126.191V29.2696H129.551C130.297 29.2696 130.927 29.4003 131.441 29.6616C131.963 29.9136 132.351 30.259 132.603 30.6976C132.864 31.1363 132.995 31.6263 132.995 32.1676ZM129.551 33.7496C130.157 33.7496 130.61 33.6143 130.909 33.3436C131.207 33.0636 131.357 32.6716 131.357 32.1676C131.357 31.1036 130.755 30.5716 129.551 30.5716H127.787V33.7496H129.551Z" fill="white"/>
<path d="M136.113 28.6396V38.9996H134.517V28.6396H136.113Z" fill="white"/>
<path d="M137.676 35.1076C137.676 34.333 137.835 33.647 138.152 33.0496C138.479 32.4523 138.917 31.9903 139.468 31.6636C140.028 31.3276 140.644 31.1596 141.316 31.1596C141.923 31.1596 142.45 31.281 142.898 31.5236C143.355 31.757 143.719 32.051 143.99 32.4056V31.2856H145.6V38.9996H143.99V37.8516C143.719 38.2156 143.351 38.519 142.884 38.7616C142.417 39.0043 141.885 39.1256 141.288 39.1256C140.625 39.1256 140.019 38.9576 139.468 38.6216C138.917 38.2763 138.479 37.8003 138.152 37.1936C137.835 36.5776 137.676 35.8823 137.676 35.1076ZM143.99 35.1356C143.99 34.6036 143.878 34.1416 143.654 33.7496C143.439 33.3576 143.155 33.059 142.8 32.8536C142.445 32.6483 142.063 32.5456 141.652 32.5456C141.241 32.5456 140.859 32.6483 140.504 32.8536C140.149 33.0496 139.86 33.3436 139.636 33.7356C139.421 34.1183 139.314 34.5756 139.314 35.1076C139.314 35.6396 139.421 36.1063 139.636 36.5076C139.86 36.909 140.149 37.217 140.504 37.4316C140.868 37.637 141.251 37.7396 141.652 37.7396C142.063 37.7396 142.445 37.637 142.8 37.4316C143.155 37.2263 143.439 36.9276 143.654 36.5356C143.878 36.1343 143.99 35.6676 143.99 35.1356Z" fill="white"/>
<path d="M154.64 31.2856L149.908 42.6256H148.256L149.824 38.8736L146.786 31.2856H148.564L150.734 37.1656L152.988 31.2856H154.64Z" fill="white"/>
<path d="M24.5289 7.40079C23.653 6.91249 22.6091 6.86883 21.6987 7.27533L36.9636 21.4421L41.9548 16.7984L24.5289 7.40079ZM20.2962 8.58648C20.1036 8.96408 20 9.38412 20 9.81645V35.7307C20 36.1649 20.1043 36.5788 20.2988 36.9484L35.5578 22.7502L20.2962 8.58648ZM36.9657 24.0564L21.7253 38.2374C22.1297 38.4108 22.5601 38.4865 22.9897 38.4865C23.5203 38.4865 24.0496 38.369 24.529 38.1021L41.9582 28.6903L36.9657 24.0564ZM48.5915 20.3776C48.5856 20.3739 48.5789 20.3702 48.573 20.3671L43.7345 17.7578L38.3709 22.7484L43.7379 27.7291C43.7379 27.7291 48.5856 25.1117 48.5915 25.1087C49.4914 24.6025 50.0286 23.7182 50.0286 22.7428C50.0286 21.7675 49.4914 20.8831 48.5915 20.3776Z" fill="white"/>
</svg>
