<svg width="24" height="18" viewBox="0 0 24 18" fill="none" xmlns="http://www.w3.org/2000/svg">
<path d="M23.6731 7.75748L16.5311 0.339444C16.0954 -0.113148 15.3887 -0.113148 14.9529 0.339444C14.5171 0.79213 14.5171 1.52596 14.9529 1.97864L20.1899 7.41801H1.11594C0.499672 7.41801 0 7.93699 0 8.57708C0 9.21707 0.499672 9.73614 1.11594 9.73614H20.1899L14.9531 15.1755C14.5173 15.6282 14.5173 16.362 14.9531 16.8147C15.1709 17.0409 15.4566 17.1542 15.7422 17.1542C16.0278 17.1542 16.3134 17.0409 16.5313 16.8147L23.6731 9.39668C24.109 8.94399 24.109 8.21016 23.6731 7.75748Z" fill="white"/>
</svg>
