<svg width="202" height="169" viewBox="0 0 202 169" fill="none" xmlns="http://www.w3.org/2000/svg">
<path d="M188.373 31.495C191.336 28.5271 193.171 24.4373 193.171 19.9281V16.8041C193.171 7.76028 185.794 0.40271 176.725 0.40271C167.657 0.40271 160.28 7.76028 160.28 16.8041V19.9281C160.28 24.4381 162.115 28.5279 165.079 31.4962C158.652 35.0162 153.984 41.3502 152.764 48.8257H134.828C128.35 48.8257 123.081 54.0812 123.081 60.541C123.081 61.9101 123.319 63.2238 123.754 64.4461H77.7684C78.203 63.2238 78.4419 61.9101 78.4419 60.541C78.4419 54.0812 73.1722 48.8257 66.6949 48.8257H48.7587C47.5382 41.3502 42.8707 35.0158 36.4439 31.4962C39.4077 28.5279 41.2429 24.4381 41.2429 19.9281V16.8041C41.2429 7.76028 33.8654 0.40271 24.7971 0.40271C15.7288 0.40271 8.35125 7.76028 8.35125 16.8041V19.9281C8.35125 24.4373 10.1861 28.5271 13.1491 31.495C5.62946 35.6137 0.519897 43.5875 0.519897 52.7308V91.7817V96.533C0.519897 108.771 10.5029 118.727 22.7739 118.727H53.7731V156.02C53.7731 157.605 54.0785 159.119 54.6279 160.511H39.1547C36.9925 160.511 35.239 162.26 35.239 164.416C35.239 166.573 36.9925 168.321 39.1547 168.321H179.205C181.367 168.321 183.121 166.573 183.121 164.416C183.121 162.26 181.367 160.511 179.205 160.511H146.895C147.444 159.119 147.749 157.605 147.749 156.02V151.529C147.749 149.373 145.996 147.624 143.834 147.624C141.671 147.624 139.918 149.373 139.918 151.529V156.02C139.918 158.496 137.898 160.511 135.415 160.511C132.932 160.511 130.912 158.496 130.912 156.02V106.719C130.912 100.636 135.874 95.6867 141.974 95.6867H156.364H159.496H193.171V96.533C193.171 104.464 186.701 110.917 178.749 110.917H143.834C141.671 110.917 139.918 112.665 139.918 114.822V121.07C139.918 123.226 141.671 124.975 143.834 124.975C145.996 124.975 147.749 123.226 147.749 121.07V118.727H178.749C191.02 118.727 201.003 108.771 201.003 96.533V91.7817V52.7308C201.003 43.5875 195.893 35.6137 188.373 31.495ZM168.111 16.8041C168.111 12.0668 171.975 8.21288 176.725 8.21288C181.476 8.21288 185.34 12.0668 185.34 16.8041V19.9281C185.34 24.6654 181.476 28.5193 176.725 28.5193C171.975 28.5193 168.111 24.6654 168.111 19.9281V16.8041ZM16.1826 16.8041C16.1826 12.0668 20.047 8.21288 24.7971 8.21288C29.5472 8.21288 33.4116 12.0668 33.4116 16.8041V19.9281C33.4116 24.6654 29.5472 28.5193 24.7971 28.5193C20.047 28.5193 16.1826 24.6654 16.1826 19.9281V16.8041ZM8.35125 52.7308C8.35125 43.687 15.7288 36.3295 24.7971 36.3295C33.8654 36.3295 41.2429 43.687 41.2429 52.7308C41.2429 54.8872 42.9964 56.6359 45.1586 56.6359H66.6949C68.854 56.6359 70.6105 58.3877 70.6105 60.541C70.6105 62.6943 68.854 64.4461 66.6949 64.4461H43.8919C37.666 64.4461 31.9722 61.0459 29.0319 55.5726C28.0111 53.6716 25.6374 52.9558 23.7313 53.9746C21.8251 54.9926 21.1077 57.3595 22.129 59.2609C26.0489 66.5583 33.3117 71.3393 41.4618 72.1375C41.3201 72.5413 41.2429 72.976 41.2429 73.4278V87.8766H8.35125V52.7308ZM56.6637 87.8766H49.0743V73.4278C49.0743 73.0197 49.0117 72.6261 48.895 72.2562H56.6637C55.3265 74.5556 54.5563 77.2223 54.5563 80.0664C54.5563 82.9105 55.3261 85.5773 56.6637 87.8766ZM70.6105 156.02C70.6105 158.496 68.5904 160.511 66.1075 160.511C63.6246 160.511 61.6045 158.496 61.6045 156.02V114.822C61.6045 112.665 59.851 110.917 57.6888 110.917H22.7739C14.8211 110.917 8.35125 104.464 8.35125 96.533V95.6867H42.0261H45.1586H59.5487C65.6482 95.6867 70.6105 100.636 70.6105 106.719V156.02ZM89.0142 160.511H77.5871C78.1369 159.119 78.4419 157.605 78.4419 156.02V106.719C78.4419 102.601 77.107 98.7905 74.8508 95.6867H89.0142V160.511ZM104.677 160.511H96.8456V95.6867H104.677V160.511ZM123.935 160.511H112.508V95.6867H126.672C124.416 98.7905 123.081 102.601 123.081 106.719V156.02C123.081 157.605 123.386 159.119 123.935 160.511ZM131.304 87.8766H70.219C65.9008 87.8766 62.3876 84.3729 62.3876 80.0664C62.3876 75.7599 65.9008 72.2562 70.219 72.2562H131.304C135.622 72.2562 139.135 75.7599 139.135 80.0664C139.135 84.3729 135.622 87.8766 131.304 87.8766ZM152.448 73.4278V87.8766H144.859C146.196 85.5773 146.966 82.9105 146.966 80.0664C146.966 77.2223 146.196 74.5556 144.859 72.2562H152.628C152.511 72.6261 152.448 73.0197 152.448 73.4278ZM193.171 87.8766H160.28V73.4278C160.28 72.976 160.202 72.5413 160.061 72.1375C168.211 71.3393 175.474 66.5583 179.394 59.2609C180.415 57.3595 179.697 54.9926 177.791 53.9746C175.884 52.9561 173.512 53.6723 172.491 55.5726C169.55 61.0459 163.857 64.4461 157.631 64.4461H134.828C132.669 64.4461 130.912 62.6943 130.912 60.541C130.912 58.3877 132.669 56.6359 134.828 56.6359H156.364C158.526 56.6359 160.28 54.8872 160.28 52.7308C160.28 43.687 167.657 36.3295 176.725 36.3295C185.794 36.3295 193.171 43.687 193.171 52.7308V87.8766Z" fill="#9B3934"/>
</svg>
