<svg width="32" height="28" viewBox="0 0 32 28" fill="none" xmlns="http://www.w3.org/2000/svg">
<path d="M11.7621 27.7727C10.4132 27.7727 9.02489 27.6543 7.62822 27.417C5.16828 26.9987 2.67812 25.6042 1.97347 25.1867L0.125366 24.0917L2.12625 23.3786C4.31348 22.5992 5.64399 22.1156 7.29101 21.3584C5.64185 20.4929 4.37083 18.936 3.759 16.9233L3.29352 15.3919L3.67523 15.4551C3.31327 15.0597 3.02746 14.6584 2.80591 14.2935C2.01798 12.9965 1.60081 11.4117 1.68957 10.0536L1.77715 8.71693L2.51558 9.02692C2.20407 8.38939 1.97895 7.70854 1.84663 6.99493C1.52418 5.25461 1.79404 3.40573 2.60672 1.78895L3.24997 0.509247L4.11025 1.62905C6.83101 5.17105 10.2771 7.27217 14.3672 7.88726C14.2001 6.63928 14.3253 5.43489 14.7396 4.35532C15.222 3.09831 16.0801 2.03241 17.2205 1.27263C18.487 0.429041 20.0229 0.0202684 21.5452 0.121623C23.1603 0.229168 24.6267 0.885008 25.7914 2.01951C26.3601 1.85936 26.7792 1.68837 27.3456 1.45729C27.6864 1.31828 28.0728 1.16045 28.5564 0.979916L30.3383 0.314533L29.1763 3.91121C29.2529 3.90425 29.332 3.89832 29.4145 3.89445L31.3174 3.80109L30.1927 5.46687C30.1282 5.56229 30.1118 5.58937 30.089 5.62676C29.9983 5.7748 29.8855 5.95894 28.3417 8.19287C27.9553 8.75226 27.7623 9.48083 27.7982 10.2447C27.935 13.1477 27.6064 15.7741 26.8209 18.0509C26.0779 20.2048 24.9266 22.053 23.3993 23.5439C21.5093 25.3884 19.0993 26.6513 16.236 27.2971C14.8315 27.6138 13.3232 27.7727 11.7621 27.7727Z" fill="white"/>
</svg>
