<svg width="745" height="775" viewBox="0 0 745 775" fill="none" xmlns="http://www.w3.org/2000/svg">
<path d="M6.30908 3.31984C6.30908 5.50604 5.25757 6.59914 3.15454 6.59914C1.05151 6.59914 0 5.50604 0 3.31984C0 1.68018 1.57727 0.0405273 3.15454 0.0405273C4.73181 0.0405273 6.30908 1.68018 6.30908 3.31984Z" fill="#E5E5E5"/>
<path d="M73.6061 3.31984C73.6061 4.95949 72.0289 6.59914 70.4516 6.59914C68.8743 6.59914 67.2971 4.95949 67.2971 3.31984C67.2971 1.68018 68.3486 0.0405273 70.4516 0.0405273C72.0289 0.0405273 73.6061 1.68018 73.6061 3.31984Z" fill="#E5E5E5"/>
<path d="M140.903 3.31984C140.903 4.95949 139.326 6.59914 137.749 6.59914C136.171 6.59914 134.594 4.95949 134.594 3.31984C134.594 1.68018 136.171 0.0405273 137.749 0.0405273C139.326 0.0405273 140.903 1.68018 140.903 3.31984Z" fill="#E5E5E5"/>
<path d="M208.201 3.31984C208.201 4.95949 206.623 6.59914 205.046 6.59914C203.469 6.59914 201.891 4.95949 201.891 3.31984C201.891 1.68018 203.469 0.0405273 205.046 0.0405273C206.623 0.0405273 208.201 1.68018 208.201 3.31984Z" fill="#E5E5E5"/>
<path d="M274.972 3.31984C274.972 4.95949 273.394 6.59914 271.817 6.59914C270.24 6.59914 268.663 4.95949 268.663 3.31984C268.663 1.68018 270.24 0.0405273 271.817 0.0405273C273.394 0.0405273 274.972 1.68018 274.972 3.31984Z" fill="#E5E5E5"/>
<path d="M342.269 3.31984C342.269 4.95949 340.692 6.59914 339.114 6.59914C337.537 6.59914 335.96 5.50604 335.96 3.31984C335.96 1.68018 337.537 0.0405273 339.114 0.0405273C340.692 0.0405273 342.269 1.68018 342.269 3.31984Z" fill="#E5E5E5"/>
<path d="M409.566 3.31984C409.566 4.95949 407.989 6.59914 406.411 6.59914C404.834 6.59914 402.731 5.50604 402.731 3.31984C402.731 1.68018 404.308 0.0405273 405.886 0.0405273C407.463 0.0405273 409.566 1.68018 409.566 3.31984Z" fill="#E5E5E5"/>
<path d="M476.337 3.31984C476.337 4.95949 474.76 6.59914 473.183 6.59914C471.606 6.59914 470.028 4.95949 470.028 3.31984C470.028 1.68018 471.606 0.0405273 473.183 0.0405273C475.286 0.0405273 476.337 1.68018 476.337 3.31984Z" fill="#E5E5E5"/>
<path d="M543.634 3.31984C543.634 4.95949 542.057 6.59914 540.48 6.59914C538.903 6.59914 537.325 4.95949 537.325 3.31984C537.325 1.68018 538.903 0.0405273 540.48 0.0405273C542.057 0.0405273 543.634 1.68018 543.634 3.31984Z" fill="#E5E5E5"/>
<path d="M610.931 3.31984C610.931 4.95949 609.354 6.59914 607.777 6.59914C606.2 6.59914 604.622 4.95949 604.622 3.31984C604.622 1.68018 606.2 0.0405273 607.777 0.0405273C609.354 0.0405273 610.931 1.68018 610.931 3.31984Z" fill="#E5E5E5"/>
<path d="M678.229 3.31984C678.229 4.95949 676.651 6.59914 675.074 6.59914C673.497 6.59914 671.919 4.95949 671.919 3.31984C671.919 1.68018 673.497 0.0405273 675.074 0.0405273C676.651 0.0405273 678.229 1.68018 678.229 3.31984Z" fill="#E5E5E5"/>
<path d="M745 3.31984C745 4.95949 743.423 6.59914 741.845 6.59914C740.268 6.59914 738.691 4.95949 738.691 3.31984C738.691 1.68018 740.268 0.0405273 741.845 0.0405273C743.949 0.0405273 745 1.68018 745 3.31984Z" fill="#E5E5E5"/>
<path d="M6.30908 73.2786C6.30908 74.9182 5.25757 76.5578 3.15454 76.5578C1.05151 76.5578 0 74.9182 0 73.2786C0 71.6389 1.57727 69.9993 3.15454 69.9993C4.73181 69.9993 6.30908 71.0924 6.30908 73.2786Z" fill="#E5E5E5"/>
<path d="M73.6061 73.2786C73.6061 74.9182 72.0289 76.5578 70.4516 76.5578C68.8743 76.5578 67.2971 74.9182 67.2971 73.2786C67.2971 71.6389 68.8743 69.9993 70.4516 69.9993C72.0289 69.9993 73.6061 71.0924 73.6061 73.2786Z" fill="#E5E5E5"/>
<path d="M140.903 73.2786C140.903 74.9182 139.326 76.5578 137.749 76.5578C136.171 76.5578 134.594 74.9182 134.594 73.2786C134.594 71.6389 136.171 69.9993 137.749 69.9993C139.326 69.9993 140.903 71.0924 140.903 73.2786Z" fill="#E5E5E5"/>
<path d="M208.201 73.2786C208.201 74.9182 206.623 76.5578 205.046 76.5578C203.469 76.5578 201.891 74.9182 201.891 73.2786C201.891 71.6389 203.469 69.9993 205.046 69.9993C206.623 69.9993 208.201 71.0924 208.201 73.2786Z" fill="#E5E5E5"/>
<path d="M274.972 73.2786C274.972 74.9182 273.394 76.5578 271.817 76.5578C270.24 76.5578 268.663 74.9182 268.663 73.2786C268.663 71.6389 270.24 69.9993 271.817 69.9993C273.394 69.9993 274.972 71.0924 274.972 73.2786Z" fill="#E5E5E5"/>
<path d="M342.269 73.2786C342.269 74.9182 340.692 76.5578 339.114 76.5578C337.537 76.5578 335.96 74.9182 335.96 73.2786C335.96 71.6389 337.537 69.9993 339.114 69.9993C340.692 69.9993 342.269 71.0924 342.269 73.2786Z" fill="#E5E5E5"/>
<path d="M409.566 73.2786C409.566 74.9182 407.989 76.5578 406.412 76.5578C404.834 76.5578 403.257 74.9182 403.257 73.2786C403.257 71.6389 404.834 69.9993 406.412 69.9993C407.989 69.9993 409.566 71.0924 409.566 73.2786Z" fill="#E5E5E5"/>
<path d="M476.337 73.2786C476.337 74.9182 474.76 76.5578 473.183 76.5578C471.606 76.5578 470.028 74.9182 470.028 73.2786C470.028 71.6389 471.606 69.9993 473.183 69.9993C475.286 69.9993 476.337 71.0924 476.337 73.2786Z" fill="#E5E5E5"/>
<path d="M543.635 73.2786C543.635 74.9182 542.057 76.5578 540.48 76.5578C538.903 76.5578 537.325 74.9182 537.325 73.2786C537.325 71.6389 538.903 69.9993 540.48 69.9993C542.057 69.9993 543.635 71.0924 543.635 73.2786Z" fill="#E5E5E5"/>
<path d="M610.932 73.2786C610.932 74.9182 609.354 76.5578 607.777 76.5578C606.2 76.5578 604.623 74.9182 604.623 73.2786C604.623 71.6389 606.2 69.9993 607.777 69.9993C609.354 69.9993 610.932 71.0924 610.932 73.2786Z" fill="#E5E5E5"/>
<path d="M678.229 73.2786C678.229 74.9182 676.651 76.5578 675.074 76.5578C673.497 76.5578 671.919 74.9182 671.919 73.2786C671.919 71.6389 673.497 69.9993 675.074 69.9993C676.651 69.9993 678.229 71.0924 678.229 73.2786Z" fill="#E5E5E5"/>
<path d="M745 73.2786C745 74.9182 743.423 76.5578 741.845 76.5578C740.268 76.5578 738.691 74.9182 738.691 73.2786C738.691 71.6389 740.268 69.9993 741.845 69.9993C743.949 69.9993 745 71.0924 745 73.2786Z" fill="#E5E5E5"/>
<path d="M6.30908 143.238C6.30908 144.877 4.73181 146.517 3.15454 146.517C1.57727 146.517 0 144.877 0 143.238C0 141.598 1.57727 139.958 3.15454 139.958C4.73181 139.958 6.30908 141.051 6.30908 143.238Z" fill="#E5E5E5"/>
<path d="M73.6061 143.236C73.6061 144.876 72.0289 146.516 70.4516 146.516C68.8743 146.516 67.2971 144.876 67.2971 143.236C67.2971 141.597 68.8743 139.957 70.4516 139.957C72.0289 139.41 73.6061 141.05 73.6061 143.236Z" fill="#E5E5E5"/>
<path d="M140.903 143.236C140.903 144.876 139.326 146.516 137.749 146.516C136.171 146.516 134.594 144.876 134.594 143.236C134.594 141.597 136.171 139.957 137.749 139.957C139.326 139.41 140.903 141.05 140.903 143.236Z" fill="#E5E5E5"/>
<path d="M208.201 143.236C208.201 144.876 206.623 146.516 205.046 146.516C203.469 146.516 201.891 144.876 201.891 143.236C201.891 141.597 203.469 139.957 205.046 139.957C206.623 139.41 208.201 141.05 208.201 143.236Z" fill="#E5E5E5"/>
<path d="M274.972 143.236C274.972 144.876 273.394 146.516 271.817 146.516C270.24 146.516 268.663 144.876 268.663 143.236C268.663 141.597 270.24 139.957 271.817 139.957C273.394 139.41 274.972 141.05 274.972 143.236Z" fill="#E5E5E5"/>
<path d="M342.269 143.238C342.269 144.877 340.692 146.517 339.114 146.517C337.537 146.517 335.96 144.877 335.96 143.238C335.96 141.598 337.537 139.958 339.114 139.958C340.692 139.958 342.269 141.051 342.269 143.238Z" fill="#E5E5E5"/>
<path d="M409.566 143.238C409.566 144.877 407.989 146.517 406.412 146.517C404.834 146.517 403.257 144.877 403.257 143.238C403.257 141.598 404.834 139.958 406.412 139.958C407.989 139.958 409.566 141.051 409.566 143.238Z" fill="#E5E5E5"/>
<path d="M476.337 143.236C476.337 144.876 474.76 146.516 473.183 146.516C471.606 146.516 470.028 144.876 470.028 143.236C470.028 141.597 471.606 139.957 473.183 139.957C475.286 139.41 476.337 141.05 476.337 143.236Z" fill="#E5E5E5"/>
<path d="M543.635 143.236C543.635 144.876 542.057 146.516 540.48 146.516C538.903 146.516 537.325 144.876 537.325 143.236C537.325 141.597 538.903 139.957 540.48 139.957C542.057 139.41 543.635 141.05 543.635 143.236Z" fill="#E5E5E5"/>
<path d="M610.932 143.236C610.932 144.876 609.354 146.516 607.777 146.516C606.2 146.516 604.623 144.876 604.623 143.236C604.623 141.597 606.2 139.957 607.777 139.957C609.354 139.41 610.932 141.05 610.932 143.236Z" fill="#E5E5E5"/>
<path d="M678.229 143.236C678.229 144.876 676.651 146.516 675.074 146.516C673.497 146.516 671.919 144.876 671.919 143.236C671.919 141.597 673.497 139.957 675.074 139.957C676.651 139.41 678.229 141.05 678.229 143.236Z" fill="#E5E5E5"/>
<path d="M745 143.236C745 144.876 743.423 146.516 741.845 146.516C740.268 146.516 738.691 144.876 738.691 143.236C738.691 141.597 740.268 139.957 741.845 139.957C743.949 139.41 745 141.05 745 143.236Z" fill="#E5E5E5"/>
<path d="M6.30908 212.649C6.30908 214.289 4.73181 215.928 3.15454 215.928C1.57727 215.928 0 214.835 0 212.649C0 211.009 1.57727 209.37 3.15454 209.37C4.73181 209.37 6.30908 211.009 6.30908 212.649Z" fill="#E5E5E5"/>
<path d="M73.6061 212.649C73.6061 214.289 72.0289 215.928 70.4516 215.928C68.8743 215.928 67.2971 214.289 67.2971 212.649C67.2971 211.009 68.8743 209.37 70.4516 209.37C72.0289 209.37 73.6061 211.009 73.6061 212.649Z" fill="#E5E5E5"/>
<path d="M140.903 212.649C140.903 214.289 139.326 215.928 137.749 215.928C136.171 215.928 134.594 214.289 134.594 212.649C134.594 211.009 136.171 209.37 137.749 209.37C139.326 209.37 140.903 211.009 140.903 212.649Z" fill="#E5E5E5"/>
<path d="M208.201 212.649C208.201 214.289 206.623 215.928 205.046 215.928C203.469 215.928 201.891 214.289 201.891 212.649C201.891 211.009 203.469 209.37 205.046 209.37C206.623 209.37 208.201 211.009 208.201 212.649Z" fill="#E5E5E5"/>
<path d="M274.972 212.649C274.972 214.289 273.394 215.928 271.817 215.928C270.24 215.928 268.663 214.289 268.663 212.649C268.663 211.009 270.24 209.37 271.817 209.37C273.394 209.37 274.972 211.009 274.972 212.649Z" fill="#E5E5E5"/>
<path d="M342.269 212.649C342.269 214.289 340.692 215.928 339.114 215.928C337.537 215.928 335.96 214.289 335.96 212.649C335.96 211.009 337.537 209.37 339.114 209.37C340.692 209.37 342.269 211.009 342.269 212.649Z" fill="#E5E5E5"/>
<path d="M409.566 212.649C409.566 214.289 407.989 215.928 406.412 215.928C404.834 215.928 403.257 214.289 403.257 212.649C403.257 211.009 404.834 209.37 406.412 209.37C407.989 209.37 409.566 211.009 409.566 212.649Z" fill="#E5E5E5"/>
<path d="M476.337 212.649C476.337 214.289 474.76 215.928 473.183 215.928C471.606 215.928 470.028 214.289 470.028 212.649C470.028 211.009 471.606 209.37 473.183 209.37C475.286 209.37 476.337 211.009 476.337 212.649Z" fill="#E5E5E5"/>
<path d="M543.635 212.649C543.635 214.289 542.057 215.928 540.48 215.928C538.903 215.928 537.325 214.289 537.325 212.649C537.325 211.009 538.903 209.37 540.48 209.37C542.057 209.37 543.635 211.009 543.635 212.649Z" fill="#E5E5E5"/>
<path d="M610.932 212.649C610.932 214.289 609.354 215.928 607.777 215.928C606.2 215.928 604.623 214.289 604.623 212.649C604.623 211.009 606.2 209.37 607.777 209.37C609.354 209.37 610.932 211.009 610.932 212.649Z" fill="#E5E5E5"/>
<path d="M678.229 212.649C678.229 214.289 676.651 215.928 675.074 215.928C673.497 215.928 671.919 214.289 671.919 212.649C671.919 211.009 673.497 209.37 675.074 209.37C676.651 209.37 678.229 211.009 678.229 212.649Z" fill="#E5E5E5"/>
<path d="M745 212.649C745 214.289 743.423 215.928 741.845 215.928C740.268 215.928 738.691 214.289 738.691 212.649C738.691 211.009 740.268 209.37 741.845 209.37C743.949 209.37 745 211.009 745 212.649Z" fill="#E5E5E5"/>
<path d="M6.30908 282.608C6.30908 284.248 4.73181 285.887 3.15454 285.887C1.57727 285.887 0 284.248 0 282.608C0 280.968 1.57727 279.329 3.15454 279.329C4.73181 279.329 6.30908 280.968 6.30908 282.608Z" fill="#E5E5E5"/>
<path d="M73.6061 282.608C73.6061 284.248 72.0289 285.887 70.4516 285.887C68.8743 285.887 67.2971 284.248 67.2971 282.608C67.2971 280.968 68.8743 279.329 70.4516 279.329C72.0289 279.329 73.6061 280.968 73.6061 282.608Z" fill="#E5E5E5"/>
<path d="M140.903 282.608C140.903 284.248 139.326 285.887 137.749 285.887C136.171 285.887 134.594 284.248 134.594 282.608C134.594 280.968 136.171 279.329 137.749 279.329C139.326 279.329 140.903 280.968 140.903 282.608Z" fill="#E5E5E5"/>
<path d="M208.201 282.608C208.201 284.248 206.623 285.887 205.046 285.887C203.469 285.887 201.891 284.248 201.891 282.608C201.891 280.968 203.469 279.329 205.046 279.329C206.623 279.329 208.201 280.968 208.201 282.608Z" fill="#E5E5E5"/>
<path d="M274.972 282.608C274.972 284.248 273.394 285.887 271.817 285.887C270.24 285.887 268.663 284.248 268.663 282.608C268.663 280.968 270.24 279.329 271.817 279.329C273.394 279.329 274.972 280.968 274.972 282.608Z" fill="#E5E5E5"/>
<path d="M342.269 282.608C342.269 284.248 340.692 285.887 339.114 285.887C337.537 285.887 335.96 284.248 335.96 282.608C335.96 280.968 337.537 279.329 339.114 279.329C340.692 279.329 342.269 280.968 342.269 282.608Z" fill="#E5E5E5"/>
<path d="M409.566 282.608C409.566 284.248 407.989 285.887 406.412 285.887C404.834 285.887 403.257 284.248 403.257 282.608C403.257 280.968 404.834 279.329 406.412 279.329C407.989 279.329 409.566 280.968 409.566 282.608Z" fill="#E5E5E5"/>
<path d="M476.337 282.608C476.337 284.248 474.76 285.887 473.183 285.887C471.606 285.887 470.028 284.248 470.028 282.608C470.028 280.968 471.606 279.329 473.183 279.329C475.286 279.329 476.337 280.968 476.337 282.608Z" fill="#E5E5E5"/>
<path d="M543.635 282.608C543.635 284.248 542.057 285.887 540.48 285.887C538.903 285.887 537.325 284.248 537.325 282.608C537.325 280.968 538.903 279.329 540.48 279.329C542.057 279.329 543.635 280.968 543.635 282.608Z" fill="#E5E5E5"/>
<path d="M610.932 282.608C610.932 284.248 609.354 285.887 607.777 285.887C606.2 285.887 604.623 284.248 604.623 282.608C604.623 280.968 606.2 279.329 607.777 279.329C609.354 279.329 610.932 280.968 610.932 282.608Z" fill="#E5E5E5"/>
<path d="M678.229 282.608C678.229 284.248 676.651 285.887 675.074 285.887C673.497 285.887 671.919 284.248 671.919 282.608C671.919 280.968 673.497 279.329 675.074 279.329C676.651 279.329 678.229 280.968 678.229 282.608Z" fill="#E5E5E5"/>
<path d="M745 282.608C745 284.248 743.423 285.887 741.845 285.887C740.268 285.887 738.691 284.248 738.691 282.608C738.691 280.968 740.268 279.329 741.845 279.329C743.949 279.329 745 280.968 745 282.608Z" fill="#E5E5E5"/>
<path d="M6.30908 352.565C6.30908 354.205 4.73181 355.845 3.15454 355.845C1.57727 355.845 0 354.205 0 352.565C0 350.926 1.57727 349.286 3.15454 349.286C4.73181 349.286 6.30908 350.379 6.30908 352.565Z" fill="#E5E5E5"/>
<path d="M73.6061 352.565C73.6061 354.205 72.0289 355.845 70.4516 355.845C68.8743 355.845 67.2971 354.205 67.2971 352.565C67.2971 350.926 68.8743 349.286 70.4516 349.286C72.0289 349.286 73.6061 350.379 73.6061 352.565Z" fill="#E5E5E5"/>
<path d="M140.903 352.565C140.903 354.205 139.326 355.845 137.749 355.845C136.171 355.845 134.594 354.205 134.594 352.565C134.594 350.926 136.171 349.286 137.749 349.286C139.326 349.286 140.903 350.379 140.903 352.565Z" fill="#E5E5E5"/>
<path d="M208.201 352.565C208.201 354.205 206.623 355.845 205.046 355.845C203.469 355.845 201.891 354.205 201.891 352.565C201.891 350.926 203.469 349.286 205.046 349.286C206.623 349.286 208.201 350.379 208.201 352.565Z" fill="#E5E5E5"/>
<path d="M274.972 352.565C274.972 354.205 273.394 355.845 271.817 355.845C270.24 355.845 268.663 354.205 268.663 352.565C268.663 350.926 270.24 349.286 271.817 349.286C273.394 349.286 274.972 350.379 274.972 352.565Z" fill="#E5E5E5"/>
<path d="M342.269 352.565C342.269 354.205 340.692 355.845 339.114 355.845C337.537 355.845 335.96 354.205 335.96 352.565C335.96 350.926 337.537 349.286 339.114 349.286C340.692 349.286 342.269 350.379 342.269 352.565Z" fill="#E5E5E5"/>
<path d="M409.566 352.565C409.566 354.205 407.989 355.845 406.412 355.845C404.834 355.845 403.257 354.205 403.257 352.565C403.257 350.926 404.834 349.286 406.412 349.286C407.989 349.286 409.566 350.379 409.566 352.565Z" fill="#E5E5E5"/>
<path d="M476.337 352.565C476.337 354.205 474.76 355.845 473.183 355.845C471.606 355.845 470.028 354.205 470.028 352.565C470.028 350.926 471.606 349.286 473.183 349.286C475.286 349.286 476.337 350.379 476.337 352.565Z" fill="#E5E5E5"/>
<path d="M543.635 352.565C543.635 354.205 542.057 355.845 540.48 355.845C538.903 355.845 537.325 354.205 537.325 352.565C537.325 350.926 538.903 349.286 540.48 349.286C542.057 349.286 543.635 350.379 543.635 352.565Z" fill="#E5E5E5"/>
<path d="M610.932 352.565C610.932 354.205 609.354 355.845 607.777 355.845C606.2 355.845 604.623 354.205 604.623 352.565C604.623 350.926 606.2 349.286 607.777 349.286C609.354 349.286 610.932 350.379 610.932 352.565Z" fill="#E5E5E5"/>
<path d="M678.229 352.565C678.229 354.205 676.651 355.845 675.074 355.845C673.497 355.845 671.919 354.205 671.919 352.565C671.919 350.926 673.497 349.286 675.074 349.286C676.651 349.286 678.229 350.379 678.229 352.565Z" fill="#E5E5E5"/>
<path d="M745 352.565C745 354.205 743.423 355.845 741.845 355.845C740.268 355.845 738.691 354.205 738.691 352.565C738.691 350.926 740.268 349.286 741.845 349.286C743.949 349.286 745 350.379 745 352.565Z" fill="#E5E5E5"/>
<path d="M6.30908 422.525C6.30908 424.164 4.73181 425.804 3.15454 425.804C1.57727 425.804 0 424.164 0 422.525C0 420.885 1.57727 419.245 3.15454 419.245C4.73181 419.245 6.30908 420.338 6.30908 422.525Z" fill="#E5E5E5"/>
<path d="M73.6061 422.525C73.6061 424.165 72.0289 425.804 70.4516 425.804C68.8743 425.804 67.2971 424.165 67.2971 422.525C67.2971 420.885 68.8743 419.246 70.4516 419.246C72.0289 418.699 73.6061 420.339 73.6061 422.525Z" fill="#E5E5E5"/>
<path d="M140.903 422.525C140.903 424.165 139.326 425.804 137.749 425.804C136.171 425.804 134.594 424.165 134.594 422.525C134.594 420.885 136.171 419.246 137.749 419.246C139.326 418.699 140.903 420.339 140.903 422.525Z" fill="#E5E5E5"/>
<path d="M208.201 422.525C208.201 424.165 206.623 425.804 205.046 425.804C203.469 425.804 201.891 424.165 201.891 422.525C201.891 420.885 203.469 419.246 205.046 419.246C206.623 418.699 208.201 420.339 208.201 422.525Z" fill="#E5E5E5"/>
<path d="M274.972 422.525C274.972 424.165 273.394 425.804 271.817 425.804C270.24 425.804 268.663 424.165 268.663 422.525C268.663 420.885 270.24 419.246 271.817 419.246C273.394 418.699 274.972 420.339 274.972 422.525Z" fill="#E5E5E5"/>
<path d="M342.269 422.525C342.269 424.164 340.692 425.804 339.114 425.804C337.537 425.804 335.96 424.164 335.96 422.525C335.96 420.885 337.537 419.245 339.114 419.245C340.692 419.245 342.269 420.338 342.269 422.525Z" fill="#E5E5E5"/>
<path d="M409.566 422.525C409.566 424.164 407.989 425.804 406.412 425.804C404.834 425.804 403.257 424.164 403.257 422.525C403.257 420.885 404.834 419.245 406.412 419.245C407.989 419.245 409.566 420.338 409.566 422.525Z" fill="#E5E5E5"/>
<path d="M476.337 422.525C476.337 424.165 474.76 425.804 473.183 425.804C471.606 425.804 470.028 424.165 470.028 422.525C470.028 420.885 471.606 419.246 473.183 419.246C475.286 418.699 476.337 420.339 476.337 422.525Z" fill="#E5E5E5"/>
<path d="M543.635 422.525C543.635 424.165 542.057 425.804 540.48 425.804C538.903 425.804 537.325 424.165 537.325 422.525C537.325 420.885 538.903 419.246 540.48 419.246C542.057 418.699 543.635 420.339 543.635 422.525Z" fill="#E5E5E5"/>
<path d="M610.932 422.525C610.932 424.165 609.354 425.804 607.777 425.804C606.2 425.804 604.623 424.165 604.623 422.525C604.623 420.885 606.2 419.246 607.777 419.246C609.354 418.699 610.932 420.339 610.932 422.525Z" fill="#E5E5E5"/>
<path d="M678.229 422.525C678.229 424.165 676.651 425.804 675.074 425.804C673.497 425.804 671.919 424.165 671.919 422.525C671.919 420.885 673.497 419.246 675.074 419.246C676.651 418.699 678.229 420.339 678.229 422.525Z" fill="#E5E5E5"/>
<path d="M745 422.525C745 424.165 743.423 425.804 741.845 425.804C740.268 425.804 738.691 424.165 738.691 422.525C738.691 420.885 740.268 419.246 741.845 419.246C743.949 418.699 745 420.339 745 422.525Z" fill="#E5E5E5"/>
<path d="M6.30908 491.936C6.30908 493.576 4.73181 495.215 3.15454 495.215C1.57727 495.215 0 494.122 0 491.936C0 490.297 1.57727 488.657 3.15454 488.657C4.73181 488.657 6.30908 490.297 6.30908 491.936Z" fill="#E5E5E5"/>
<path d="M73.6061 491.936C73.6061 493.576 72.0289 495.215 70.4516 495.215C68.8743 495.215 67.2971 493.576 67.2971 491.936C67.2971 490.297 68.8743 488.657 70.4516 488.657C72.0289 488.657 73.6061 490.297 73.6061 491.936Z" fill="#E5E5E5"/>
<path d="M140.903 491.936C140.903 493.576 139.326 495.215 137.749 495.215C136.171 495.215 134.594 493.576 134.594 491.936C134.594 490.297 136.171 488.657 137.749 488.657C139.326 488.657 140.903 490.297 140.903 491.936Z" fill="#E5E5E5"/>
<path d="M208.201 491.936C208.201 493.576 206.623 495.215 205.046 495.215C203.469 495.215 201.891 493.576 201.891 491.936C201.891 490.297 203.469 488.657 205.046 488.657C206.623 488.657 208.201 490.297 208.201 491.936Z" fill="#E5E5E5"/>
<path d="M274.972 491.936C274.972 493.576 273.394 495.215 271.817 495.215C270.24 495.215 268.663 493.576 268.663 491.936C268.663 490.297 270.24 488.657 271.817 488.657C273.394 488.657 274.972 490.297 274.972 491.936Z" fill="#E5E5E5"/>
<path d="M342.269 491.936C342.269 493.576 340.692 495.215 339.114 495.215C337.537 495.215 335.96 493.576 335.96 491.936C335.96 490.297 337.537 488.657 339.114 488.657C340.692 488.657 342.269 490.297 342.269 491.936Z" fill="#E5E5E5"/>
<path d="M409.566 491.936C409.566 493.576 407.989 495.215 406.412 495.215C404.834 495.215 403.257 493.576 403.257 491.936C403.257 490.297 404.834 488.657 406.412 488.657C407.989 488.657 409.566 490.297 409.566 491.936Z" fill="#E5E5E5"/>
<path d="M476.337 491.936C476.337 493.576 474.76 495.215 473.183 495.215C471.606 495.215 470.028 493.576 470.028 491.936C470.028 490.297 471.606 488.657 473.183 488.657C475.286 488.657 476.337 490.297 476.337 491.936Z" fill="#E5E5E5"/>
<path d="M543.635 491.936C543.635 493.576 542.057 495.215 540.48 495.215C538.903 495.215 537.325 493.576 537.325 491.936C537.325 490.297 538.903 488.657 540.48 488.657C542.057 488.657 543.635 490.297 543.635 491.936Z" fill="#E5E5E5"/>
<path d="M610.932 491.936C610.932 493.576 609.354 495.215 607.777 495.215C606.2 495.215 604.623 493.576 604.623 491.936C604.623 490.297 606.2 488.657 607.777 488.657C609.354 488.657 610.932 490.297 610.932 491.936Z" fill="#E5E5E5"/>
<path d="M678.229 491.936C678.229 493.576 676.651 495.215 675.074 495.215C673.497 495.215 671.919 493.576 671.919 491.936C671.919 490.297 673.497 488.657 675.074 488.657C676.651 488.657 678.229 490.297 678.229 491.936Z" fill="#E5E5E5"/>
<path d="M745 491.936C745 493.576 743.423 495.215 741.845 495.215C740.268 495.215 738.691 493.576 738.691 491.936C738.691 490.297 740.268 488.657 741.845 488.657C743.949 488.657 745 490.297 745 491.936Z" fill="#E5E5E5"/>
<path d="M6.30908 561.895C6.30908 563.535 4.73181 565.174 3.15454 565.174C1.57727 565.174 0 563.535 0 561.895C0 560.255 1.57727 558.616 3.15454 558.616C4.73181 558.616 6.30908 560.255 6.30908 561.895Z" fill="#E5E5E5"/>
<path d="M73.6061 561.895C73.6061 563.535 72.0289 565.174 70.4516 565.174C68.8743 565.174 67.2971 563.535 67.2971 561.895C67.2971 560.255 68.8743 558.616 70.4516 558.616C72.0289 558.616 73.6061 560.255 73.6061 561.895Z" fill="#E5E5E5"/>
<path d="M140.903 561.895C140.903 563.535 139.326 565.174 137.749 565.174C136.171 565.174 134.594 563.535 134.594 561.895C134.594 560.255 136.171 558.616 137.749 558.616C139.326 558.616 140.903 560.255 140.903 561.895Z" fill="#E5E5E5"/>
<path d="M208.201 561.895C208.201 563.535 206.623 565.174 205.046 565.174C203.469 565.174 201.891 563.535 201.891 561.895C201.891 560.255 203.469 558.616 205.046 558.616C206.623 558.616 208.201 560.255 208.201 561.895Z" fill="#E5E5E5"/>
<path d="M274.972 561.895C274.972 563.535 273.394 565.174 271.817 565.174C270.24 565.174 268.663 563.535 268.663 561.895C268.663 560.255 270.24 558.616 271.817 558.616C273.394 558.616 274.972 560.255 274.972 561.895Z" fill="#E5E5E5"/>
<path d="M342.269 561.895C342.269 563.535 340.692 565.174 339.114 565.174C337.537 565.174 335.96 563.535 335.96 561.895C335.96 560.255 337.537 558.616 339.114 558.616C340.692 558.616 342.269 560.255 342.269 561.895Z" fill="#E5E5E5"/>
<path d="M409.566 561.895C409.566 563.535 407.989 565.174 406.412 565.174C404.834 565.174 403.257 563.535 403.257 561.895C403.257 560.255 404.834 558.616 406.412 558.616C407.989 558.616 409.566 560.255 409.566 561.895Z" fill="#E5E5E5"/>
<path d="M476.337 561.895C476.337 563.535 474.76 565.174 473.183 565.174C471.606 565.174 470.028 563.535 470.028 561.895C470.028 560.255 471.606 558.616 473.183 558.616C475.286 558.616 476.337 560.255 476.337 561.895Z" fill="#E5E5E5"/>
<path d="M543.635 561.895C543.635 563.535 542.057 565.174 540.48 565.174C538.903 565.174 537.325 563.535 537.325 561.895C537.325 560.255 538.903 558.616 540.48 558.616C542.057 558.616 543.635 560.255 543.635 561.895Z" fill="#E5E5E5"/>
<path d="M610.932 561.895C610.932 563.535 609.354 565.174 607.777 565.174C606.2 565.174 604.623 563.535 604.623 561.895C604.623 560.255 606.2 558.616 607.777 558.616C609.354 558.616 610.932 560.255 610.932 561.895Z" fill="#E5E5E5"/>
<path d="M678.229 561.895C678.229 563.535 676.651 565.174 675.074 565.174C673.497 565.174 671.919 563.535 671.919 561.895C671.919 560.255 673.497 558.616 675.074 558.616C676.651 558.616 678.229 560.255 678.229 561.895Z" fill="#E5E5E5"/>
<path d="M745 561.895C745 563.535 743.423 565.174 741.845 565.174C740.268 565.174 738.691 563.535 738.691 561.895C738.691 560.255 740.268 558.616 741.845 558.616C743.949 558.616 745 560.255 745 561.895Z" fill="#E5E5E5"/>
<path d="M6.30908 631.854C6.30908 633.493 4.73181 635.133 3.15454 635.133C1.57727 635.133 0 633.493 0 631.854C0 630.214 1.57727 628.574 3.15454 628.574C4.73181 628.574 6.30908 629.668 6.30908 631.854Z" fill="#E5E5E5"/>
<path d="M73.6061 631.854C73.6061 633.493 72.0289 635.133 70.4516 635.133C68.8743 635.133 67.2971 633.493 67.2971 631.854C67.2971 630.214 68.8743 628.574 70.4516 628.574C72.0289 628.574 73.6061 629.668 73.6061 631.854Z" fill="#E5E5E5"/>
<path d="M140.903 631.854C140.903 633.493 139.326 635.133 137.749 635.133C136.171 635.133 134.594 633.493 134.594 631.854C134.594 630.214 136.171 628.574 137.749 628.574C139.326 628.574 140.903 629.668 140.903 631.854Z" fill="#E5E5E5"/>
<path d="M208.201 631.854C208.201 633.493 206.623 635.133 205.046 635.133C203.469 635.133 201.891 633.493 201.891 631.854C201.891 630.214 203.469 628.574 205.046 628.574C206.623 628.574 208.201 629.668 208.201 631.854Z" fill="#E5E5E5"/>
<path d="M274.972 631.854C274.972 633.493 273.394 635.133 271.817 635.133C270.24 635.133 268.663 633.493 268.663 631.854C268.663 630.214 270.24 628.574 271.817 628.574C273.394 628.574 274.972 629.668 274.972 631.854Z" fill="#E5E5E5"/>
<path d="M342.269 631.854C342.269 633.493 340.692 635.133 339.114 635.133C337.537 635.133 335.96 633.493 335.96 631.854C335.96 630.214 337.537 628.574 339.114 628.574C340.692 628.574 342.269 629.668 342.269 631.854Z" fill="#E5E5E5"/>
<path d="M409.566 631.854C409.566 633.493 407.989 635.133 406.412 635.133C404.834 635.133 403.257 633.493 403.257 631.854C403.257 630.214 404.834 628.574 406.412 628.574C407.989 628.574 409.566 629.668 409.566 631.854Z" fill="#E5E5E5"/>
<path d="M476.337 631.854C476.337 633.493 474.76 635.133 473.183 635.133C471.606 635.133 470.028 633.493 470.028 631.854C470.028 630.214 471.606 628.574 473.183 628.574C475.286 628.574 476.337 629.668 476.337 631.854Z" fill="#E5E5E5"/>
<path d="M543.635 631.854C543.635 633.493 542.057 635.133 540.48 635.133C538.903 635.133 537.325 633.493 537.325 631.854C537.325 630.214 538.903 628.574 540.48 628.574C542.057 628.574 543.635 629.668 543.635 631.854Z" fill="#E5E5E5"/>
<path d="M610.932 631.854C610.932 633.493 609.354 635.133 607.777 635.133C606.2 635.133 604.623 633.493 604.623 631.854C604.623 630.214 606.2 628.574 607.777 628.574C609.354 628.574 610.932 629.668 610.932 631.854Z" fill="#E5E5E5"/>
<path d="M678.229 631.854C678.229 633.493 676.651 635.133 675.074 635.133C673.497 635.133 671.919 633.493 671.919 631.854C671.919 630.214 673.497 628.574 675.074 628.574C676.651 628.574 678.229 629.668 678.229 631.854Z" fill="#E5E5E5"/>
<path d="M745 631.854C745 633.493 743.423 635.133 741.845 635.133C740.268 635.133 738.691 633.493 738.691 631.854C738.691 630.214 740.268 628.574 741.845 628.574C743.949 628.574 745 629.668 745 631.854Z" fill="#E5E5E5"/>
<path d="M6.30908 701.265C6.30908 702.905 4.73181 704.545 3.15454 704.545C1.57727 704.545 0 703.452 0 701.265C0 699.626 1.57727 697.986 3.15454 697.986C4.73181 697.986 6.30908 699.626 6.30908 701.265Z" fill="#E5E5E5"/>
<path d="M73.6061 701.265C73.6061 702.905 72.0289 704.545 70.4516 704.545C68.8743 704.545 67.2971 702.905 67.2971 701.265C67.2971 699.626 68.8743 697.986 70.4516 697.986C72.0289 697.986 73.6061 699.626 73.6061 701.265Z" fill="#E5E5E5"/>
<path d="M140.903 701.265C140.903 702.905 139.326 704.545 137.749 704.545C136.171 704.545 134.594 702.905 134.594 701.265C134.594 699.626 136.171 697.986 137.749 697.986C139.326 697.986 140.903 699.626 140.903 701.265Z" fill="#E5E5E5"/>
<path d="M208.201 701.265C208.201 702.905 206.623 704.545 205.046 704.545C203.469 704.545 201.891 702.905 201.891 701.265C201.891 699.626 203.469 697.986 205.046 697.986C206.623 697.986 208.201 699.626 208.201 701.265Z" fill="#E5E5E5"/>
<path d="M274.972 701.265C274.972 702.905 273.394 704.545 271.817 704.545C270.24 704.545 268.663 702.905 268.663 701.265C268.663 699.626 270.24 697.986 271.817 697.986C273.394 697.986 274.972 699.626 274.972 701.265Z" fill="#E5E5E5"/>
<path d="M342.269 701.265C342.269 702.905 340.692 704.545 339.114 704.545C337.537 704.545 335.96 702.905 335.96 701.265C335.96 699.626 337.537 697.986 339.114 697.986C340.692 697.986 342.269 699.626 342.269 701.265Z" fill="#E5E5E5"/>
<path d="M409.566 701.265C409.566 702.905 407.989 704.545 406.412 704.545C404.834 704.545 403.257 702.905 403.257 701.265C403.257 699.626 404.834 697.986 406.412 697.986C407.989 697.986 409.566 699.626 409.566 701.265Z" fill="#E5E5E5"/>
<path d="M476.337 701.265C476.337 702.905 474.76 704.545 473.183 704.545C471.606 704.545 470.028 702.905 470.028 701.265C470.028 699.626 471.606 697.986 473.183 697.986C475.286 697.986 476.337 699.626 476.337 701.265Z" fill="#E5E5E5"/>
<path d="M543.635 701.265C543.635 702.905 542.057 704.545 540.48 704.545C538.903 704.545 537.325 702.905 537.325 701.265C537.325 699.626 538.903 697.986 540.48 697.986C542.057 697.986 543.635 699.626 543.635 701.265Z" fill="#E5E5E5"/>
<path d="M610.932 701.265C610.932 702.905 609.354 704.545 607.777 704.545C606.2 704.545 604.623 702.905 604.623 701.265C604.623 699.626 606.2 697.986 607.777 697.986C609.354 697.986 610.932 699.626 610.932 701.265Z" fill="#E5E5E5"/>
<path d="M678.229 701.265C678.229 702.905 676.651 704.545 675.074 704.545C673.497 704.545 671.919 702.905 671.919 701.265C671.919 699.626 673.497 697.986 675.074 697.986C676.651 697.986 678.229 699.626 678.229 701.265Z" fill="#E5E5E5"/>
<path d="M745 701.265C745 702.905 743.423 704.545 741.845 704.545C740.268 704.545 738.691 702.905 738.691 701.265C738.691 699.626 740.268 697.986 741.845 697.986C743.949 697.986 745 699.626 745 701.265Z" fill="#E5E5E5"/>
<path d="M6.30908 771.224C6.30908 772.864 4.73181 774.503 3.15454 774.503C1.57727 774.503 0 773.41 0 771.224C0 769.584 1.57727 767.945 3.15454 767.945C4.73181 767.945 6.30908 769.584 6.30908 771.224Z" fill="#E5E5E5"/>
<path d="M73.6061 771.224C73.6061 772.864 72.0289 774.503 70.4516 774.503C68.8743 774.503 67.2971 772.864 67.2971 771.224C67.2971 769.584 68.8743 767.945 70.4516 767.945C72.0289 767.945 73.6061 769.584 73.6061 771.224Z" fill="#E5E5E5"/>
<path d="M140.903 771.224C140.903 772.864 139.326 774.503 137.749 774.503C136.171 774.503 134.594 772.864 134.594 771.224C134.594 769.584 136.171 767.945 137.749 767.945C139.326 767.945 140.903 769.584 140.903 771.224Z" fill="#E5E5E5"/>
<path d="M208.201 771.224C208.201 772.864 206.623 774.503 205.046 774.503C203.469 774.503 201.891 772.864 201.891 771.224C201.891 769.584 203.469 767.945 205.046 767.945C206.623 767.945 208.201 769.584 208.201 771.224Z" fill="#E5E5E5"/>
<path d="M274.972 771.224C274.972 772.864 273.394 774.503 271.817 774.503C270.24 774.503 268.663 772.864 268.663 771.224C268.663 769.584 270.24 767.945 271.817 767.945C273.394 767.945 274.972 769.584 274.972 771.224Z" fill="#E5E5E5"/>
<path d="M342.269 771.224C342.269 772.864 340.692 774.503 339.114 774.503C337.537 774.503 335.96 772.864 335.96 771.224C335.96 769.584 337.537 767.945 339.114 767.945C340.692 767.945 342.269 769.584 342.269 771.224Z" fill="#E5E5E5"/>
<path d="M409.566 771.224C409.566 772.864 407.989 774.503 406.412 774.503C404.834 774.503 403.257 772.864 403.257 771.224C403.257 769.584 404.834 767.945 406.412 767.945C407.989 767.945 409.566 769.584 409.566 771.224Z" fill="#E5E5E5"/>
<path d="M476.337 771.224C476.337 772.864 474.76 774.503 473.183 774.503C471.606 774.503 470.028 772.864 470.028 771.224C470.028 769.584 471.606 767.945 473.183 767.945C475.286 767.945 476.337 769.584 476.337 771.224Z" fill="#E5E5E5"/>
<path d="M543.635 771.224C543.635 772.864 542.057 774.503 540.48 774.503C538.903 774.503 537.325 772.864 537.325 771.224C537.325 769.584 538.903 767.945 540.48 767.945C542.057 767.945 543.635 769.584 543.635 771.224Z" fill="#E5E5E5"/>
<path d="M610.932 771.224C610.932 772.864 609.354 774.503 607.777 774.503C606.2 774.503 604.623 772.864 604.623 771.224C604.623 769.584 606.2 767.945 607.777 767.945C609.354 767.945 610.932 769.584 610.932 771.224Z" fill="#E5E5E5"/>
<path d="M678.229 771.224C678.229 772.864 676.651 774.503 675.074 774.503C673.497 774.503 671.919 772.864 671.919 771.224C671.919 769.584 673.497 767.945 675.074 767.945C676.651 767.945 678.229 769.584 678.229 771.224Z" fill="#E5E5E5"/>
<path d="M745 771.224C745 772.864 743.423 774.503 741.845 774.503C740.268 774.503 738.691 772.864 738.691 771.224C738.691 769.584 740.268 767.945 741.845 767.945C743.949 767.945 745 769.584 745 771.224Z" fill="#E5E5E5"/>
</svg>
