<svg width="50" height="316" viewBox="0 0 50 316" fill="none" xmlns="http://www.w3.org/2000/svg">
<circle cx="43.9177" cy="5.89939" r="5.89939" transform="rotate(90 43.9177 5.89939)" fill="#E6E6E6"/>
<circle cx="5.89944" cy="5.89939" r="5.89939" transform="rotate(90 5.89944 5.89939)" fill="#E6E6E6"/>
<circle cx="43.9177" cy="157.973" r="5.89939" transform="rotate(90 43.9177 157.973)" fill="#E6E6E6"/>
<circle cx="5.89944" cy="157.973" r="5.89939" transform="rotate(90 5.89944 157.973)" fill="#E6E6E6"/>
<circle cx="43.9177" cy="310.046" r="5.89939" transform="rotate(90 43.9177 310.046)" fill="#E6E6E6"/>
<circle cx="5.89944" cy="310.046" r="5.89939" transform="rotate(90 5.89944 310.046)" fill="#E6E6E6"/>
<circle cx="43.9177" cy="81.936" r="5.89939" transform="rotate(90 43.9177 81.936)" fill="#E6E6E6"/>
<circle cx="5.89944" cy="81.936" r="5.89939" transform="rotate(90 5.89944 81.936)" fill="#E6E6E6"/>
<circle cx="43.9177" cy="234.009" r="5.89939" transform="rotate(90 43.9177 234.009)" fill="#E6E6E6"/>
<circle cx="5.89944" cy="234.009" r="5.89939" transform="rotate(90 5.89944 234.009)" fill="#E6E6E6"/>
<circle cx="43.9177" cy="43.9177" r="5.89939" transform="rotate(90 43.9177 43.9177)" fill="#E6E6E6"/>
<circle cx="5.89944" cy="43.9177" r="5.89939" transform="rotate(90 5.89944 43.9177)" fill="#E6E6E6"/>
<circle cx="43.9177" cy="195.991" r="5.89939" transform="rotate(90 43.9177 195.991)" fill="#E6E6E6"/>
<circle cx="5.89944" cy="195.991" r="5.89939" transform="rotate(90 5.89944 195.991)" fill="#E6E6E6"/>
<circle cx="43.9177" cy="119.954" r="5.89939" transform="rotate(90 43.9177 119.954)" fill="#E6E6E6"/>
<circle cx="5.89944" cy="119.954" r="5.89939" transform="rotate(90 5.89944 119.954)" fill="#E6E6E6"/>
<circle cx="43.9177" cy="272.027" r="5.89939" transform="rotate(90 43.9177 272.027)" fill="#E6E6E6"/>
<circle cx="5.89944" cy="272.027" r="5.89939" transform="rotate(90 5.89944 272.027)" fill="#E6E6E6"/>
</svg>
