<svg width="854" height="967" viewBox="0 0 854 967" fill="none" xmlns="http://www.w3.org/2000/svg">
<path d="M7.92615 4.54776C7.92615 7.27617 6.70756 8.64038 4.27039 8.64038C1.83321 8.64038 0.614624 7.27617 0.614624 4.54776C0.614624 2.50145 2.4425 0.455139 4.27039 0.455139C6.09827 0.455139 7.92615 2.50145 7.92615 4.54776Z" fill="#E5E5E5"/>
<path d="M85.9172 4.54776C85.9172 6.59407 84.0894 8.64038 82.2615 8.64038C80.4336 8.64038 78.6057 6.59407 78.6057 4.54776C78.6057 2.50145 79.8243 0.455139 82.2615 0.455139C84.0894 0.455139 85.9172 2.50145 85.9172 4.54776Z" fill="#E5E5E5"/>
<path d="M163.908 4.54776C163.908 6.59407 162.08 8.64038 160.252 8.64038C158.424 8.64038 156.596 6.59407 156.596 4.54776C156.596 2.50145 158.424 0.455139 160.252 0.455139C162.08 0.455139 163.908 2.50145 163.908 4.54776Z" fill="#E5E5E5"/>
<path d="M241.9 4.54776C241.9 6.59407 240.072 8.64038 238.244 8.64038C236.416 8.64038 234.588 6.59407 234.588 4.54776C234.588 2.50145 236.416 0.455139 238.244 0.455139C240.072 0.455139 241.9 2.50145 241.9 4.54776Z" fill="#E5E5E5"/>
<path d="M319.281 4.54776C319.281 6.59407 317.453 8.64038 315.625 8.64038C313.797 8.64038 311.969 6.59407 311.969 4.54776C311.969 2.50145 313.797 0.455139 315.625 0.455139C317.453 0.455139 319.281 2.50145 319.281 4.54776Z" fill="#E5E5E5"/>
<path d="M397.272 4.54776C397.272 6.59407 395.444 8.64038 393.617 8.64038C391.789 8.64038 389.961 7.27617 389.961 4.54776C389.961 2.50145 391.789 0.455139 393.617 0.455139C395.444 0.455139 397.272 2.50145 397.272 4.54776Z" fill="#E5E5E5"/>
<path d="M475.263 4.54776C475.263 6.59407 473.435 8.64038 471.607 8.64038C469.78 8.64038 467.342 7.27617 467.342 4.54776C467.342 2.50145 469.17 0.455139 470.998 0.455139C472.826 0.455139 475.263 2.50145 475.263 4.54776Z" fill="#E5E5E5"/>
<path d="M552.645 4.54776C552.645 6.59407 550.817 8.64038 548.989 8.64038C547.161 8.64038 545.333 6.59407 545.333 4.54776C545.333 2.50145 547.161 0.455139 548.989 0.455139C551.427 0.455139 552.645 2.50145 552.645 4.54776Z" fill="#E5E5E5"/>
<path d="M630.636 4.54776C630.636 6.59407 628.808 8.64038 626.98 8.64038C625.153 8.64038 623.325 6.59407 623.325 4.54776C623.325 2.50145 625.153 0.455139 626.98 0.455139C628.808 0.455139 630.636 2.50145 630.636 4.54776Z" fill="#E5E5E5"/>
<path d="M708.627 4.54776C708.627 6.59407 706.799 8.64038 704.971 8.64038C703.143 8.64038 701.315 6.59407 701.315 4.54776C701.315 2.50145 703.143 0.455139 704.971 0.455139C706.799 0.455139 708.627 2.50145 708.627 4.54776Z" fill="#E5E5E5"/>
<path d="M786.618 4.54776C786.618 6.59407 784.79 8.64038 782.962 8.64038C781.134 8.64038 779.307 6.59407 779.307 4.54776C779.307 2.50145 781.134 0.455139 782.962 0.455139C784.79 0.455139 786.618 2.50145 786.618 4.54776Z" fill="#E5E5E5"/>
<path d="M7.92615 91.8577C7.92615 93.904 6.70756 95.9503 4.27039 95.9503C1.83321 95.9503 0.614624 93.904 0.614624 91.8577C0.614624 89.8114 2.4425 87.7651 4.27039 87.7651C6.09827 87.7651 7.92615 89.1293 7.92615 91.8577Z" fill="#E5E5E5"/>
<path d="M85.9172 91.8577C85.9172 93.904 84.0894 95.9503 82.2615 95.9503C80.4336 95.9503 78.6057 93.904 78.6057 91.8577C78.6057 89.8114 80.4336 87.7651 82.2615 87.7651C84.0894 87.7651 85.9172 89.1293 85.9172 91.8577Z" fill="#E5E5E5"/>
<path d="M163.908 91.8577C163.908 93.904 162.08 95.9503 160.252 95.9503C158.424 95.9503 156.596 93.904 156.596 91.8577C156.596 89.8114 158.424 87.7651 160.252 87.7651C162.08 87.7651 163.908 89.1293 163.908 91.8577Z" fill="#E5E5E5"/>
<path d="M241.9 91.8577C241.9 93.904 240.072 95.9503 238.244 95.9503C236.416 95.9503 234.588 93.904 234.588 91.8577C234.588 89.8114 236.416 87.7651 238.244 87.7651C240.072 87.7651 241.9 89.1293 241.9 91.8577Z" fill="#E5E5E5"/>
<path d="M319.281 91.8577C319.281 93.904 317.453 95.9503 315.625 95.9503C313.797 95.9503 311.969 93.904 311.969 91.8577C311.969 89.8114 313.797 87.7651 315.625 87.7651C317.453 87.7651 319.281 89.1293 319.281 91.8577Z" fill="#E5E5E5"/>
<path d="M397.272 91.8577C397.272 93.904 395.444 95.9503 393.617 95.9503C391.789 95.9503 389.961 93.904 389.961 91.8577C389.961 89.8114 391.789 87.7651 393.617 87.7651C395.444 87.7651 397.272 89.1293 397.272 91.8577Z" fill="#E5E5E5"/>
<path d="M475.264 91.8577C475.264 93.904 473.436 95.9503 471.608 95.9503C469.78 95.9503 467.952 93.904 467.952 91.8577C467.952 89.8114 469.78 87.7651 471.608 87.7651C473.436 87.7651 475.264 89.1293 475.264 91.8577Z" fill="#E5E5E5"/>
<path d="M552.645 91.8577C552.645 93.904 550.817 95.9503 548.989 95.9503C547.161 95.9503 545.333 93.904 545.333 91.8577C545.333 89.8114 547.161 87.7651 548.989 87.7651C551.427 87.7651 552.645 89.1293 552.645 91.8577Z" fill="#E5E5E5"/>
<path d="M630.636 91.8577C630.636 93.904 628.808 95.9503 626.98 95.9503C625.153 95.9503 623.325 93.904 623.325 91.8577C623.325 89.8114 625.153 87.7651 626.98 87.7651C628.808 87.7651 630.636 89.1293 630.636 91.8577Z" fill="#E5E5E5"/>
<path d="M708.627 91.8577C708.627 93.904 706.799 95.9503 704.971 95.9503C703.143 95.9503 701.315 93.904 701.315 91.8577C701.315 89.8114 703.143 87.7651 704.971 87.7651C706.799 87.7651 708.627 89.1293 708.627 91.8577Z" fill="#E5E5E5"/>
<path d="M786.618 91.8577C786.618 93.904 784.79 95.9503 782.962 95.9503C781.134 95.9503 779.307 93.904 779.307 91.8577C779.307 89.8114 781.134 87.7651 782.962 87.7651C784.79 87.7651 786.618 89.1293 786.618 91.8577Z" fill="#E5E5E5"/>
<path d="M7.92615 179.168C7.92615 181.214 6.09827 183.26 4.27039 183.26C2.4425 183.26 0.614624 181.214 0.614624 179.168C0.614624 177.121 2.4425 175.075 4.27039 175.075C6.09827 175.075 7.92615 176.439 7.92615 179.168Z" fill="#E5E5E5"/>
<path d="M85.9172 179.167C85.9172 181.213 84.0894 183.259 82.2615 183.259C80.4336 183.259 78.6057 181.213 78.6057 179.167C78.6057 177.12 80.4336 175.074 82.2615 175.074C84.0894 174.392 85.9172 176.438 85.9172 179.167Z" fill="#E5E5E5"/>
<path d="M163.908 179.167C163.908 181.213 162.08 183.259 160.252 183.259C158.424 183.259 156.596 181.213 156.596 179.167C156.596 177.12 158.424 175.074 160.252 175.074C162.08 174.392 163.908 176.438 163.908 179.167Z" fill="#E5E5E5"/>
<path d="M241.9 179.167C241.9 181.213 240.072 183.259 238.244 183.259C236.416 183.259 234.588 181.213 234.588 179.167C234.588 177.12 236.416 175.074 238.244 175.074C240.072 174.392 241.9 176.438 241.9 179.167Z" fill="#E5E5E5"/>
<path d="M319.281 179.167C319.281 181.213 317.453 183.259 315.625 183.259C313.797 183.259 311.969 181.213 311.969 179.167C311.969 177.12 313.797 175.074 315.625 175.074C317.453 174.392 319.281 176.438 319.281 179.167Z" fill="#E5E5E5"/>
<path d="M397.272 179.168C397.272 181.214 395.444 183.26 393.617 183.26C391.789 183.26 389.961 181.214 389.961 179.168C389.961 177.121 391.789 175.075 393.617 175.075C395.444 175.075 397.272 176.439 397.272 179.168Z" fill="#E5E5E5"/>
<path d="M475.264 179.168C475.264 181.214 473.436 183.26 471.608 183.26C469.78 183.26 467.952 181.214 467.952 179.168C467.952 177.121 469.78 175.075 471.608 175.075C473.436 175.075 475.264 176.439 475.264 179.168Z" fill="#E5E5E5"/>
<path d="M552.645 179.167C552.645 181.213 550.817 183.259 548.989 183.259C547.161 183.259 545.333 181.213 545.333 179.167C545.333 177.12 547.161 175.074 548.989 175.074C551.427 174.392 552.645 176.438 552.645 179.167Z" fill="#E5E5E5"/>
<path d="M630.636 179.167C630.636 181.213 628.808 183.259 626.98 183.259C625.153 183.259 623.325 181.213 623.325 179.167C623.325 177.12 625.153 175.074 626.98 175.074C628.808 174.392 630.636 176.438 630.636 179.167Z" fill="#E5E5E5"/>
<path d="M708.627 179.167C708.627 181.213 706.799 183.259 704.971 183.259C703.143 183.259 701.315 181.213 701.315 179.167C701.315 177.12 703.143 175.074 704.971 175.074C706.799 174.392 708.627 176.438 708.627 179.167Z" fill="#E5E5E5"/>
<path d="M786.618 179.167C786.618 181.213 784.79 183.259 782.962 183.259C781.134 183.259 779.307 181.213 779.307 179.167C779.307 177.12 781.134 175.074 782.962 175.074C784.79 174.392 786.618 176.438 786.618 179.167Z" fill="#E5E5E5"/>
<path d="M7.92615 265.795C7.92615 267.841 6.09827 269.887 4.27039 269.887C2.4425 269.887 0.614624 268.523 0.614624 265.795C0.614624 263.749 2.4425 261.702 4.27039 261.702C6.09827 261.702 7.92615 263.749 7.92615 265.795Z" fill="#E5E5E5"/>
<path d="M85.9172 265.795C85.9172 267.841 84.0894 269.887 82.2615 269.887C80.4336 269.887 78.6057 267.841 78.6057 265.795C78.6057 263.749 80.4336 261.702 82.2615 261.702C84.0894 261.702 85.9172 263.749 85.9172 265.795Z" fill="#E5E5E5"/>
<path d="M163.908 265.795C163.908 267.841 162.08 269.887 160.252 269.887C158.424 269.887 156.596 267.841 156.596 265.795C156.596 263.749 158.424 261.702 160.252 261.702C162.08 261.702 163.908 263.749 163.908 265.795Z" fill="#E5E5E5"/>
<path d="M241.9 265.795C241.9 267.841 240.072 269.887 238.244 269.887C236.416 269.887 234.588 267.841 234.588 265.795C234.588 263.749 236.416 261.702 238.244 261.702C240.072 261.702 241.9 263.749 241.9 265.795Z" fill="#E5E5E5"/>
<path d="M319.281 265.795C319.281 267.841 317.453 269.887 315.625 269.887C313.797 269.887 311.969 267.841 311.969 265.795C311.969 263.749 313.797 261.702 315.625 261.702C317.453 261.702 319.281 263.749 319.281 265.795Z" fill="#E5E5E5"/>
<path d="M397.272 265.795C397.272 267.841 395.444 269.887 393.617 269.887C391.789 269.887 389.961 267.841 389.961 265.795C389.961 263.749 391.789 261.702 393.617 261.702C395.444 261.702 397.272 263.749 397.272 265.795Z" fill="#E5E5E5"/>
<path d="M475.264 265.795C475.264 267.841 473.436 269.887 471.608 269.887C469.78 269.887 467.952 267.841 467.952 265.795C467.952 263.749 469.78 261.702 471.608 261.702C473.436 261.702 475.264 263.749 475.264 265.795Z" fill="#E5E5E5"/>
<path d="M552.645 265.795C552.645 267.841 550.817 269.887 548.989 269.887C547.161 269.887 545.333 267.841 545.333 265.795C545.333 263.749 547.161 261.702 548.989 261.702C551.427 261.702 552.645 263.749 552.645 265.795Z" fill="#E5E5E5"/>
<path d="M630.636 265.795C630.636 267.841 628.808 269.887 626.98 269.887C625.153 269.887 623.325 267.841 623.325 265.795C623.325 263.749 625.153 261.702 626.98 261.702C628.808 261.702 630.636 263.749 630.636 265.795Z" fill="#E5E5E5"/>
<path d="M708.627 265.795C708.627 267.841 706.799 269.887 704.971 269.887C703.143 269.887 701.315 267.841 701.315 265.795C701.315 263.749 703.143 261.702 704.971 261.702C706.799 261.702 708.627 263.749 708.627 265.795Z" fill="#E5E5E5"/>
<path d="M786.618 265.795C786.618 267.841 784.79 269.887 782.962 269.887C781.134 269.887 779.307 267.841 779.307 265.795C779.307 263.749 781.134 261.702 782.962 261.702C784.79 261.702 786.618 263.749 786.618 265.795Z" fill="#E5E5E5"/>
<path d="M7.92615 353.105C7.92615 355.151 6.09827 357.197 4.27039 357.197C2.4425 357.197 0.614624 355.151 0.614624 353.105C0.614624 351.058 2.4425 349.012 4.27039 349.012C6.09827 349.012 7.92615 351.058 7.92615 353.105Z" fill="#E5E5E5"/>
<path d="M85.9172 353.105C85.9172 355.151 84.0894 357.197 82.2615 357.197C80.4336 357.197 78.6057 355.151 78.6057 353.105C78.6057 351.058 80.4336 349.012 82.2615 349.012C84.0894 349.012 85.9172 351.058 85.9172 353.105Z" fill="#E5E5E5"/>
<path d="M163.908 353.105C163.908 355.151 162.08 357.197 160.252 357.197C158.424 357.197 156.596 355.151 156.596 353.105C156.596 351.058 158.424 349.012 160.252 349.012C162.08 349.012 163.908 351.058 163.908 353.105Z" fill="#E5E5E5"/>
<path d="M241.9 353.105C241.9 355.151 240.072 357.197 238.244 357.197C236.416 357.197 234.588 355.151 234.588 353.105C234.588 351.058 236.416 349.012 238.244 349.012C240.072 349.012 241.9 351.058 241.9 353.105Z" fill="#E5E5E5"/>
<path d="M319.281 353.105C319.281 355.151 317.453 357.197 315.625 357.197C313.797 357.197 311.969 355.151 311.969 353.105C311.969 351.058 313.797 349.012 315.625 349.012C317.453 349.012 319.281 351.058 319.281 353.105Z" fill="#E5E5E5"/>
<path d="M397.272 353.105C397.272 355.151 395.444 357.197 393.617 357.197C391.789 357.197 389.961 355.151 389.961 353.105C389.961 351.058 391.789 349.012 393.617 349.012C395.444 349.012 397.272 351.058 397.272 353.105Z" fill="#E5E5E5"/>
<path d="M475.264 353.105C475.264 355.151 473.436 357.197 471.608 357.197C469.78 357.197 467.952 355.151 467.952 353.105C467.952 351.058 469.78 349.012 471.608 349.012C473.436 349.012 475.264 351.058 475.264 353.105Z" fill="#E5E5E5"/>
<path d="M552.645 353.105C552.645 355.151 550.817 357.197 548.989 357.197C547.161 357.197 545.333 355.151 545.333 353.105C545.333 351.058 547.161 349.012 548.989 349.012C551.427 349.012 552.645 351.058 552.645 353.105Z" fill="#E5E5E5"/>
<path d="M630.636 353.105C630.636 355.151 628.808 357.197 626.98 357.197C625.153 357.197 623.325 355.151 623.325 353.105C623.325 351.058 625.153 349.012 626.98 349.012C628.808 349.012 630.636 351.058 630.636 353.105Z" fill="#E5E5E5"/>
<path d="M708.627 353.105C708.627 355.151 706.799 357.197 704.971 357.197C703.143 357.197 701.315 355.151 701.315 353.105C701.315 351.058 703.143 349.012 704.971 349.012C706.799 349.012 708.627 351.058 708.627 353.105Z" fill="#E5E5E5"/>
<path d="M786.618 353.105C786.618 355.151 784.79 357.197 782.962 357.197C781.134 357.197 779.307 355.151 779.307 353.105C779.307 351.058 781.134 349.012 782.962 349.012C784.79 349.012 786.618 351.058 786.618 353.105Z" fill="#E5E5E5"/>
<path d="M7.92615 440.413C7.92615 442.46 6.09827 444.506 4.27039 444.506C2.4425 444.506 0.614624 442.46 0.614624 440.413C0.614624 438.367 2.4425 436.321 4.27039 436.321C6.09827 436.321 7.92615 437.685 7.92615 440.413Z" fill="#E5E5E5"/>
<path d="M85.9172 440.413C85.9172 442.46 84.0894 444.506 82.2615 444.506C80.4336 444.506 78.6057 442.46 78.6057 440.413C78.6057 438.367 80.4336 436.321 82.2615 436.321C84.0894 436.321 85.9172 437.685 85.9172 440.413Z" fill="#E5E5E5"/>
<path d="M163.908 440.413C163.908 442.46 162.08 444.506 160.252 444.506C158.424 444.506 156.596 442.46 156.596 440.413C156.596 438.367 158.424 436.321 160.252 436.321C162.08 436.321 163.908 437.685 163.908 440.413Z" fill="#E5E5E5"/>
<path d="M241.9 440.413C241.9 442.46 240.072 444.506 238.244 444.506C236.416 444.506 234.588 442.46 234.588 440.413C234.588 438.367 236.416 436.321 238.244 436.321C240.072 436.321 241.9 437.685 241.9 440.413Z" fill="#E5E5E5"/>
<path d="M319.281 440.413C319.281 442.46 317.453 444.506 315.625 444.506C313.797 444.506 311.969 442.46 311.969 440.413C311.969 438.367 313.797 436.321 315.625 436.321C317.453 436.321 319.281 437.685 319.281 440.413Z" fill="#E5E5E5"/>
<path d="M397.272 440.413C397.272 442.46 395.444 444.506 393.617 444.506C391.789 444.506 389.961 442.46 389.961 440.413C389.961 438.367 391.789 436.321 393.617 436.321C395.444 436.321 397.272 437.685 397.272 440.413Z" fill="#E5E5E5"/>
<path d="M475.264 440.413C475.264 442.46 473.436 444.506 471.608 444.506C469.78 444.506 467.952 442.46 467.952 440.413C467.952 438.367 469.78 436.321 471.608 436.321C473.436 436.321 475.264 437.685 475.264 440.413Z" fill="#E5E5E5"/>
<path d="M552.645 440.413C552.645 442.46 550.817 444.506 548.989 444.506C547.161 444.506 545.333 442.46 545.333 440.413C545.333 438.367 547.161 436.321 548.989 436.321C551.427 436.321 552.645 437.685 552.645 440.413Z" fill="#E5E5E5"/>
<path d="M630.636 440.413C630.636 442.46 628.808 444.506 626.98 444.506C625.153 444.506 623.325 442.46 623.325 440.413C623.325 438.367 625.153 436.321 626.98 436.321C628.808 436.321 630.636 437.685 630.636 440.413Z" fill="#E5E5E5"/>
<path d="M708.627 440.413C708.627 442.46 706.799 444.506 704.971 444.506C703.143 444.506 701.315 442.46 701.315 440.413C701.315 438.367 703.143 436.321 704.971 436.321C706.799 436.321 708.627 437.685 708.627 440.413Z" fill="#E5E5E5"/>
<path d="M786.618 440.413C786.618 442.46 784.79 444.506 782.962 444.506C781.134 444.506 779.307 442.46 779.307 440.413C779.307 438.367 781.134 436.321 782.962 436.321C784.79 436.321 786.618 437.685 786.618 440.413Z" fill="#E5E5E5"/>
<path d="M7.92615 527.723C7.92615 529.77 6.09827 531.816 4.27039 531.816C2.4425 531.816 0.614624 529.77 0.614624 527.723C0.614624 525.677 2.4425 523.631 4.27039 523.631C6.09827 523.631 7.92615 524.995 7.92615 527.723Z" fill="#E5E5E5"/>
<path d="M85.9172 527.724C85.9172 529.77 84.0894 531.816 82.2615 531.816C80.4336 531.816 78.6057 529.77 78.6057 527.724C78.6057 525.677 80.4336 523.631 82.2615 523.631C84.0894 522.949 85.9172 524.995 85.9172 527.724Z" fill="#E5E5E5"/>
<path d="M163.908 527.724C163.908 529.77 162.08 531.816 160.252 531.816C158.424 531.816 156.596 529.77 156.596 527.724C156.596 525.677 158.424 523.631 160.252 523.631C162.08 522.949 163.908 524.995 163.908 527.724Z" fill="#E5E5E5"/>
<path d="M241.9 527.724C241.9 529.77 240.072 531.816 238.244 531.816C236.416 531.816 234.588 529.77 234.588 527.724C234.588 525.677 236.416 523.631 238.244 523.631C240.072 522.949 241.9 524.995 241.9 527.724Z" fill="#E5E5E5"/>
<path d="M319.281 527.724C319.281 529.77 317.453 531.816 315.625 531.816C313.797 531.816 311.969 529.77 311.969 527.724C311.969 525.677 313.797 523.631 315.625 523.631C317.453 522.949 319.281 524.995 319.281 527.724Z" fill="#E5E5E5"/>
<path d="M397.272 527.723C397.272 529.77 395.444 531.816 393.617 531.816C391.789 531.816 389.961 529.77 389.961 527.723C389.961 525.677 391.789 523.631 393.617 523.631C395.444 523.631 397.272 524.995 397.272 527.723Z" fill="#E5E5E5"/>
<path d="M475.264 527.723C475.264 529.77 473.436 531.816 471.608 531.816C469.78 531.816 467.952 529.77 467.952 527.723C467.952 525.677 469.78 523.631 471.608 523.631C473.436 523.631 475.264 524.995 475.264 527.723Z" fill="#E5E5E5"/>
<path d="M552.645 527.724C552.645 529.77 550.817 531.816 548.989 531.816C547.161 531.816 545.333 529.77 545.333 527.724C545.333 525.677 547.161 523.631 548.989 523.631C551.427 522.949 552.645 524.995 552.645 527.724Z" fill="#E5E5E5"/>
<path d="M630.636 527.724C630.636 529.77 628.808 531.816 626.98 531.816C625.153 531.816 623.325 529.77 623.325 527.724C623.325 525.677 625.153 523.631 626.98 523.631C628.808 522.949 630.636 524.995 630.636 527.724Z" fill="#E5E5E5"/>
<path d="M708.627 527.724C708.627 529.77 706.799 531.816 704.971 531.816C703.143 531.816 701.315 529.77 701.315 527.724C701.315 525.677 703.143 523.631 704.971 523.631C706.799 522.949 708.627 524.995 708.627 527.724Z" fill="#E5E5E5"/>
<path d="M786.618 527.724C786.618 529.77 784.79 531.816 782.962 531.816C781.134 531.816 779.307 529.77 779.307 527.724C779.307 525.677 781.134 523.631 782.962 523.631C784.79 522.949 786.618 524.995 786.618 527.724Z" fill="#E5E5E5"/>
<path d="M7.92615 614.35C7.92615 616.397 6.09827 618.443 4.27039 618.443C2.4425 618.443 0.614624 617.079 0.614624 614.35C0.614624 612.304 2.4425 610.258 4.27039 610.258C6.09827 610.258 7.92615 612.304 7.92615 614.35Z" fill="#E5E5E5"/>
<path d="M85.9172 614.35C85.9172 616.397 84.0894 618.443 82.2615 618.443C80.4336 618.443 78.6057 616.397 78.6057 614.35C78.6057 612.304 80.4336 610.258 82.2615 610.258C84.0894 610.258 85.9172 612.304 85.9172 614.35Z" fill="#E5E5E5"/>
<path d="M163.908 614.35C163.908 616.397 162.08 618.443 160.252 618.443C158.424 618.443 156.596 616.397 156.596 614.35C156.596 612.304 158.424 610.258 160.252 610.258C162.08 610.258 163.908 612.304 163.908 614.35Z" fill="#E5E5E5"/>
<path d="M241.9 614.35C241.9 616.397 240.072 618.443 238.244 618.443C236.416 618.443 234.588 616.397 234.588 614.35C234.588 612.304 236.416 610.258 238.244 610.258C240.072 610.258 241.9 612.304 241.9 614.35Z" fill="#E5E5E5"/>
<path d="M319.281 614.35C319.281 616.397 317.453 618.443 315.625 618.443C313.797 618.443 311.969 616.397 311.969 614.35C311.969 612.304 313.797 610.258 315.625 610.258C317.453 610.258 319.281 612.304 319.281 614.35Z" fill="#E5E5E5"/>
<path d="M397.272 614.35C397.272 616.397 395.444 618.443 393.617 618.443C391.789 618.443 389.961 616.397 389.961 614.35C389.961 612.304 391.789 610.258 393.617 610.258C395.444 610.258 397.272 612.304 397.272 614.35Z" fill="#E5E5E5"/>
<path d="M475.264 614.35C475.264 616.397 473.436 618.443 471.608 618.443C469.78 618.443 467.952 616.397 467.952 614.35C467.952 612.304 469.78 610.258 471.608 610.258C473.436 610.258 475.264 612.304 475.264 614.35Z" fill="#E5E5E5"/>
<path d="M552.645 614.35C552.645 616.397 550.817 618.443 548.989 618.443C547.161 618.443 545.333 616.397 545.333 614.35C545.333 612.304 547.161 610.258 548.989 610.258C551.427 610.258 552.645 612.304 552.645 614.35Z" fill="#E5E5E5"/>
<path d="M630.636 614.35C630.636 616.397 628.808 618.443 626.98 618.443C625.153 618.443 623.325 616.397 623.325 614.35C623.325 612.304 625.153 610.258 626.98 610.258C628.808 610.258 630.636 612.304 630.636 614.35Z" fill="#E5E5E5"/>
<path d="M708.627 614.35C708.627 616.397 706.799 618.443 704.971 618.443C703.143 618.443 701.315 616.397 701.315 614.35C701.315 612.304 703.143 610.258 704.971 610.258C706.799 610.258 708.627 612.304 708.627 614.35Z" fill="#E5E5E5"/>
<path d="M786.618 614.35C786.618 616.397 784.79 618.443 782.962 618.443C781.134 618.443 779.307 616.397 779.307 614.35C779.307 612.304 781.134 610.258 782.962 610.258C784.79 610.258 786.618 612.304 786.618 614.35Z" fill="#E5E5E5"/>
<path d="M7.92615 701.66C7.92615 703.707 6.09827 705.753 4.27039 705.753C2.4425 705.753 0.614624 703.707 0.614624 701.66C0.614624 699.614 2.4425 697.568 4.27039 697.568C6.09827 697.568 7.92615 699.614 7.92615 701.66Z" fill="#E5E5E5"/>
<path d="M85.9172 701.66C85.9172 703.707 84.0894 705.753 82.2615 705.753C80.4336 705.753 78.6057 703.707 78.6057 701.66C78.6057 699.614 80.4336 697.568 82.2615 697.568C84.0894 697.568 85.9172 699.614 85.9172 701.66Z" fill="#E5E5E5"/>
<path d="M163.908 701.66C163.908 703.707 162.08 705.753 160.252 705.753C158.424 705.753 156.596 703.707 156.596 701.66C156.596 699.614 158.424 697.568 160.252 697.568C162.08 697.568 163.908 699.614 163.908 701.66Z" fill="#E5E5E5"/>
<path d="M241.9 701.66C241.9 703.707 240.072 705.753 238.244 705.753C236.416 705.753 234.588 703.707 234.588 701.66C234.588 699.614 236.416 697.568 238.244 697.568C240.072 697.568 241.9 699.614 241.9 701.66Z" fill="#E5E5E5"/>
<path d="M319.281 701.66C319.281 703.707 317.453 705.753 315.625 705.753C313.797 705.753 311.969 703.707 311.969 701.66C311.969 699.614 313.797 697.568 315.625 697.568C317.453 697.568 319.281 699.614 319.281 701.66Z" fill="#E5E5E5"/>
<path d="M397.272 701.66C397.272 703.707 395.444 705.753 393.617 705.753C391.789 705.753 389.961 703.707 389.961 701.66C389.961 699.614 391.789 697.568 393.617 697.568C395.444 697.568 397.272 699.614 397.272 701.66Z" fill="#E5E5E5"/>
<path d="M475.264 701.66C475.264 703.707 473.436 705.753 471.608 705.753C469.78 705.753 467.952 703.707 467.952 701.66C467.952 699.614 469.78 697.568 471.608 697.568C473.436 697.568 475.264 699.614 475.264 701.66Z" fill="#E5E5E5"/>
<path d="M552.645 701.66C552.645 703.707 550.817 705.753 548.989 705.753C547.161 705.753 545.333 703.707 545.333 701.66C545.333 699.614 547.161 697.568 548.989 697.568C551.427 697.568 552.645 699.614 552.645 701.66Z" fill="#E5E5E5"/>
<path d="M630.636 701.66C630.636 703.707 628.808 705.753 626.98 705.753C625.153 705.753 623.325 703.707 623.325 701.66C623.325 699.614 625.153 697.568 626.98 697.568C628.808 697.568 630.636 699.614 630.636 701.66Z" fill="#E5E5E5"/>
<path d="M708.627 701.66C708.627 703.707 706.799 705.753 704.971 705.753C703.143 705.753 701.315 703.707 701.315 701.66C701.315 699.614 703.143 697.568 704.971 697.568C706.799 697.568 708.627 699.614 708.627 701.66Z" fill="#E5E5E5"/>
<path d="M786.618 701.66C786.618 703.707 784.79 705.753 782.962 705.753C781.134 705.753 779.307 703.707 779.307 701.66C779.307 699.614 781.134 697.568 782.962 697.568C784.79 697.568 786.618 699.614 786.618 701.66Z" fill="#E5E5E5"/>
<path d="M7.92615 788.97C7.92615 791.017 6.09827 793.063 4.27039 793.063C2.4425 793.063 0.614624 791.017 0.614624 788.97C0.614624 786.924 2.4425 784.877 4.27039 784.877C6.09827 784.877 7.92615 786.242 7.92615 788.97Z" fill="#E5E5E5"/>
<path d="M85.9172 788.97C85.9172 791.017 84.0894 793.063 82.2615 793.063C80.4336 793.063 78.6057 791.017 78.6057 788.97C78.6057 786.924 80.4336 784.877 82.2615 784.877C84.0894 784.877 85.9172 786.242 85.9172 788.97Z" fill="#E5E5E5"/>
<path d="M163.908 788.97C163.908 791.017 162.08 793.063 160.252 793.063C158.424 793.063 156.596 791.017 156.596 788.97C156.596 786.924 158.424 784.877 160.252 784.877C162.08 784.877 163.908 786.242 163.908 788.97Z" fill="#E5E5E5"/>
<path d="M241.9 788.97C241.9 791.017 240.072 793.063 238.244 793.063C236.416 793.063 234.588 791.017 234.588 788.97C234.588 786.924 236.416 784.877 238.244 784.877C240.072 784.877 241.9 786.242 241.9 788.97Z" fill="#E5E5E5"/>
<path d="M319.281 788.97C319.281 791.017 317.453 793.063 315.625 793.063C313.797 793.063 311.969 791.017 311.969 788.97C311.969 786.924 313.797 784.877 315.625 784.877C317.453 784.877 319.281 786.242 319.281 788.97Z" fill="#E5E5E5"/>
<path d="M397.272 788.97C397.272 791.017 395.444 793.063 393.617 793.063C391.789 793.063 389.961 791.017 389.961 788.97C389.961 786.924 391.789 784.877 393.617 784.877C395.444 784.877 397.272 786.242 397.272 788.97Z" fill="#E5E5E5"/>
<path d="M475.264 788.97C475.264 791.017 473.436 793.063 471.608 793.063C469.78 793.063 467.952 791.017 467.952 788.97C467.952 786.924 469.78 784.877 471.608 784.877C473.436 784.877 475.264 786.242 475.264 788.97Z" fill="#E5E5E5"/>
<path d="M552.645 788.97C552.645 791.017 550.817 793.063 548.989 793.063C547.161 793.063 545.333 791.017 545.333 788.97C545.333 786.924 547.161 784.877 548.989 784.877C551.427 784.877 552.645 786.242 552.645 788.97Z" fill="#E5E5E5"/>
<path d="M630.636 788.97C630.636 791.017 628.808 793.063 626.98 793.063C625.153 793.063 623.325 791.017 623.325 788.97C623.325 786.924 625.153 784.877 626.98 784.877C628.808 784.877 630.636 786.242 630.636 788.97Z" fill="#E5E5E5"/>
<path d="M708.627 788.97C708.627 791.017 706.799 793.063 704.971 793.063C703.143 793.063 701.315 791.017 701.315 788.97C701.315 786.924 703.143 784.877 704.971 784.877C706.799 784.877 708.627 786.242 708.627 788.97Z" fill="#E5E5E5"/>
<path d="M786.618 788.97C786.618 791.017 784.79 793.063 782.962 793.063C781.134 793.063 779.307 791.017 779.307 788.97C779.307 786.924 781.134 784.877 782.962 784.877C784.79 784.877 786.618 786.242 786.618 788.97Z" fill="#E5E5E5"/>
<path d="M7.92615 875.598C7.92615 877.644 6.09827 879.69 4.27039 879.69C2.4425 879.69 0.614624 878.326 0.614624 875.598C0.614624 873.551 2.4425 871.505 4.27039 871.505C6.09827 871.505 7.92615 873.551 7.92615 875.598Z" fill="#E5E5E5"/>
<path d="M85.9172 875.598C85.9172 877.644 84.0894 879.69 82.2615 879.69C80.4336 879.69 78.6057 877.644 78.6057 875.598C78.6057 873.551 80.4336 871.505 82.2615 871.505C84.0894 871.505 85.9172 873.551 85.9172 875.598Z" fill="#E5E5E5"/>
<path d="M163.908 875.598C163.908 877.644 162.08 879.69 160.252 879.69C158.424 879.69 156.596 877.644 156.596 875.598C156.596 873.551 158.424 871.505 160.252 871.505C162.08 871.505 163.908 873.551 163.908 875.598Z" fill="#E5E5E5"/>
<path d="M241.9 875.598C241.9 877.644 240.072 879.69 238.244 879.69C236.416 879.69 234.588 877.644 234.588 875.598C234.588 873.551 236.416 871.505 238.244 871.505C240.072 871.505 241.9 873.551 241.9 875.598Z" fill="#E5E5E5"/>
<path d="M319.281 875.598C319.281 877.644 317.453 879.69 315.625 879.69C313.797 879.69 311.969 877.644 311.969 875.598C311.969 873.551 313.797 871.505 315.625 871.505C317.453 871.505 319.281 873.551 319.281 875.598Z" fill="#E5E5E5"/>
<path d="M397.272 875.598C397.272 877.644 395.444 879.69 393.617 879.69C391.789 879.69 389.961 877.644 389.961 875.598C389.961 873.551 391.789 871.505 393.617 871.505C395.444 871.505 397.272 873.551 397.272 875.598Z" fill="#E5E5E5"/>
<path d="M475.264 875.598C475.264 877.644 473.436 879.69 471.608 879.69C469.78 879.69 467.952 877.644 467.952 875.598C467.952 873.551 469.78 871.505 471.608 871.505C473.436 871.505 475.264 873.551 475.264 875.598Z" fill="#E5E5E5"/>
<path d="M552.645 875.598C552.645 877.644 550.817 879.69 548.989 879.69C547.161 879.69 545.333 877.644 545.333 875.598C545.333 873.551 547.161 871.505 548.989 871.505C551.427 871.505 552.645 873.551 552.645 875.598Z" fill="#E5E5E5"/>
<path d="M630.636 875.598C630.636 877.644 628.808 879.69 626.98 879.69C625.153 879.69 623.325 877.644 623.325 875.598C623.325 873.551 625.153 871.505 626.98 871.505C628.808 871.505 630.636 873.551 630.636 875.598Z" fill="#E5E5E5"/>
<path d="M708.627 875.598C708.627 877.644 706.799 879.69 704.971 879.69C703.143 879.69 701.315 877.644 701.315 875.598C701.315 873.551 703.143 871.505 704.971 871.505C706.799 871.505 708.627 873.551 708.627 875.598Z" fill="#E5E5E5"/>
<path d="M786.618 875.598C786.618 877.644 784.79 879.69 782.962 879.69C781.134 879.69 779.307 877.644 779.307 875.598C779.307 873.551 781.134 871.505 782.962 871.505C784.79 871.505 786.618 873.551 786.618 875.598Z" fill="#E5E5E5"/>
<path d="M7.92615 962.907C7.92615 964.954 6.09827 967 4.27039 967C2.4425 967 0.614624 965.636 0.614624 962.907C0.614624 960.861 2.4425 958.815 4.27039 958.815C6.09827 958.815 7.92615 960.861 7.92615 962.907Z" fill="#E5E5E5"/>
<path d="M85.9172 962.907C85.9172 964.954 84.0894 967 82.2615 967C80.4336 967 78.6057 964.954 78.6057 962.907C78.6057 960.861 80.4336 958.815 82.2615 958.815C84.0894 958.815 85.9172 960.861 85.9172 962.907Z" fill="#E5E5E5"/>
<path d="M163.908 962.907C163.908 964.954 162.08 967 160.252 967C158.424 967 156.596 964.954 156.596 962.907C156.596 960.861 158.424 958.815 160.252 958.815C162.08 958.815 163.908 960.861 163.908 962.907Z" fill="#E5E5E5"/>
<path d="M241.9 962.907C241.9 964.954 240.072 967 238.244 967C236.416 967 234.588 964.954 234.588 962.907C234.588 960.861 236.416 958.815 238.244 958.815C240.072 958.815 241.9 960.861 241.9 962.907Z" fill="#E5E5E5"/>
<path d="M319.281 962.907C319.281 964.954 317.453 967 315.625 967C313.797 967 311.969 964.954 311.969 962.907C311.969 960.861 313.797 958.815 315.625 958.815C317.453 958.815 319.281 960.861 319.281 962.907Z" fill="#E5E5E5"/>
<path d="M397.272 962.907C397.272 964.954 395.444 967 393.617 967C391.789 967 389.961 964.954 389.961 962.907C389.961 960.861 391.789 958.815 393.617 958.815C395.444 958.815 397.272 960.861 397.272 962.907Z" fill="#E5E5E5"/>
<path d="M475.264 962.907C475.264 964.954 473.436 967 471.608 967C469.78 967 467.952 964.954 467.952 962.907C467.952 960.861 469.78 958.815 471.608 958.815C473.436 958.815 475.264 960.861 475.264 962.907Z" fill="#E5E5E5"/>
<path d="M552.645 962.907C552.645 964.954 550.817 967 548.989 967C547.161 967 545.333 964.954 545.333 962.907C545.333 960.861 547.161 958.815 548.989 958.815C551.427 958.815 552.645 960.861 552.645 962.907Z" fill="#E5E5E5"/>
<path d="M630.636 962.907C630.636 964.954 628.808 967 626.98 967C625.153 967 623.325 964.954 623.325 962.907C623.325 960.861 625.153 958.815 626.98 958.815C628.808 958.815 630.636 960.861 630.636 962.907Z" fill="#E5E5E5"/>
<path d="M708.627 962.907C708.627 964.954 706.799 967 704.971 967C703.143 967 701.315 964.954 701.315 962.907C701.315 960.861 703.143 958.815 704.971 958.815C706.799 958.815 708.627 960.861 708.627 962.907Z" fill="#E5E5E5"/>
<path d="M786.618 962.907C786.618 964.954 784.79 967 782.962 967C781.134 967 779.307 964.954 779.307 962.907C779.307 960.861 781.134 958.815 782.962 958.815C784.79 958.815 786.618 960.861 786.618 962.907Z" fill="#E5E5E5"/>
</svg>
