<svg width="486" height="150" viewBox="0 0 486 150" fill="none" xmlns="http://www.w3.org/2000/svg">
<path opacity="0.05" d="M100.363 6.40098V41.601H44.7633V61.201H84.7633V94.601H44.7633V148.001H0.363281V6.40098H100.363ZM169.002 149.401C157.669 149.401 147.469 147.068 138.402 142.401C129.336 137.734 122.202 131.068 117.002 122.401C111.936 113.601 109.402 103.334 109.402 91.601C109.402 79.8676 111.936 69.6676 117.002 61.001C122.202 52.201 129.336 45.4676 138.402 40.801C147.469 36.1343 157.669 33.801 169.002 33.801C180.336 33.801 190.536 36.1343 199.602 40.801C208.669 45.4676 215.736 52.201 220.802 61.001C226.002 69.6676 228.602 79.8676 228.602 91.601C228.602 103.334 226.002 113.601 220.802 122.401C215.736 131.068 208.669 137.734 199.602 142.401C190.536 147.068 180.336 149.401 169.002 149.401ZM169.002 111.001C173.136 111.001 176.602 109.401 179.402 106.201C182.202 102.868 183.602 98.001 183.602 91.601C183.602 85.201 182.202 80.401 179.402 77.201C176.602 73.8676 173.136 72.201 169.002 72.201C164.869 72.201 161.402 73.8676 158.602 77.201C155.802 80.401 154.402 85.201 154.402 91.601C154.402 98.001 155.736 102.868 158.402 106.201C161.202 109.401 164.736 111.001 169.002 111.001ZM296.151 149.401C284.817 149.401 274.617 147.068 265.551 142.401C256.484 137.734 249.351 131.068 244.151 122.401C239.084 113.601 236.551 103.334 236.551 91.601C236.551 79.8676 239.084 69.6676 244.151 61.001C249.351 52.201 256.484 45.4676 265.551 40.801C274.617 36.1343 284.817 33.801 296.151 33.801C307.484 33.801 317.684 36.1343 326.751 40.801C335.817 45.4676 342.884 52.201 347.951 61.001C353.151 69.6676 355.751 79.8676 355.751 91.601C355.751 103.334 353.151 113.601 347.951 122.401C342.884 131.068 335.817 137.734 326.751 142.401C317.684 147.068 307.484 149.401 296.151 149.401ZM296.151 111.001C300.284 111.001 303.751 109.401 306.551 106.201C309.351 102.868 310.751 98.001 310.751 91.601C310.751 85.201 309.351 80.401 306.551 77.201C303.751 73.8676 300.284 72.201 296.151 72.201C292.017 72.201 288.551 73.8676 285.751 77.201C282.951 80.401 281.551 85.201 281.551 91.601C281.551 98.001 282.884 102.868 285.551 106.201C288.351 109.401 291.884 111.001 296.151 111.001ZM363.699 91.601C363.699 79.7343 365.699 69.4676 369.699 60.801C373.833 52.001 379.433 45.3343 386.499 40.801C393.566 36.1343 401.499 33.801 410.299 33.801C417.633 33.801 423.899 35.3343 429.099 38.401C434.433 41.3343 438.499 45.401 441.299 50.601V0.000974655H485.699V148.001H441.299V132.601C438.499 137.801 434.433 141.934 429.099 145.001C423.899 147.934 417.633 149.401 410.299 149.401C401.499 149.401 393.566 147.134 386.499 142.601C379.433 137.934 373.833 131.268 369.699 122.601C365.699 113.801 363.699 103.468 363.699 91.601ZM441.499 91.601C441.499 85.601 439.966 80.9343 436.899 77.601C433.833 74.2676 429.899 72.601 425.099 72.601C420.299 72.601 416.366 74.2676 413.299 77.601C410.233 80.9343 408.699 85.601 408.699 91.601C408.699 97.601 410.233 102.268 413.299 105.601C416.366 108.934 420.299 110.601 425.099 110.601C429.899 110.601 433.833 108.934 436.899 105.601C439.966 102.268 441.499 97.601 441.499 91.601Z" fill="#2E266F"/>
</svg>
