<svg width="26" height="28" viewBox="0 0 26 28" fill="none" xmlns="http://www.w3.org/2000/svg">
<path d="M6.37062 8.99609H1.23455C1.0066 8.99609 0.821899 9.19636 0.821899 9.44331V27.3254C0.821899 27.5725 1.0066 27.7726 1.23455 27.7726H6.37062C6.59857 27.7726 6.78327 27.5725 6.78327 27.3254V9.44331C6.78327 9.19636 6.59857 8.99609 6.37062 8.99609Z" fill="white"/>
<path d="M3.80443 0.106445C1.93557 0.106445 0.415161 1.75238 0.415161 3.7755C0.415161 5.79952 1.93557 7.44608 3.80443 7.44608C5.6718 7.44608 7.19097 5.79943 7.19097 3.7755C7.19106 1.75238 5.6718 0.106445 3.80443 0.106445Z" fill="white"/>
<path d="M19.4351 8.552C17.3722 8.552 15.8473 9.51306 14.9223 10.6051V9.44365C14.9223 9.1967 14.7376 8.99644 14.5097 8.99644H9.59088C9.36293 8.99644 9.17822 9.1967 9.17822 9.44365V27.3257C9.17822 27.5727 9.36293 27.7729 9.59088 27.7729H14.7158C14.9438 27.7729 15.1285 27.5727 15.1285 27.3257V18.4782C15.1285 15.4968 15.8757 14.3353 17.7934 14.3353C19.882 14.3353 20.0479 16.1973 20.0479 18.6316V27.3258C20.0479 27.5728 20.2326 27.773 20.4606 27.773H25.5875C25.8154 27.773 26.0001 27.5728 26.0001 27.3258V17.5172C26.0001 13.084 25.2201 8.552 19.4351 8.552Z" fill="white"/>
</svg>
