<svg width="745" height="830" viewBox="0 0 745 830" fill="none" xmlns="http://www.w3.org/2000/svg">
<path d="M6.30911 3.92912C6.30911 6.38106 5.25759 7.60702 3.15455 7.60702C1.05152 7.60702 0 6.38106 0 3.92912C0 2.09017 1.57728 0.251221 3.15455 0.251221C4.73183 0.251221 6.30911 2.09017 6.30911 3.92912Z" fill="#E5E5E5"/>
<path d="M73.6061 3.92912C73.6061 5.76807 72.0288 7.60702 70.4516 7.60702C68.8743 7.60702 67.297 5.76807 67.297 3.92912C67.297 2.09017 68.3485 0.251221 70.4516 0.251221C72.0288 0.251221 73.6061 2.09017 73.6061 3.92912Z" fill="#E5E5E5"/>
<path d="M140.903 3.92912C140.903 5.76807 139.326 7.60702 137.749 7.60702C136.171 7.60702 134.594 5.76807 134.594 3.92912C134.594 2.09017 136.171 0.251221 137.749 0.251221C139.326 0.251221 140.903 2.09017 140.903 3.92912Z" fill="#E5E5E5"/>
<path d="M208.201 3.92912C208.201 5.76807 206.623 7.60702 205.046 7.60702C203.469 7.60702 201.891 5.76807 201.891 3.92912C201.891 2.09017 203.469 0.251221 205.046 0.251221C206.623 0.251221 208.201 2.09017 208.201 3.92912Z" fill="#E5E5E5"/>
<path d="M274.972 3.92912C274.972 5.76807 273.394 7.60702 271.817 7.60702C270.24 7.60702 268.663 5.76807 268.663 3.92912C268.663 2.09017 270.24 0.251221 271.817 0.251221C273.394 0.251221 274.972 2.09017 274.972 3.92912Z" fill="#E5E5E5"/>
<path d="M342.269 3.92912C342.269 5.76807 340.692 7.60702 339.114 7.60702C337.537 7.60702 335.96 6.38106 335.96 3.92912C335.96 2.09017 337.537 0.251221 339.114 0.251221C340.692 0.251221 342.269 2.09017 342.269 3.92912Z" fill="#E5E5E5"/>
<path d="M409.566 3.92912C409.566 5.76807 407.989 7.60702 406.411 7.60702C404.834 7.60702 402.731 6.38106 402.731 3.92912C402.731 2.09017 404.308 0.251221 405.886 0.251221C407.463 0.251221 409.566 2.09017 409.566 3.92912Z" fill="#E5E5E5"/>
<path d="M476.337 3.92912C476.337 5.76807 474.76 7.60702 473.183 7.60702C471.606 7.60702 470.028 5.76807 470.028 3.92912C470.028 2.09017 471.606 0.251221 473.183 0.251221C475.286 0.251221 476.337 2.09017 476.337 3.92912Z" fill="#E5E5E5"/>
<path d="M543.635 3.92912C543.635 5.76807 542.057 7.60702 540.48 7.60702C538.903 7.60702 537.325 5.76807 537.325 3.92912C537.325 2.09017 538.903 0.251221 540.48 0.251221C542.057 0.251221 543.635 2.09017 543.635 3.92912Z" fill="#E5E5E5"/>
<path d="M610.932 3.92912C610.932 5.76807 609.354 7.60702 607.777 7.60702C606.2 7.60702 604.623 5.76807 604.623 3.92912C604.623 2.09017 606.2 0.251221 607.777 0.251221C609.354 0.251221 610.932 2.09017 610.932 3.92912Z" fill="#E5E5E5"/>
<path d="M678.229 3.92912C678.229 5.76807 676.651 7.60702 675.074 7.60702C673.497 7.60702 671.919 5.76807 671.919 3.92912C671.919 2.09017 673.497 0.251221 675.074 0.251221C676.651 0.251221 678.229 2.09017 678.229 3.92912Z" fill="#E5E5E5"/>
<path d="M745 3.92912C745 5.76807 743.423 7.60702 741.845 7.60702C740.268 7.60702 738.691 5.76807 738.691 3.92912C738.691 2.09017 740.268 0.251221 741.845 0.251221C743.949 0.251221 745 2.09017 745 3.92912Z" fill="#E5E5E5"/>
<path d="M6.30911 82.3913C6.30911 84.2302 5.25759 86.0692 3.15455 86.0692C1.05152 86.0692 0 84.2302 0 82.3913C0 80.5523 1.57728 78.7134 3.15455 78.7134C4.73183 78.7134 6.30911 79.9393 6.30911 82.3913Z" fill="#E5E5E5"/>
<path d="M73.6061 82.3913C73.6061 84.2302 72.0288 86.0692 70.4516 86.0692C68.8743 86.0692 67.297 84.2302 67.297 82.3913C67.297 80.5523 68.8743 78.7134 70.4516 78.7134C72.0288 78.7134 73.6061 79.9393 73.6061 82.3913Z" fill="#E5E5E5"/>
<path d="M140.903 82.3913C140.903 84.2302 139.326 86.0692 137.749 86.0692C136.171 86.0692 134.594 84.2302 134.594 82.3913C134.594 80.5523 136.171 78.7134 137.749 78.7134C139.326 78.7134 140.903 79.9393 140.903 82.3913Z" fill="#E5E5E5"/>
<path d="M208.201 82.3913C208.201 84.2302 206.623 86.0692 205.046 86.0692C203.469 86.0692 201.891 84.2302 201.891 82.3913C201.891 80.5523 203.469 78.7134 205.046 78.7134C206.623 78.7134 208.201 79.9393 208.201 82.3913Z" fill="#E5E5E5"/>
<path d="M274.972 82.3913C274.972 84.2302 273.394 86.0692 271.817 86.0692C270.24 86.0692 268.663 84.2302 268.663 82.3913C268.663 80.5523 270.24 78.7134 271.817 78.7134C273.394 78.7134 274.972 79.9393 274.972 82.3913Z" fill="#E5E5E5"/>
<path d="M342.269 82.3913C342.269 84.2302 340.692 86.0692 339.114 86.0692C337.537 86.0692 335.96 84.2302 335.96 82.3913C335.96 80.5523 337.537 78.7134 339.114 78.7134C340.692 78.7134 342.269 79.9393 342.269 82.3913Z" fill="#E5E5E5"/>
<path d="M409.566 82.3913C409.566 84.2302 407.989 86.0692 406.411 86.0692C404.834 86.0692 403.257 84.2302 403.257 82.3913C403.257 80.5523 404.834 78.7134 406.411 78.7134C407.989 78.7134 409.566 79.9393 409.566 82.3913Z" fill="#E5E5E5"/>
<path d="M476.337 82.3913C476.337 84.2302 474.76 86.0692 473.183 86.0692C471.606 86.0692 470.028 84.2302 470.028 82.3913C470.028 80.5523 471.606 78.7134 473.183 78.7134C475.286 78.7134 476.337 79.9393 476.337 82.3913Z" fill="#E5E5E5"/>
<path d="M543.635 82.3913C543.635 84.2302 542.057 86.0692 540.48 86.0692C538.903 86.0692 537.325 84.2302 537.325 82.3913C537.325 80.5523 538.903 78.7134 540.48 78.7134C542.057 78.7134 543.635 79.9393 543.635 82.3913Z" fill="#E5E5E5"/>
<path d="M610.932 82.3913C610.932 84.2302 609.354 86.0692 607.777 86.0692C606.2 86.0692 604.623 84.2302 604.623 82.3913C604.623 80.5523 606.2 78.7134 607.777 78.7134C609.354 78.7134 610.932 79.9393 610.932 82.3913Z" fill="#E5E5E5"/>
<path d="M678.229 82.3913C678.229 84.2302 676.651 86.0692 675.074 86.0692C673.497 86.0692 671.919 84.2302 671.919 82.3913C671.919 80.5523 673.497 78.7134 675.074 78.7134C676.651 78.7134 678.229 79.9393 678.229 82.3913Z" fill="#E5E5E5"/>
<path d="M745 82.3913C745 84.2302 743.423 86.0692 741.845 86.0692C740.268 86.0692 738.691 84.2302 738.691 82.3913C738.691 80.5523 740.268 78.7134 741.845 78.7134C743.949 78.7134 745 79.9393 745 82.3913Z" fill="#E5E5E5"/>
<path d="M6.30911 160.853C6.30911 162.692 4.73183 164.531 3.15455 164.531C1.57728 164.531 0 162.692 0 160.853C0 159.014 1.57728 157.176 3.15455 157.176C4.73183 157.176 6.30911 158.402 6.30911 160.853Z" fill="#E5E5E5"/>
<path d="M73.6061 160.852C73.6061 162.691 72.0288 164.53 70.4516 164.53C68.8743 164.53 67.297 162.691 67.297 160.852C67.297 159.013 68.8743 157.174 70.4516 157.174C72.0288 156.561 73.6061 158.4 73.6061 160.852Z" fill="#E5E5E5"/>
<path d="M140.903 160.852C140.903 162.691 139.326 164.53 137.749 164.53C136.171 164.53 134.594 162.691 134.594 160.852C134.594 159.013 136.171 157.174 137.749 157.174C139.326 156.561 140.903 158.4 140.903 160.852Z" fill="#E5E5E5"/>
<path d="M208.201 160.852C208.201 162.691 206.623 164.53 205.046 164.53C203.469 164.53 201.891 162.691 201.891 160.852C201.891 159.013 203.469 157.174 205.046 157.174C206.623 156.561 208.201 158.4 208.201 160.852Z" fill="#E5E5E5"/>
<path d="M274.972 160.852C274.972 162.691 273.394 164.53 271.817 164.53C270.24 164.53 268.663 162.691 268.663 160.852C268.663 159.013 270.24 157.174 271.817 157.174C273.394 156.561 274.972 158.4 274.972 160.852Z" fill="#E5E5E5"/>
<path d="M342.269 160.853C342.269 162.692 340.692 164.531 339.114 164.531C337.537 164.531 335.96 162.692 335.96 160.853C335.96 159.014 337.537 157.176 339.114 157.176C340.692 157.176 342.269 158.402 342.269 160.853Z" fill="#E5E5E5"/>
<path d="M409.566 160.853C409.566 162.692 407.989 164.531 406.411 164.531C404.834 164.531 403.257 162.692 403.257 160.853C403.257 159.014 404.834 157.176 406.411 157.176C407.989 157.176 409.566 158.402 409.566 160.853Z" fill="#E5E5E5"/>
<path d="M476.337 160.852C476.337 162.691 474.76 164.53 473.183 164.53C471.606 164.53 470.028 162.691 470.028 160.852C470.028 159.013 471.606 157.174 473.183 157.174C475.286 156.561 476.337 158.4 476.337 160.852Z" fill="#E5E5E5"/>
<path d="M543.635 160.852C543.635 162.691 542.057 164.53 540.48 164.53C538.903 164.53 537.325 162.691 537.325 160.852C537.325 159.013 538.903 157.174 540.48 157.174C542.057 156.561 543.635 158.4 543.635 160.852Z" fill="#E5E5E5"/>
<path d="M610.932 160.852C610.932 162.691 609.354 164.53 607.777 164.53C606.2 164.53 604.623 162.691 604.623 160.852C604.623 159.013 606.2 157.174 607.777 157.174C609.354 156.561 610.932 158.4 610.932 160.852Z" fill="#E5E5E5"/>
<path d="M678.229 160.852C678.229 162.691 676.651 164.53 675.074 164.53C673.497 164.53 671.919 162.691 671.919 160.852C671.919 159.013 673.497 157.174 675.074 157.174C676.651 156.561 678.229 158.4 678.229 160.852Z" fill="#E5E5E5"/>
<path d="M745 160.852C745 162.691 743.423 164.53 741.845 164.53C740.268 164.53 738.691 162.691 738.691 160.852C738.691 159.013 740.268 157.174 741.845 157.174C743.949 156.561 745 158.4 745 160.852Z" fill="#E5E5E5"/>
<path d="M6.30911 238.702C6.30911 240.541 4.73183 242.38 3.15455 242.38C1.57728 242.38 0 241.154 0 238.702C0 236.863 1.57728 235.024 3.15455 235.024C4.73183 235.024 6.30911 236.863 6.30911 238.702Z" fill="#E5E5E5"/>
<path d="M73.6061 238.702C73.6061 240.541 72.0288 242.38 70.4516 242.38C68.8743 242.38 67.297 240.541 67.297 238.702C67.297 236.863 68.8743 235.024 70.4516 235.024C72.0288 235.024 73.6061 236.863 73.6061 238.702Z" fill="#E5E5E5"/>
<path d="M140.903 238.702C140.903 240.541 139.326 242.38 137.749 242.38C136.171 242.38 134.594 240.541 134.594 238.702C134.594 236.863 136.171 235.024 137.749 235.024C139.326 235.024 140.903 236.863 140.903 238.702Z" fill="#E5E5E5"/>
<path d="M208.201 238.702C208.201 240.541 206.623 242.38 205.046 242.38C203.469 242.38 201.891 240.541 201.891 238.702C201.891 236.863 203.469 235.024 205.046 235.024C206.623 235.024 208.201 236.863 208.201 238.702Z" fill="#E5E5E5"/>
<path d="M274.972 238.702C274.972 240.541 273.394 242.38 271.817 242.38C270.24 242.38 268.663 240.541 268.663 238.702C268.663 236.863 270.24 235.024 271.817 235.024C273.394 235.024 274.972 236.863 274.972 238.702Z" fill="#E5E5E5"/>
<path d="M342.269 238.702C342.269 240.541 340.692 242.38 339.114 242.38C337.537 242.38 335.96 240.541 335.96 238.702C335.96 236.863 337.537 235.024 339.114 235.024C340.692 235.024 342.269 236.863 342.269 238.702Z" fill="#E5E5E5"/>
<path d="M409.566 238.702C409.566 240.541 407.989 242.38 406.411 242.38C404.834 242.38 403.257 240.541 403.257 238.702C403.257 236.863 404.834 235.024 406.411 235.024C407.989 235.024 409.566 236.863 409.566 238.702Z" fill="#E5E5E5"/>
<path d="M476.337 238.702C476.337 240.541 474.76 242.38 473.183 242.38C471.606 242.38 470.028 240.541 470.028 238.702C470.028 236.863 471.606 235.024 473.183 235.024C475.286 235.024 476.337 236.863 476.337 238.702Z" fill="#E5E5E5"/>
<path d="M543.635 238.702C543.635 240.541 542.057 242.38 540.48 242.38C538.903 242.38 537.325 240.541 537.325 238.702C537.325 236.863 538.903 235.024 540.48 235.024C542.057 235.024 543.635 236.863 543.635 238.702Z" fill="#E5E5E5"/>
<path d="M610.932 238.702C610.932 240.541 609.354 242.38 607.777 242.38C606.2 242.38 604.623 240.541 604.623 238.702C604.623 236.863 606.2 235.024 607.777 235.024C609.354 235.024 610.932 236.863 610.932 238.702Z" fill="#E5E5E5"/>
<path d="M678.229 238.702C678.229 240.541 676.651 242.38 675.074 242.38C673.497 242.38 671.919 240.541 671.919 238.702C671.919 236.863 673.497 235.024 675.074 235.024C676.651 235.024 678.229 236.863 678.229 238.702Z" fill="#E5E5E5"/>
<path d="M745 238.702C745 240.541 743.423 242.38 741.845 242.38C740.268 242.38 738.691 240.541 738.691 238.702C738.691 236.863 740.268 235.024 741.845 235.024C743.949 235.024 745 236.863 745 238.702Z" fill="#E5E5E5"/>
<path d="M6.30911 317.164C6.30911 319.003 4.73183 320.842 3.15455 320.842C1.57728 320.842 0 319.003 0 317.164C0 315.325 1.57728 313.486 3.15455 313.486C4.73183 313.486 6.30911 315.325 6.30911 317.164Z" fill="#E5E5E5"/>
<path d="M73.6061 317.164C73.6061 319.003 72.0288 320.842 70.4516 320.842C68.8743 320.842 67.297 319.003 67.297 317.164C67.297 315.325 68.8743 313.486 70.4516 313.486C72.0288 313.486 73.6061 315.325 73.6061 317.164Z" fill="#E5E5E5"/>
<path d="M140.903 317.164C140.903 319.003 139.326 320.842 137.749 320.842C136.171 320.842 134.594 319.003 134.594 317.164C134.594 315.325 136.171 313.486 137.749 313.486C139.326 313.486 140.903 315.325 140.903 317.164Z" fill="#E5E5E5"/>
<path d="M208.201 317.164C208.201 319.003 206.623 320.842 205.046 320.842C203.469 320.842 201.891 319.003 201.891 317.164C201.891 315.325 203.469 313.486 205.046 313.486C206.623 313.486 208.201 315.325 208.201 317.164Z" fill="#E5E5E5"/>
<path d="M274.972 317.164C274.972 319.003 273.394 320.842 271.817 320.842C270.24 320.842 268.663 319.003 268.663 317.164C268.663 315.325 270.24 313.486 271.817 313.486C273.394 313.486 274.972 315.325 274.972 317.164Z" fill="#E5E5E5"/>
<path d="M342.269 317.164C342.269 319.003 340.692 320.842 339.114 320.842C337.537 320.842 335.96 319.003 335.96 317.164C335.96 315.325 337.537 313.486 339.114 313.486C340.692 313.486 342.269 315.325 342.269 317.164Z" fill="#E5E5E5"/>
<path d="M409.566 317.164C409.566 319.003 407.989 320.842 406.411 320.842C404.834 320.842 403.257 319.003 403.257 317.164C403.257 315.325 404.834 313.486 406.411 313.486C407.989 313.486 409.566 315.325 409.566 317.164Z" fill="#E5E5E5"/>
<path d="M476.337 317.164C476.337 319.003 474.76 320.842 473.183 320.842C471.606 320.842 470.028 319.003 470.028 317.164C470.028 315.325 471.606 313.486 473.183 313.486C475.286 313.486 476.337 315.325 476.337 317.164Z" fill="#E5E5E5"/>
<path d="M543.635 317.164C543.635 319.003 542.057 320.842 540.48 320.842C538.903 320.842 537.325 319.003 537.325 317.164C537.325 315.325 538.903 313.486 540.48 313.486C542.057 313.486 543.635 315.325 543.635 317.164Z" fill="#E5E5E5"/>
<path d="M610.932 317.164C610.932 319.003 609.354 320.842 607.777 320.842C606.2 320.842 604.623 319.003 604.623 317.164C604.623 315.325 606.2 313.486 607.777 313.486C609.354 313.486 610.932 315.325 610.932 317.164Z" fill="#E5E5E5"/>
<path d="M678.229 317.164C678.229 319.003 676.651 320.842 675.074 320.842C673.497 320.842 671.919 319.003 671.919 317.164C671.919 315.325 673.497 313.486 675.074 313.486C676.651 313.486 678.229 315.325 678.229 317.164Z" fill="#E5E5E5"/>
<path d="M745 317.164C745 319.003 743.423 320.842 741.845 320.842C740.268 320.842 738.691 319.003 738.691 317.164C738.691 315.325 740.268 313.486 741.845 313.486C743.949 313.486 745 315.325 745 317.164Z" fill="#E5E5E5"/>
<path d="M6.30911 395.625C6.30911 397.464 4.73183 399.303 3.15455 399.303C1.57728 399.303 0 397.464 0 395.625C0 393.786 1.57728 391.947 3.15455 391.947C4.73183 391.947 6.30911 393.173 6.30911 395.625Z" fill="#E5E5E5"/>
<path d="M73.6061 395.625C73.6061 397.464 72.0288 399.303 70.4516 399.303C68.8743 399.303 67.297 397.464 67.297 395.625C67.297 393.786 68.8743 391.947 70.4516 391.947C72.0288 391.947 73.6061 393.173 73.6061 395.625Z" fill="#E5E5E5"/>
<path d="M140.903 395.625C140.903 397.464 139.326 399.303 137.749 399.303C136.171 399.303 134.594 397.464 134.594 395.625C134.594 393.786 136.171 391.947 137.749 391.947C139.326 391.947 140.903 393.173 140.903 395.625Z" fill="#E5E5E5"/>
<path d="M208.201 395.625C208.201 397.464 206.623 399.303 205.046 399.303C203.469 399.303 201.891 397.464 201.891 395.625C201.891 393.786 203.469 391.947 205.046 391.947C206.623 391.947 208.201 393.173 208.201 395.625Z" fill="#E5E5E5"/>
<path d="M274.972 395.625C274.972 397.464 273.394 399.303 271.817 399.303C270.24 399.303 268.663 397.464 268.663 395.625C268.663 393.786 270.24 391.947 271.817 391.947C273.394 391.947 274.972 393.173 274.972 395.625Z" fill="#E5E5E5"/>
<path d="M342.269 395.625C342.269 397.464 340.692 399.303 339.114 399.303C337.537 399.303 335.96 397.464 335.96 395.625C335.96 393.786 337.537 391.947 339.114 391.947C340.692 391.947 342.269 393.173 342.269 395.625Z" fill="#E5E5E5"/>
<path d="M409.566 395.625C409.566 397.464 407.989 399.303 406.411 399.303C404.834 399.303 403.257 397.464 403.257 395.625C403.257 393.786 404.834 391.947 406.411 391.947C407.989 391.947 409.566 393.173 409.566 395.625Z" fill="#E5E5E5"/>
<path d="M476.337 395.625C476.337 397.464 474.76 399.303 473.183 399.303C471.606 399.303 470.028 397.464 470.028 395.625C470.028 393.786 471.606 391.947 473.183 391.947C475.286 391.947 476.337 393.173 476.337 395.625Z" fill="#E5E5E5"/>
<path d="M543.635 395.625C543.635 397.464 542.057 399.303 540.48 399.303C538.903 399.303 537.325 397.464 537.325 395.625C537.325 393.786 538.903 391.947 540.48 391.947C542.057 391.947 543.635 393.173 543.635 395.625Z" fill="#E5E5E5"/>
<path d="M610.932 395.625C610.932 397.464 609.354 399.303 607.777 399.303C606.2 399.303 604.623 397.464 604.623 395.625C604.623 393.786 606.2 391.947 607.777 391.947C609.354 391.947 610.932 393.173 610.932 395.625Z" fill="#E5E5E5"/>
<path d="M678.229 395.625C678.229 397.464 676.651 399.303 675.074 399.303C673.497 399.303 671.919 397.464 671.919 395.625C671.919 393.786 673.497 391.947 675.074 391.947C676.651 391.947 678.229 393.173 678.229 395.625Z" fill="#E5E5E5"/>
<path d="M745 395.625C745 397.464 743.423 399.303 741.845 399.303C740.268 399.303 738.691 397.464 738.691 395.625C738.691 393.786 740.268 391.947 741.845 391.947C743.949 391.947 745 393.173 745 395.625Z" fill="#E5E5E5"/>
<path d="M6.30911 474.087C6.30911 475.926 4.73183 477.765 3.15455 477.765C1.57728 477.765 0 475.926 0 474.087C0 472.248 1.57728 470.409 3.15455 470.409C4.73183 470.409 6.30911 471.635 6.30911 474.087Z" fill="#E5E5E5"/>
<path d="M73.6061 474.088C73.6061 475.927 72.0288 477.766 70.4516 477.766C68.8743 477.766 67.297 475.927 67.297 474.088C67.297 472.249 68.8743 470.41 70.4516 470.41C72.0288 469.797 73.6061 471.636 73.6061 474.088Z" fill="#E5E5E5"/>
<path d="M140.903 474.088C140.903 475.927 139.326 477.766 137.749 477.766C136.171 477.766 134.594 475.927 134.594 474.088C134.594 472.249 136.171 470.41 137.749 470.41C139.326 469.797 140.903 471.636 140.903 474.088Z" fill="#E5E5E5"/>
<path d="M208.201 474.088C208.201 475.927 206.623 477.766 205.046 477.766C203.469 477.766 201.891 475.927 201.891 474.088C201.891 472.249 203.469 470.41 205.046 470.41C206.623 469.797 208.201 471.636 208.201 474.088Z" fill="#E5E5E5"/>
<path d="M274.972 474.088C274.972 475.927 273.394 477.766 271.817 477.766C270.24 477.766 268.663 475.927 268.663 474.088C268.663 472.249 270.24 470.41 271.817 470.41C273.394 469.797 274.972 471.636 274.972 474.088Z" fill="#E5E5E5"/>
<path d="M342.269 474.087C342.269 475.926 340.692 477.765 339.114 477.765C337.537 477.765 335.96 475.926 335.96 474.087C335.96 472.248 337.537 470.409 339.114 470.409C340.692 470.409 342.269 471.635 342.269 474.087Z" fill="#E5E5E5"/>
<path d="M409.566 474.087C409.566 475.926 407.989 477.765 406.411 477.765C404.834 477.765 403.257 475.926 403.257 474.087C403.257 472.248 404.834 470.409 406.411 470.409C407.989 470.409 409.566 471.635 409.566 474.087Z" fill="#E5E5E5"/>
<path d="M476.337 474.088C476.337 475.927 474.76 477.766 473.183 477.766C471.606 477.766 470.028 475.927 470.028 474.088C470.028 472.249 471.606 470.41 473.183 470.41C475.286 469.797 476.337 471.636 476.337 474.088Z" fill="#E5E5E5"/>
<path d="M543.635 474.088C543.635 475.927 542.057 477.766 540.48 477.766C538.903 477.766 537.325 475.927 537.325 474.088C537.325 472.249 538.903 470.41 540.48 470.41C542.057 469.797 543.635 471.636 543.635 474.088Z" fill="#E5E5E5"/>
<path d="M610.932 474.088C610.932 475.927 609.354 477.766 607.777 477.766C606.2 477.766 604.623 475.927 604.623 474.088C604.623 472.249 606.2 470.41 607.777 470.41C609.354 469.797 610.932 471.636 610.932 474.088Z" fill="#E5E5E5"/>
<path d="M678.229 474.088C678.229 475.927 676.651 477.766 675.074 477.766C673.497 477.766 671.919 475.927 671.919 474.088C671.919 472.249 673.497 470.41 675.074 470.41C676.651 469.797 678.229 471.636 678.229 474.088Z" fill="#E5E5E5"/>
<path d="M745 474.088C745 475.927 743.423 477.766 741.845 477.766C740.268 477.766 738.691 475.927 738.691 474.088C738.691 472.249 740.268 470.41 741.845 470.41C743.949 469.797 745 471.636 745 474.088Z" fill="#E5E5E5"/>
<path d="M6.30911 551.936C6.30911 553.775 4.73183 555.614 3.15455 555.614C1.57728 555.614 0 554.388 0 551.936C0 550.097 1.57728 548.258 3.15455 548.258C4.73183 548.258 6.30911 550.097 6.30911 551.936Z" fill="#E5E5E5"/>
<path d="M73.6061 551.936C73.6061 553.775 72.0288 555.614 70.4516 555.614C68.8743 555.614 67.297 553.775 67.297 551.936C67.297 550.097 68.8743 548.258 70.4516 548.258C72.0288 548.258 73.6061 550.097 73.6061 551.936Z" fill="#E5E5E5"/>
<path d="M140.903 551.936C140.903 553.775 139.326 555.614 137.749 555.614C136.171 555.614 134.594 553.775 134.594 551.936C134.594 550.097 136.171 548.258 137.749 548.258C139.326 548.258 140.903 550.097 140.903 551.936Z" fill="#E5E5E5"/>
<path d="M208.201 551.936C208.201 553.775 206.623 555.614 205.046 555.614C203.469 555.614 201.891 553.775 201.891 551.936C201.891 550.097 203.469 548.258 205.046 548.258C206.623 548.258 208.201 550.097 208.201 551.936Z" fill="#E5E5E5"/>
<path d="M274.972 551.936C274.972 553.775 273.394 555.614 271.817 555.614C270.24 555.614 268.663 553.775 268.663 551.936C268.663 550.097 270.24 548.258 271.817 548.258C273.394 548.258 274.972 550.097 274.972 551.936Z" fill="#E5E5E5"/>
<path d="M342.269 551.936C342.269 553.775 340.692 555.614 339.114 555.614C337.537 555.614 335.96 553.775 335.96 551.936C335.96 550.097 337.537 548.258 339.114 548.258C340.692 548.258 342.269 550.097 342.269 551.936Z" fill="#E5E5E5"/>
<path d="M409.566 551.936C409.566 553.775 407.989 555.614 406.411 555.614C404.834 555.614 403.257 553.775 403.257 551.936C403.257 550.097 404.834 548.258 406.411 548.258C407.989 548.258 409.566 550.097 409.566 551.936Z" fill="#E5E5E5"/>
<path d="M476.337 551.936C476.337 553.775 474.76 555.614 473.183 555.614C471.606 555.614 470.028 553.775 470.028 551.936C470.028 550.097 471.606 548.258 473.183 548.258C475.286 548.258 476.337 550.097 476.337 551.936Z" fill="#E5E5E5"/>
<path d="M543.635 551.936C543.635 553.775 542.057 555.614 540.48 555.614C538.903 555.614 537.325 553.775 537.325 551.936C537.325 550.097 538.903 548.258 540.48 548.258C542.057 548.258 543.635 550.097 543.635 551.936Z" fill="#E5E5E5"/>
<path d="M610.932 551.936C610.932 553.775 609.354 555.614 607.777 555.614C606.2 555.614 604.623 553.775 604.623 551.936C604.623 550.097 606.2 548.258 607.777 548.258C609.354 548.258 610.932 550.097 610.932 551.936Z" fill="#E5E5E5"/>
<path d="M678.229 551.936C678.229 553.775 676.651 555.614 675.074 555.614C673.497 555.614 671.919 553.775 671.919 551.936C671.919 550.097 673.497 548.258 675.074 548.258C676.651 548.258 678.229 550.097 678.229 551.936Z" fill="#E5E5E5"/>
<path d="M745 551.936C745 553.775 743.423 555.614 741.845 555.614C740.268 555.614 738.691 553.775 738.691 551.936C738.691 550.097 740.268 548.258 741.845 548.258C743.949 548.258 745 550.097 745 551.936Z" fill="#E5E5E5"/>
<path d="M6.30911 630.398C6.30911 632.237 4.73183 634.076 3.15455 634.076C1.57728 634.076 0 632.237 0 630.398C0 628.559 1.57728 626.72 3.15455 626.72C4.73183 626.72 6.30911 628.559 6.30911 630.398Z" fill="#E5E5E5"/>
<path d="M73.6061 630.398C73.6061 632.237 72.0288 634.076 70.4516 634.076C68.8743 634.076 67.297 632.237 67.297 630.398C67.297 628.559 68.8743 626.72 70.4516 626.72C72.0288 626.72 73.6061 628.559 73.6061 630.398Z" fill="#E5E5E5"/>
<path d="M140.903 630.398C140.903 632.237 139.326 634.076 137.749 634.076C136.171 634.076 134.594 632.237 134.594 630.398C134.594 628.559 136.171 626.72 137.749 626.72C139.326 626.72 140.903 628.559 140.903 630.398Z" fill="#E5E5E5"/>
<path d="M208.201 630.398C208.201 632.237 206.623 634.076 205.046 634.076C203.469 634.076 201.891 632.237 201.891 630.398C201.891 628.559 203.469 626.72 205.046 626.72C206.623 626.72 208.201 628.559 208.201 630.398Z" fill="#E5E5E5"/>
<path d="M274.972 630.398C274.972 632.237 273.394 634.076 271.817 634.076C270.24 634.076 268.663 632.237 268.663 630.398C268.663 628.559 270.24 626.72 271.817 626.72C273.394 626.72 274.972 628.559 274.972 630.398Z" fill="#E5E5E5"/>
<path d="M342.269 630.398C342.269 632.237 340.692 634.076 339.114 634.076C337.537 634.076 335.96 632.237 335.96 630.398C335.96 628.559 337.537 626.72 339.114 626.72C340.692 626.72 342.269 628.559 342.269 630.398Z" fill="#E5E5E5"/>
<path d="M409.566 630.398C409.566 632.237 407.989 634.076 406.411 634.076C404.834 634.076 403.257 632.237 403.257 630.398C403.257 628.559 404.834 626.72 406.411 626.72C407.989 626.72 409.566 628.559 409.566 630.398Z" fill="#E5E5E5"/>
<path d="M476.337 630.398C476.337 632.237 474.76 634.076 473.183 634.076C471.606 634.076 470.028 632.237 470.028 630.398C470.028 628.559 471.606 626.72 473.183 626.72C475.286 626.72 476.337 628.559 476.337 630.398Z" fill="#E5E5E5"/>
<path d="M543.635 630.398C543.635 632.237 542.057 634.076 540.48 634.076C538.903 634.076 537.325 632.237 537.325 630.398C537.325 628.559 538.903 626.72 540.48 626.72C542.057 626.72 543.635 628.559 543.635 630.398Z" fill="#E5E5E5"/>
<path d="M610.932 630.398C610.932 632.237 609.354 634.076 607.777 634.076C606.2 634.076 604.623 632.237 604.623 630.398C604.623 628.559 606.2 626.72 607.777 626.72C609.354 626.72 610.932 628.559 610.932 630.398Z" fill="#E5E5E5"/>
<path d="M678.229 630.398C678.229 632.237 676.651 634.076 675.074 634.076C673.497 634.076 671.919 632.237 671.919 630.398C671.919 628.559 673.497 626.72 675.074 626.72C676.651 626.72 678.229 628.559 678.229 630.398Z" fill="#E5E5E5"/>
<path d="M745 630.398C745 632.237 743.423 634.076 741.845 634.076C740.268 634.076 738.691 632.237 738.691 630.398C738.691 628.559 740.268 626.72 741.845 626.72C743.949 626.72 745 628.559 745 630.398Z" fill="#E5E5E5"/>
<path d="M6.30911 708.86C6.30911 710.699 4.73183 712.538 3.15455 712.538C1.57728 712.538 0 710.699 0 708.86C0 707.021 1.57728 705.182 3.15455 705.182C4.73183 705.182 6.30911 706.408 6.30911 708.86Z" fill="#E5E5E5"/>
<path d="M73.6061 708.86C73.6061 710.699 72.0288 712.538 70.4516 712.538C68.8743 712.538 67.297 710.699 67.297 708.86C67.297 707.021 68.8743 705.182 70.4516 705.182C72.0288 705.182 73.6061 706.408 73.6061 708.86Z" fill="#E5E5E5"/>
<path d="M140.903 708.86C140.903 710.699 139.326 712.538 137.749 712.538C136.171 712.538 134.594 710.699 134.594 708.86C134.594 707.021 136.171 705.182 137.749 705.182C139.326 705.182 140.903 706.408 140.903 708.86Z" fill="#E5E5E5"/>
<path d="M208.201 708.86C208.201 710.699 206.623 712.538 205.046 712.538C203.469 712.538 201.891 710.699 201.891 708.86C201.891 707.021 203.469 705.182 205.046 705.182C206.623 705.182 208.201 706.408 208.201 708.86Z" fill="#E5E5E5"/>
<path d="M274.972 708.86C274.972 710.699 273.394 712.538 271.817 712.538C270.24 712.538 268.663 710.699 268.663 708.86C268.663 707.021 270.24 705.182 271.817 705.182C273.394 705.182 274.972 706.408 274.972 708.86Z" fill="#E5E5E5"/>
<path d="M342.269 708.86C342.269 710.699 340.692 712.538 339.114 712.538C337.537 712.538 335.96 710.699 335.96 708.86C335.96 707.021 337.537 705.182 339.114 705.182C340.692 705.182 342.269 706.408 342.269 708.86Z" fill="#E5E5E5"/>
<path d="M409.566 708.86C409.566 710.699 407.989 712.538 406.411 712.538C404.834 712.538 403.257 710.699 403.257 708.86C403.257 707.021 404.834 705.182 406.411 705.182C407.989 705.182 409.566 706.408 409.566 708.86Z" fill="#E5E5E5"/>
<path d="M476.337 708.86C476.337 710.699 474.76 712.538 473.183 712.538C471.606 712.538 470.028 710.699 470.028 708.86C470.028 707.021 471.606 705.182 473.183 705.182C475.286 705.182 476.337 706.408 476.337 708.86Z" fill="#E5E5E5"/>
<path d="M543.635 708.86C543.635 710.699 542.057 712.538 540.48 712.538C538.903 712.538 537.325 710.699 537.325 708.86C537.325 707.021 538.903 705.182 540.48 705.182C542.057 705.182 543.635 706.408 543.635 708.86Z" fill="#E5E5E5"/>
<path d="M610.932 708.86C610.932 710.699 609.354 712.538 607.777 712.538C606.2 712.538 604.623 710.699 604.623 708.86C604.623 707.021 606.2 705.182 607.777 705.182C609.354 705.182 610.932 706.408 610.932 708.86Z" fill="#E5E5E5"/>
<path d="M678.229 708.86C678.229 710.699 676.651 712.538 675.074 712.538C673.497 712.538 671.919 710.699 671.919 708.86C671.919 707.021 673.497 705.182 675.074 705.182C676.651 705.182 678.229 706.408 678.229 708.86Z" fill="#E5E5E5"/>
<path d="M745 708.86C745 710.699 743.423 712.538 741.845 712.538C740.268 712.538 738.691 710.699 738.691 708.86C738.691 707.021 740.268 705.182 741.845 705.182C743.949 705.182 745 706.408 745 708.86Z" fill="#E5E5E5"/>
<path d="M6.30911 786.709C6.30911 788.548 4.73183 790.387 3.15455 790.387C1.57728 790.387 0 789.161 0 786.709C0 784.87 1.57728 783.031 3.15455 783.031C4.73183 783.031 6.30911 784.87 6.30911 786.709Z" fill="#E5E5E5"/>
<path d="M73.6061 786.709C73.6061 788.548 72.0288 790.387 70.4516 790.387C68.8743 790.387 67.297 788.548 67.297 786.709C67.297 784.87 68.8743 783.031 70.4516 783.031C72.0288 783.031 73.6061 784.87 73.6061 786.709Z" fill="#E5E5E5"/>
<path d="M140.903 786.709C140.903 788.548 139.326 790.387 137.749 790.387C136.171 790.387 134.594 788.548 134.594 786.709C134.594 784.87 136.171 783.031 137.749 783.031C139.326 783.031 140.903 784.87 140.903 786.709Z" fill="#E5E5E5"/>
<path d="M208.201 786.709C208.201 788.548 206.623 790.387 205.046 790.387C203.469 790.387 201.891 788.548 201.891 786.709C201.891 784.87 203.469 783.031 205.046 783.031C206.623 783.031 208.201 784.87 208.201 786.709Z" fill="#E5E5E5"/>
<path d="M274.972 786.709C274.972 788.548 273.394 790.387 271.817 790.387C270.24 790.387 268.663 788.548 268.663 786.709C268.663 784.87 270.24 783.031 271.817 783.031C273.394 783.031 274.972 784.87 274.972 786.709Z" fill="#E5E5E5"/>
<path d="M342.269 786.709C342.269 788.548 340.692 790.387 339.114 790.387C337.537 790.387 335.96 788.548 335.96 786.709C335.96 784.87 337.537 783.031 339.114 783.031C340.692 783.031 342.269 784.87 342.269 786.709Z" fill="#E5E5E5"/>
<path d="M409.566 786.709C409.566 788.548 407.989 790.387 406.411 790.387C404.834 790.387 403.257 788.548 403.257 786.709C403.257 784.87 404.834 783.031 406.411 783.031C407.989 783.031 409.566 784.87 409.566 786.709Z" fill="#E5E5E5"/>
<path d="M476.337 786.709C476.337 788.548 474.76 790.387 473.183 790.387C471.606 790.387 470.028 788.548 470.028 786.709C470.028 784.87 471.606 783.031 473.183 783.031C475.286 783.031 476.337 784.87 476.337 786.709Z" fill="#E5E5E5"/>
<path d="M543.635 786.709C543.635 788.548 542.057 790.387 540.48 790.387C538.903 790.387 537.325 788.548 537.325 786.709C537.325 784.87 538.903 783.031 540.48 783.031C542.057 783.031 543.635 784.87 543.635 786.709Z" fill="#E5E5E5"/>
<path d="M610.932 786.709C610.932 788.548 609.354 790.387 607.777 790.387C606.2 790.387 604.623 788.548 604.623 786.709C604.623 784.87 606.2 783.031 607.777 783.031C609.354 783.031 610.932 784.87 610.932 786.709Z" fill="#E5E5E5"/>
<path d="M678.229 786.709C678.229 788.548 676.651 790.387 675.074 790.387C673.497 790.387 671.919 788.548 671.919 786.709C671.919 784.87 673.497 783.031 675.074 783.031C676.651 783.031 678.229 784.87 678.229 786.709Z" fill="#E5E5E5"/>
<path d="M745 786.709C745 788.548 743.423 790.387 741.845 790.387C740.268 790.387 738.691 788.548 738.691 786.709C738.691 784.87 740.268 783.031 741.845 783.031C743.949 783.031 745 784.87 745 786.709Z" fill="#E5E5E5"/>
</svg>
